Bali Sunaren.glyphspackage
{
glyphname = exclam;
kernLeft = colon;
kernRight = colon;
layers = (
{
layerId = m002;
shapes = (
{
closed = 1;
nodes = (
(214,0,l),
(214,91,l),
(116,91,l),
(116,0,l)
);
},
{
closed = 1;
nodes = (
(199,155,l),
(219,700,l),
(111,700,l),
(131,155,l)
);
}
);
width = 330;
}
);
metricRight = "=|";
unicode = 33;
}
{
glyphname = plus;
layers = (
{
layerId = m002;
shapes = (
{
closed = 1;
nodes = (
(382,75,l),
(382,620,l),
(312,620,l),
(312,75,l)
);
},
{
closed = 1;
nodes = (
(620,315,l),
(620,380,l),
(75,380,l),
(75,315,l)
);
}
);
width = 695;
}
);
metricLeft = minus;
metricRight = "=|";
unicode = 43;
}
{
glyphname = hyphen;
kernLeft = periodcentered;
kernRight = periodcentered;
layers = (
{
layerId = m002;
shapes = (
{
closed = 1;
nodes = (
(287,236,l),
(287,319,l),
(67,319,l),
(67,236,l)
);
}
);
width = 354;
}
);
metricRight = "=|";
unicode = 45;
}
{
glyphname = zero;
kernLeft = zero;
kernRight = zero;
layers = (
{
anchors = (
{
name = center;
pos = (313,350);
}
);
layerId = m002;
shapes = (
{
closed = 1;
nodes = (
(466,-10,o),
(557,123,o),
(557,337,cs),
(557,356,ls),
(557,593,o),
(466,710,o),
(315,710,cs),
(169,710,o),
(70,578,o),
(70,356,cs),
(70,338,ls),
(70,120,o),
(162,-10,o),
(315,-10,cs)
);
},
{
closed = 1;
nodes = (
(214,68,o),
(157,155,o),
(157,338,cs),
(157,356,ls),
(157,544,o),
(214,632,o),
(315,632,cs),
(411,632,o),
(469,550,o),
(469,356,cs),
(469,338,ls),
(469,159,o),
(411,68,o),
(315,68,cs)
);
}
);
width = 627;
},
{
anchors = (
{
name = tail_Q;
pos = (276,43);
}
);
associatedMasterId = m002;
layerId = "64A053DD-3644-499C-AD33-82D3A668326C";
name = "16 Jun 23 11.03";
shapes = (
{
closed = 1;
nodes = (
(397,-10,o),
(477,120,o),
(477,348,cs),
(477,575,o),
(396,710,o),
(265,710,cs),
(130,710,o),
(50,569,o),
(50,348,cs),
(50,126,o),
(130,-10,o),
(265,-10,cs)
);
},
{
closed = 1;
nodes = (
(176,65,o),
(131,160,o),
(131,348,cs),
(131,535,o),
(175,635,o),
(265,635,cs),
(351,635,o),
(397,539,o),
(397,348,cs),
(397,156,o),
(351,65,o),
(265,65,cs)
);
}
);
width = 527;
}
);
metricRight = "=|";
unicode = 48;
}
{
glyphname = two;
kernLeft = two;
kernRight = two;
layers = (
{
guides = (
{
angle = 270;
pos = (67,68);
}
);
layerId = m002;
shapes = (
{
closed = 1;
nodes = (
(478,0,l),
(478,78,l),
(108,78,l),
(138,40,l),
(134,58,o),
(130,76,o),
(130,95,cs),
(130,270,o),
(478,259,o),
(478,515,cs),
(478,640,o),
(395,710,o),
(269,710,cs),
(130,710,o),
(36,626,o),
(49,480,c),
(37,501,l),
(151,497,l),
(135,486,l),
(129,587,o),
(188,636,o),
(266,636,cs),
(348,636,o),
(392,583,o),
(392,512,cs),
(392,312,o),
(42,335,o),
(42,74,cs),
(42,50,o),
(45,24,o),
(48,0,c)
);
}
);
width = 522;
},
{
associatedMasterId = m002;
layerId = "217662F6-B780-46B5-B0FD-3AB740827F8C";
name = "16 Jun 23 11.18";
shapes = (
{
closed = 1;
nodes = (
(440,0,l),
(440,70,l),
(85,70,l),
(127,41,l),
(376,359,ls),
(433,432,o),
(455,485,o),
(455,536,cs),
(455,640,o),
(369,710,o),
(258,710,cs),
(185,710,o),
(107,679,o),
(50,623,c),
(53,674,l),
(117,539,l),
(80,555,l),
(134,604,o),
(196,632,o),
(254,632,cs),
(329,632,o),
(375,598,o),
(375,539,cs),
(375,502,o),
(357,462,o),
(318,412,cs),
(49,69,l),
(49,0,l)
);
}
);
width = 493;
},
{
associatedMasterId = m002;
guides = (
{
angle = 270;
pos = (54,68);
}
);
layerId = "74C06D6D-A01B-4ADE-B769-F4E55F30DFBF";
name = "27 Jul 23 12.45";
shapes = (
{
closed = 1;
nodes = (
(451,0,l),
(451,78,l),
(114,78,l),
(144,41,l),
(140,59,o),
(136,77,o),
(136,95,cs),
(137,284,o),
(451,268,o),
(451,515,cs),
(451,652,o),
(345,710,o),
(246,710,cs),
(173,710,o),
(99,681,o),
(41,626,c),
(45,653,l),
(104,561,l),
(79,559,l),
(125,604,o),
(178,633,o),
(239,633,cs),
(314,633,o),
(365,589,o),
(365,511,cs),
(365,318,o),
(49,337,o),
(49,73,cs),
(49,50,o),
(51,24,o),
(54,0,c)
);
}
);
width = 500;
}
);
unicode = 50;
}
{
glyphname = three;
kernLeft = three;
kernRight = three;
layers = (
{
background = {
shapes = (
{
pos = (-55,0);
ref = two;
}
);
};
layerId = m002;
shapes = (
{
closed = 1;
nodes = (
(395,-10,o),
(476,78,o),
(476,198,cs),
(476,292,o),
(427,359,o),
(345,380,c),
(345,382,l),
(407,406,o),
(450,465,o),
(450,541,cs),
(450,647,o),
(368,710,o),
(254,710,cs),
(119,710,o),
(25,623,o),
(39,480,c),
(27,501,l),
(141,497,l),
(125,486,l),
(117,582,o),
(170,636,o),
(252,636,cs),
(328,636,o),
(369,589,o),
(369,527,cs),
(369,446,o),
(298,408,o),
(221,408,cs),
(181,408,l),
(181,336,l),
(235,336,ls),
(326,336,o),
(390,293,o),
(390,200,cs),
(390,119,o),
(340,67,o),
(247,67,cs),
(160,67,o),
(96,112,o),
(104,214,c),
(121,203,l),
(7,199,l),
(19,220,l),
(6,70,o),
(100,-10,o),
(244,-10,cs)
);
}
);
width = 522;
},
{
associatedMasterId = m002;
background = {
shapes = (
{
pos = (-73,0);
ref = two;
}
);
};
layerId = "3FF2F475-1D40-4F0F-872E-9E762A718D8D";
name = "16 Jun 23 13.37";
shapes = (
{
closed = 1;
nodes = (
(180,68,o),
(112,88,o),
(47,145,c),
(84,161,l),
(18,26,l),
(16,77,l),
(72,21,o),
(138,-10,o),
(225,-10,cs),
(364,-10,o),
(457,70,o),
(457,192,cs),
(457,276,o),
(414,343,o),
(330,362,c),
(330,365,l),
(391,386,o),
(440,456,o),
(440,534,cs),
(440,640,o),
(348,710,o),
(235,710,cs),
(160,710,o),
(89,679,o),
(31,623,c),
(35,674,l),
(97,539,l),
(60,555,l),
(102,596,o),
(157,632,o),
(229,632,cs),
(304,632,o),
(361,592,o),
(361,528,cs),
(361,452,o),
(281,395,o),
(204,395,cs),
(137,395,l),
(136,325,l),
(207,325,ls),
(304,325,o),
(381,275,o),
(381,191,cs),
(381,108,o),
(308,68,o),
(233,68,cs)
);
}
);
width = 510;
},
{
associatedMasterId = m002;
background = {
shapes = (
{
pos = (-73,0);
ref = two;
}
);
};
layerId = "C6419FBE-14AA-4D28-BA0B-02DD71C21405";
name = "16 Jun 23 13.45";
shapes = (
{
closed = 1;
nodes = (
(378,-10,o),
(457,68,o),
(457,192,cs),
(457,277,o),
(406,344,o),
(311,362,c),
(311,365,l),
(381,384,o),
(437,446,o),
(437,532,cs),
(437,652,o),
(343,710,o),
(242,710,cs),
(160,710,o),
(93,683,o),
(30,626,c),
(34,653,l),
(93,561,l),
(68,561,l),
(114,604,o),
(169,633,o),
(237,631,cs),
(303,629,o),
(354,591,o),
(354,523,cs),
(354,435,o),
(281,396,o),
(174,396,cs),
(137,396,l),
(136,324,l),
(178,324,ls),
(304,324,o),
(371,275,o),
(371,191,cs),
(371,100,o),
(305,69,o),
(242,69,cs),
(174,69,o),
(129,88,o),
(61,134,c),
(74,138,l),
(20,45,l),
(17,64,l),
(91,14,o),
(161,-10,o),
(238,-10,cs)
);
}
);
width = 510;
},
{
associatedMasterId = m002;
background = {
shapes = (
{
pos = (-61,0);
ref = two;
}
);
};
layerId = "DE6EF3E4-5F34-4806-99E0-C66CEB708209";
name = "27 Jul 23 14.15";
shapes = (
{
closed = 1;
nodes = (
(392,-10,o),
(470,78,o),
(470,197,cs),
(470,292,o),
(421,359,o),
(339,380,c),
(339,382,l),
(401,406,o),
(444,465,o),
(444,542,cs),
(444,650,o),
(360,710,o),
(249,710,cs),
(174,710,o),
(105,683,o),
(42,626,c),
(46,653,l),
(105,561,l),
(80,562,l),
(131,609,o),
(188,635,o),
(252,633,cs),
(324,631,o),
(363,589,o),
(363,528,cs),
(363,446,o),
(293,408,o),
(186,408,cs),
(149,408,l),
(148,336,l),
(229,336,ls),
(320,336,o),
(384,293,o),
(384,200,cs),
(384,119,o),
(337,67,o),
(247,67,cs),
(188,67,o),
(136,89,o),
(73,132,c),
(86,138,l),
(32,45,l),
(29,64,l),
(103,14,o),
(173,-10,o),
(248,-10,cs)
);
}
);
width = 516;
}
);
unicode = 51;
}
{
glyphname = four;
kernLeft = four;
kernRight = four;
layers = (
{
layerId = m002;
shapes = (
{
closed = 1;
nodes = (
(423,0,l),
(423,186,l),
(402,152,l),
(500,152,l),
(500,230,l),
(402,230,l),
(423,202,l),
(423,700,l),
(299,700,l),
(370,737,l),
(-8,194,l),
(18,276,l),
(18,152,l),
(351,152,l),
(338,179,l),
(338,0,l)
);
},
{
closed = 1;
nodes = (
(360,588,l),
(357,596,l),
(344,574,o),
(341,555,o),
(341,531,cs),
(341,213,l),
(351,228,l),
(74,228,l),
(90,200,l)
);
}
);
width = 528;
}
);
unicode = 52;
}
{
glyphname = five;
kernLeft = five;
kernRight = five;
layers = (
{
background = {
shapes = (
{
closed = 0;
nodes = (
(270,-10,ls),
(418,-10,o),
(500,95,o),
(500,235,cs),
(500,374,o),
(419,463,o),
(282,463,cs),
(247,463,o),
(205,457,o),
(172,442,c),
(171,443,l),
(180,633,l),
(170,622,l),
(473,622,l),
(473,700,l),
(105,700,l),
(89,359,l),
(83,370,l),
(157,353,l),
(137,347,l),
(170,375,o),
(213,389,o),
(262,389,cs),
(365,389,o),
(414,328,o),
(414,228,cs),
(414,126,o),
(364,67,o),
(270,67,cs)
);
}
);
};
guides = (
{
angle = 270;
pos = (33,68);
}
);
layerId = m002;
shapes = (
{
closed = 1;
nodes = (
(410,-10,o),
(500,86,o),
(500,233,cs),
(500,392,o),
(395,471,o),
(271,471,cs),
(231,471,o),
(188,463,o),
(137,436,c),
(142,430,l),
(162,644,l),
(147,622,l),
(473,622,l),
(473,700,l),
(96,700,l),
(63,358,l),
(44,371,l),
(143,348,l),
(94,340,l),
(143,376,o),
(196,395,o),
(252,395,cs),
(355,395,o),
(414,331,o),
(414,229,cs),
(414,129,o),
(357,67,o),
(265,67,cs),
(180,67,o),
(119,121,o),
(124,214,c),
(143,203,l),
(29,199,l),
(41,220,l),
(29,77,o),
(125,-10,o),
(264,-10,cs)
);
}
);
width = 538;
},
{
associatedMasterId = m002;
background = {
shapes = (
{
pos = (-29,0);
ref = three;
}
);
};
layerId = "3C63AE16-32A9-4589-9887-DCCD00C655B5";
name = "16 Jun 23 13.55";
shapes = (
{
closed = 1;
nodes = (
(374,-10,o),
(451,85,o),
(451,201,cs),
(451,332,o),
(351,409,o),
(233,409,cs),
(200,409,o),
(165,403,o),
(128,387,c),
(158,376,l),
(182,670,l),
(128,630,l),
(413,630,l),
(413,700,l),
(108,700,l),
(81,360,l),
(118,321,l),
(144,333,o),
(175,342,o),
(214,342,cs),
(314,341,o),
(375,282,o),
(375,204,cs),
(375,128,o),
(317,66,o),
(224,66,cs),
(170,66,o),
(115,87,o),
(52,150,c),
(95,162,l),
(27,26,l),
(25,78,l),
(81,22,o),
(148,-10,o),
(231,-10,cs)
);
}
);
width = 484;
},
{
associatedMasterId = m002;
background = {
shapes = (
{
pos = (-60,0);
ref = three;
}
);
};
guides = (
{
angle = 270;
pos = (30,68);
}
);
layerId = "58448014-0325-4B09-A870-F485080CED28";
name = "16 Jun 23 14.13";
shapes = (
{
closed = 1;
nodes = (
(383,-10,o),
(465,94,o),
(465,237,cs),
(465,382,o),
(375,462,o),
(254,462,cs),
(202,462,o),
(150,448,o),
(97,418,c),
(109,399,l),
(123,415,o),
(133,444,o),
(136,485,cs),
(151,670,l),
(95,622,l),
(435,622,l),
(435,700,l),
(76,700,l),
(43,338,l),
(8,430,l),
(118,331,l),
(50,317,l),
(129,375,o),
(185,388,o),
(233,388,cs),
(339,388,o),
(379,330,o),
(379,233,cs),
(379,127,o),
(329,69,o),
(236,69,cs),
(179,69,o),
(127,91,o),
(64,134,c),
(77,138,l),
(23,45,l),
(20,64,l),
(94,14,o),
(164,-10,o),
(235,-10,cs)
);
}
);
width = 515;
},
{
associatedMasterId = m002;
background = {
shapes = (
{
pos = (-63,0);
ref = three;
}
);
};
guides = (
{
angle = 270;
pos = (27,68);
}
);
layerId = "6890A42A-BD99-45E4-8F9B-EB2C7A3B6A17";
name = "27 Jul 23 14.29";
shapes = (
{
closed = 1;
nodes = (
(380,-10,o),
(462,95,o),
(462,235,cs),
(462,374,o),
(381,463,o),
(244,463,cs),
(209,463,o),
(167,457,o),
(134,442,c),
(133,443,l),
(142,633,l),
(132,622,l),
(435,622,l),
(435,700,l),
(67,700,l),
(51,359,l),
(45,370,l),
(119,353,l),
(99,347,l),
(132,375,o),
(175,389,o),
(224,389,cs),
(327,389,o),
(376,328,o),
(376,228,cs),
(376,126,o),
(326,67,o),
(232,67,cs),
(176,67,o),
(119,88,o),
(61,132,c),
(74,138,l),
(20,45,l),
(17,64,l),
(91,14,o),
(161,-10,o),
(232,-10,cs)
);
}
);
width = 504;
}
);
unicode = 53;
}
{
glyphname = seven;
kernLeft = seven;
kernRight = seven;
layers = (
{
background = {
shapes = (
{
pos = (39,0);
ref = four;
}
);
};
layerId = m002;
shapes = (
{
closed = 1;
nodes = (
(206,0,l),
(215,279,o),
(295,414,o),
(430,621,c),
(430,700,l),
(28,700,l),
(28,622,l),
(391,622,l),
(366,665,l),
(223,459,o),
(126,292,o),
(118,0,c)
);
}
);
width = 446;
}
);
unicode = 55;
}
{
glyphname = question;
kernLeft = question;
kernRight = question;
layers = (
{
background = {
shapes = (
{
closed = 1;
nodes = (
(425,0,l),
(425,70,l),
(70,70,l),
(112,41,l),
(361,359,ls),
(418,432,o),
(440,485,o),
(440,536,cs),
(440,640,o),
(354,710,o),
(243,710,cs),
(170,710,o),
(92,679,o),
(35,623,c),
(38,674,l),
(102,539,l),
(65,555,l),
(119,604,o),
(181,632,o),
(239,632,cs),
(314,632,o),
(360,598,o),
(360,539,cs),
(360,502,o),
(342,462,o),
(303,412,cs),
(34,69,l),
(34,0,l)
);
}
);
};
layerId = m002;
shapes = (
{
closed = 1;
nodes = (
(276,155,l),
(276,196,ls),
(276,308,o),
(467,363,o),
(467,517,cs),
(467,640,o),
(384,710,o),
(258,710,cs),
(119,710,o),
(25,626,o),
(38,480,c),
(26,501,l),
(140,497,l),
(124,486,l),
(118,587,o),
(177,636,o),
(260,636,cs),
(349,636,o),
(381,580,o),
(381,517,cs),
(381,392,o),
(198,340,o),
(198,198,cs),
(198,155,l)
);
},
{
closed = 1;
nodes = (
(286,0,l),
(286,91,l),
(188,91,l),
(188,0,l)
);
}
);
width = 509;
},
{
associatedMasterId = m002;
background = {
shapes = (
{
closed = 1;
nodes = (
(412,0,l),
(412,70,l),
(57,70,l),
(99,41,l),
(348,359,ls),
(405,432,o),
(427,485,o),
(427,536,cs),
(427,640,o),
(341,710,o),
(230,710,cs),
(157,710,o),
(79,679,o),
(22,623,c),
(25,674,l),
(89,539,l),
(52,555,l),
(106,604,o),
(168,632,o),
(226,632,cs),
(301,632,o),
(347,598,o),
(347,539,cs),
(347,502,o),
(329,462,o),
(290,412,cs),
(21,69,l),
(21,0,l)
);
}
);
};
layerId = "B69CBC45-B621-4799-B62C-BEDB79F68035";
name = "19 Jun 23 10.26";
shapes = (
{
closed = 1;
nodes = (
(240,195,l),
(240,218,ls),
(240,274,o),
(264,305,o),
(318,353,cs),
(368,398,o),
(427,446,o),
(427,535,cs),
(427,643,o),
(341,710,o),
(231,710,cs),
(157,710,o),
(79,679,o),
(22,623,c),
(25,674,l),
(89,539,l),
(52,555,l),
(106,604,o),
(168,632,o),
(230,632,cs),
(301,632,o),
(347,596,o),
(347,538,cs),
(347,482,o),
(304,440,o),
(262,400,cs),
(215,356,o),
(167,305,o),
(167,222,cs),
(167,195,l)
);
},
{
closed = 1;
nodes = (
(243,0,l),
(243,90,l),
(155,90,l),
(155,0,l)
);
}
);
width = 465;
},
{
anchors = (
{
name = colon;
pos = (158,545);
}
);
associatedMasterId = m002;
background = {
shapes = (
{
closed = 1;
nodes = (
(375,0,l),
(375,70,l),
(20,70,l),
(62,41,l),
(311,359,ls),
(368,432,o),
(390,485,o),
(390,536,cs),
(390,640,o),
(304,710,o),
(193,710,cs),
(120,710,o),
(42,679,o),
(-15,623,c),
(-12,674,l),
(52,539,l),
(15,555,l),
(69,604,o),
(131,632,o),
(189,632,cs),
(264,632,o),
(310,598,o),
(310,539,cs),
(310,502,o),
(292,462,o),
(253,412,cs),
(-16,69,l),
(-16,0,l)
);
}
);
};
layerId = "8934699D-C7BB-4944-A30E-30A449D9B78D";
name = "11 Jul 23 17.59";
shapes = (
{
closed = 1;
nodes = (
(246,155,l),
(246,207,ls),
(246,308,o),
(416,373,o),
(416,525,cs),
(416,650,o),
(321,710,o),
(211,710,cs),
(137,710,o),
(64,681,o),
(6,626,c),
(10,653,l),
(69,561,l),
(44,557,l),
(90,602,o),
(144,631,o),
(214,631,cs),
(281,631,o),
(331,596,o),
(331,524,cs),
(331,403,o),
(168,340,o),
(168,209,cs),
(168,155,l)
);
},
{
closed = 1;
nodes = (
(256,0,l),
(256,91,l),
(158,91,l),
(158,0,l)
);
}
);
width = 466;
},
{
anchors = (
{
name = colon;
pos = (158,545);
}
);
associatedMasterId = m002;
background = {
shapes = (
{
closed = 1;
nodes = (
(375,0,l),
(375,70,l),
(20,70,l),
(62,41,l),
(311,359,ls),
(368,432,o),
(390,485,o),
(390,536,cs),
(390,640,o),
(304,710,o),
(193,710,cs),
(120,710,o),
(42,679,o),
(-15,623,c),
(-12,674,l),
(52,539,l),
(15,555,l),
(69,604,o),
(131,632,o),
(189,632,cs),
(264,632,o),
(310,598,o),
(310,539,cs),
(310,502,o),
(292,462,o),
(253,412,cs),
(-16,69,l),
(-16,0,l)
);
}
);
};
layerId = "3394607E-9A33-48DF-8C31-963724EE43B9";
name = "11 Jul 23 18.04";
shapes = (
{
closed = 1;
nodes = (
(226,155,l),
(226,196,ls),
(226,308,o),
(416,360,o),
(416,525,cs),
(416,650,o),
(321,710,o),
(211,710,cs),
(137,710,o),
(64,679,o),
(6,626,c),
(10,653,l),
(69,561,l),
(44,557,l),
(90,602,o),
(144,631,o),
(214,631,cs),
(281,631,o),
(331,596,o),
(331,526,cs),
(331,392,o),
(148,340,o),
(148,198,cs),
(148,155,l)
);
},
{
closed = 1;
nodes = (
(236,0,l),
(236,91,l),
(138,91,l),
(138,0,l)
);
}
);
width = 466;
},
{
associatedMasterId = m002;
background = {
shapes = (
{
closed = 1;
nodes = (
(395,0,l),
(395,70,l),
(40,70,l),
(82,41,l),
(331,359,ls),
(388,432,o),
(410,485,o),
(410,536,cs),
(410,640,o),
(324,710,o),
(213,710,cs),
(140,710,o),
(62,679,o),
(5,623,c),
(8,674,l),
(72,539,l),
(35,555,l),
(89,604,o),
(151,632,o),
(209,632,cs),
(284,632,o),
(330,598,o),
(330,539,cs),
(330,502,o),
(312,462,o),
(273,412,cs),
(4,69,l),
(4,0,l)
);
}
);
};
layerId = "C216FB9B-EEA5-4DF4-9317-4A01FD1E001C";
name = "27 Jul 23 16.57";
shapes = (
{
closed = 1;
nodes = (
(246,155,l),
(246,196,ls),
(246,308,o),
(436,360,o),
(436,525,cs),
(436,650,o),
(341,710,o),
(231,710,cs),
(157,710,o),
(84,682,o),
(26,636,c),
(31,653,l),
(84,561,l),
(64,567,l),
(116,609,o),
(164,631,o),
(234,631,cs),
(301,631,o),
(351,596,o),
(351,526,cs),
(351,392,o),
(168,340,o),
(168,198,cs),
(168,155,l)
);
},
{
closed = 1;
nodes = (
(256,0,l),
(256,91,l),
(158,91,l),
(158,0,l)
);
}
);
width = 479;
}
);
unicode = 63;
}
{
glyphname = H;
kernLeft = H;
kernRight = H;
layers = (
{
anchors = (
{
name = bottom;
pos = (347,0);
},
{
name = center;
pos = (347,350);
},
{
name = top;
pos = (347,700);
},
{
name = topleft;
pos = (20,700);
}
);
background = {
shapes = (
{
pos = (-11,0);
ref = O;
}
);
};
layerId = m002;
shapes = (
{
closed = 1;
nodes = (
(179,0,l),
(179,341,l),
(159,318,l),
(527,318,l),
(514,337,l),
(514,0,l),
(601,0,l),
(601,700,l),
(514,700,l),
(514,375,l),
(531,396,l),
(159,396,l),
(179,372,l),
(179,700,l),
(92,700,l),
(92,0,l)
);
}
);
width = 693;
}
);
metricRight = "=|";
unicode = 72;
}
{
glyphname = M;
kernLeft = H;
kernRight = H;
layers = (
{
anchors = (
{
name = bottom;
pos = (428,0);
},
{
name = top;
pos = (428,700);
}
);
background = {
shapes = (
{
pos = (139,0);
ref = V;
}
);
};
layerId = m002;
shapes = (
{
closed = 1;
nodes = (
(175,0,l),
(175,569,ls),
(175,601,o),
(166,629,o),
(166,657,c),
(157,657,l),
(370,0,l),
(483,0,l),
(700,657,l),
(690,657,l),
(690,629,o),
(680,602,o),
(680,567,cs),
(680,0,l),
(765,0,l),
(765,700,l),
(625,700,l),
(417,53,l),
(436,53,l),
(230,700,l),
(92,700,l),
(92,0,l)
);
}
);
width = 857;
},
{
associatedMasterId = m002;
background = {
shapes = (
{
pos = (91,0);
ref = V;
}
);
};
layerId = "1D824A9F-1347-4DF1-9A49-3F68593BFB53";
name = "18 Apr 23 15.53";
shapes = (
{
closed = 1;
nodes = (
(160,0,l),
(160,377,ls),
(160,508,o),
(148,588,o),
(139,615,c),
(147,619,l),
(360,0,l),
(444,0,l),
(661,619,l),
(667,617,l),
(661,591,o),
(650,506,o),
(650,377,cs),
(650,0,l),
(735,0,l),
(735,700,l),
(604,700,l),
(422,179,ls),
(411,146,o),
(407,113,o),
(405,95,c),
(400,95,l),
(399,113,o),
(395,142,o),
(380,187,cs),
(205,700,l),
(75,700,l),
(75,0,l)
);
}
);
width = 810;
}
);
metricLeft = H;
metricRight = H;
unicode = 77;
}
{
glyphname = S;
kernLeft = S;
kernRight = S;
layers = (
{
anchors = (
{
name = bar_ver;
pos = (307,359);
},
{
name = bottom;
pos = (315,0);
},
{
name = top;
pos = (303,700);
}
);
background = {
shapes = (
{
closed = 1;
nodes = (
(381,-10,o),
(483,53,o),
(483,195,cs),
(483,452,o),
(150,360,o),
(150,524,cs),
(150,590,o),
(203,632,o),
(284,632,cs),
(339,632,o),
(389,613,o),
(437,569,c),
(420,565,l),
(470,656,l),
(475,638,l),
(416,691,o),
(346,710,o),
(284,710,cs),
(171,710,o),
(65,648,o),
(65,516,cs),
(65,281,o),
(398,383,o),
(398,191,cs),
(398,112,o),
(341,69,o),
(258,69,cs),
(202,69,o),
(138,88,o),
(70,134,c),
(83,138,l),
(29,45,l),
(26,64,l),
(100,14,o),
(180,-10,o),
(257,-10,cs)
);
}
);
};
layerId = m002;
shapes = (
{
closed = 1;
nodes = (
(467,-10,o),
(548,61,o),
(548,186,cs),
(548,463,o),
(150,347,o),
(150,523,cs),
(150,586,o),
(200,636,o),
(298,636,cs),
(396,636,o),
(458,586,o),
(451,486,c),
(434,497,l),
(548,501,l),
(537,480,l),
(549,627,o),
(451,710,o),
(301,710,cs),
(165,710,o),
(62,642,o),
(62,515,cs),
(62,265,o),
(460,394,o),
(460,183,cs),
(460,114,o),
(417,67,o),
(301,67,cs),
(191,67,o),
(121,109,o),
(124,229,c),
(152,208,l),
(17,200,l),
(35,225,l),
(30,62,o),
(129,-10,o),
(299,-10,cs)
);
}
);
width = 594;
},
{
anchors = (
{
name = bar_ver;
pos = (262,359);
}
);
associatedMasterId = m002;
layerId = "BAC19501-65AB-4970-88ED-B6B9DAA264B1";
name = "26 Apr 23 10.12";
shapes = (
{
closed = 1;
nodes = (
(390,-10,o),
(474,63,o),
(474,181,cs),
(474,418,o),
(130,382,o),
(130,536,cs),
(130,597,o),
(183,632,o),
(257,632,cs),
(331,632,o),
(389,598,o),
(447,540,c),
(389,539,l),
(463,674,l),
(476,612,l),
(412,684,o),
(333,710,o),
(258,710,cs),
(131,710,o),
(44,634,o),
(44,525,cs),
(44,311,o),
(386,356,o),
(385,178,cs),
(385,115,o),
(344,69,o),
(258,69,cs),
(184,69,o),
(107,101,o),
(28,163,c),
(75,185,l),
(-2,50,l),
(-4,87,l),
(71,25,o),
(164,-10,o),
(260,-10,cs)
);
}
);
width = 503;
},
{
anchors = (
{
name = bar_ver;
pos = (262,359);
}
);
associatedMasterId = m002;
background = {
shapes = (
{
pos = (-38,0);
ref = E;
},
{
closed = 0;
nodes = (
(356,379,ls),
(299,400,o),
(217,407,o),
(177,430,cs)
);
},
{
closed = 0;
nodes = (
(105,373,ls),
(153,339,o),
(244,329,o),
(297,316,cs)
);
}
);
};
layerId = "1F6F519B-08AE-4C4B-9520-A8EA2A250F71";
name = "27 Apr 23 09.03";
shapes = (
{
closed = 1;
nodes = (
(75,16,o),
(159,-10,o),
(240,-10,cs),
(370,-10,o),
(469,54,o),
(469,194,cs),
(469,456,o),
(134,358,o),
(134,521,cs),
(134,590,o),
(187,632,o),
(265,632,cs),
(334,632,o),
(393,599,o),
(449,540,c),
(389,539,l),
(463,674,l),
(477,619,l),
(418,680,o),
(339,710,o),
(262,710,cs),
(147,710,o),
(46,644,o),
(46,521,cs),
(46,267,o),
(380,389,o),
(380,194,cs),
(380,114,o),
(324,76,o),
(243,76,cs),
(178,76,o),
(107,99,o),
(30,156,c),
(74,152,l),
(5,33,l),
(-2,72,l)
);
}
);
width = 503;
},
{
anchors = (
{
name = bar_ver;
pos = (262,359);
}
);
associatedMasterId = m002;
background = {
shapes = (
{
pos = (-38,0);
ref = E;
},
{
closed = 0;
nodes = (
(356,379,ls),
(299,400,o),
(217,407,o),
(177,430,cs)
);
},
{
closed = 0;
nodes = (
(105,373,ls),
(153,339,o),
(244,329,o),
(297,316,cs)
);
}
);
};
layerId = "DF1AFBAF-8635-4DC5-BF78-47C628920AAF";
name = "28 Apr 23 10.49";
shapes = (
{
closed = 1;
nodes = (
(75,16,o),
(159,-10,o),
(240,-10,cs),
(365,-10,o),
(466,54,o),
(466,194,cs),
(466,453,o),
(133,356,o),
(133,521,cs),
(133,590,o),
(186,632,o),
(265,632,cs),
(334,632,o),
(393,599,o),
(449,540,c),
(389,539,l),
(463,674,l),
(477,619,l),
(418,680,o),
(339,710,o),
(262,710,cs),
(156,710,o),
(48,644,o),
(48,521,cs),
(48,272,o),
(381,391,o),
(381,194,cs),
(381,112,o),
(324,69,o),
(244,69,cs),
(177,69,o),
(107,93,o),
(30,150,c),
(74,152,l),
(5,33,l),
(-2,72,l)
);
}
);
width = 503;
}
);
unicode = 83;
}
{
glyphname = b;
kernLeft = h;
kernRight = o;
layers = (
{
anchors = (
{
name = bottom;
pos = (308,0);
},
{
name = center;
pos = (308,273);
},
{
name = top;
pos = (308,545);
}
);
background = {
shapes = (
{
pos = (-10,0);
ref = n;
}
);
};
layerId = m002;
shapes = (
{
closed = 1;
nodes = (
(147,0,l),
(167,76,l),
(168,118,l),
(156,151,l),
(156,443,l),
(167,450,l),
(167,750,l),
(82,750,l),
(82,0,l)
);
},
{
closed = 1;
nodes = (
(452,-10,o),
(561,86,o),
(561,272,cs),
(561,447,o),
(464,555,o),
(334,555,cs),
(268,555,o),
(212,527,o),
(169,469,c),
(138,469,l),
(132,76,l),
(170,76,l),
(198,28,o),
(257,-10,o),
(332,-10,cs)
);
},
{
closed = 1;
nodes = (
(228,66,o),
(163,138,o),
(163,274,c),
(163,275,l),
(163,423,o),
(241,477,o),
(317,477,cs),
(415,477,o),
(473,391,o),
(473,275,cs),
(473,152,o),
(407,66,o),
(314,66,cs)
);
}
);
width = 608;
},
{
anchors = (
{
name = bottom;
pos = (343,0);
},
{
name = top;
pos = (343,750);
}
);
associatedMasterId = m002;
background = {
shapes = (
{
closed = 1;
nodes = (
(377,110,o),
(403,117,o),
(426,132,c),
(449,147,o),
(467,166,o),
(480,190,c),
(492,214,o),
(498,240,o),
(498,267,c),
(498,273,l),
(498,303,o),
(492,330,o),
(479,354,c),
(466,377,o),
(449,396,o),
(426,410,c),
(403,424,o),
(377,430,o),
(348,430,c),
(317,430,o),
(291,423,o),
(268,409,c),
(246,394,o),
(229,375,o),
(217,351,c),
(205,327,o),
(200,301,o),
(200,272,c),
(200,263,l),
(200,234,o),
(206,208,o),
(219,185,c),
(231,162,o),
(249,143,o),
(271,130,c),
(294,117,o),
(319,110,o),
(347,110,c)
);
},
{
closed = 1;
nodes = (
(344,-10,o),
(310,-4,o),
(279,8,c),
(249,21,o),
(224,37,o),
(204,58,c),
(184,79,o),
(168,102,o),
(158,128,c),
(158,410,l),
(166,437,o),
(179,461,o),
(198,482,c),
(217,504,o),
(242,521,o),
(272,533,c),
(302,545,o),
(336,552,o),
(374,552,c),
(427,552,o),
(474,539,o),
(515,514,c),
(556,489,o),
(587,455,o),
(610,413,c),
(633,370,o),
(644,324,o),
(644,273,c),
(644,264,l),
(644,211,o),
(633,163,o),
(610,122,c),
(587,81,o),
(555,48,o),
(515,25,c),
(475,1,o),
(431,-10,o),
(383,-10,c)
);
},
{
closed = 1;
nodes = (
(53,0,l),
(53,740,l),
(200,740,l),
(200,106,l),
(187,0,l)
);
}
);
};
layerId = "F273C629-C432-4C07-81A3-DE9416EB0548";
name = "28 Oct 22 12.03";
shapes = (
{
closed = 1;
nodes = (
(167,0,l),
(199,106,l),
(199,740,l),
(53,740,l),
(53,0,l)
);
},
{
closed = 1;
nodes = (
(522,-10,o),
(637,99,o),
(637,276,cs),
(637,447,o),
(532,555,o),
(392,555,cs),
(303,555,o),
(232,511,o),
(187,441,c),
(182,103,l),
(232,27,o),
(298,-10,o),
(387,-10,cs)
);
},
{
closed = 1;
nodes = (
(263,107,o),
(206,177,o),
(206,272,cs),
(206,367,o),
(263,435,o),
(349,435,cs),
(432,435,o),
(488,376,o),
(488,274,cs),
(488,169,o),
(428,107,o),
(346,107,cs)
);
}
);
width = 660;
}
);
metricLeft = h;
metricRight = o;
unicode = 98;
}
{
glyphname = l;
kernLeft = l;
kernRight = l;
layers = (
{
anchors = (
{
name = bottom;
pos = (157,0);
},
{
name = center;
pos = (112,428);
},
{
name = top;
pos = (124,750);
},
{
name = topright;
pos = (220,750);
}
);
background = {
shapes = (
{
pos = (-288,0);
ref = a;
}
);
};
layerId = m002;
shapes = (
{
closed = 1;
nodes = (
(201,-10,o),
(228,-5,o),
(250,12,c),
(237,-7,l),
(211,75,l),
(236,69,l),
(221,63,o),
(205,60,o),
(192,60,cs),
(170,60,o),
(156,71,o),
(156,107,cs),
(156,750,l),
(71,750,l),
(71,108,ls),
(71,34,o),
(108,-10,o),
(176,-10,cs)
);
}
);
width = 252;
}
);
unicode = 108;
}
{
glyphname = n;
kernLeft = n;
kernRight = n;
layers = (
{
anchors = (
{
name = bottom;
pos = (308,0);
},
{
name = top;
pos = (308,545);
}
);
background = {
shapes = (
{
pos = (-10,0);
ref = b;
}
);
};
guides = (
{
pos = (170,468);
}
);
layerId = m002;
shapes = (
{
closed = 1;
nodes = (
(167,0,l),
(167,466,l),
(147,545,l),
(82,545,l),
(82,0,l)
);
},
{
closed = 1;
nodes = (
(518,0,l),
(518,345,ls),
(518,469,o),
(455,555,o),
(338,555,cs),
(256,555,o),
(202,513,o),
(170,468,c),
(156,468,l),
(159,339,l),
(167,339,l),
(177,404,o),
(225,479,o),
(317,479,cs),
(388,479,o),
(432,435,o),
(432,335,cs),
(432,0,l)
);
}
);
width = 598;
}
);
unicode = 110;
}
{
glyphname = o;
kernLeft = o;
kernRight = o;
layers = (
{
anchors = (
{
name = bottom;
pos = (302,0);
},
{
name = center;
pos = (302,273);
},
{
name = ogonek;
pos = (330,0);
},
{
name = top;
pos = (302,545);
},
{
name = topright;
pos = (589,545);
}
);
background = {
shapes = (
{
pos = (-7,0);
ref = n;
}
);
};
layerId = m002;
shapes = (
{
closed = 1;
nodes = (
(446,-10,o),
(557,89,o),
(557,273,cs),
(557,454,o),
(446,555,o),
(302,555,cs),
(158,555,o),
(47,451,o),
(47,273,cs),
(47,93,o),
(158,-10,o),
(302,-10,cs)
);
},
{
closed = 1;
nodes = (
(215,66,o),
(134,121,o),
(134,273,cs),
(134,427,o),
(215,479,o),
(302,479,cs),
(389,479,o),
(468,427,o),
(468,273,cs),
(468,119,o),
(391,66,o),
(302,66,cs)
);
}
);
width = 604;
}
);
metricRight = "=|";
unicode = 111;
}
{
glyphname = q;
kernLeft = o;
kernRight = g;
layers = (
{
background = {
shapes = (
{
pos = (571,0);
ref = p;
scale = (-1,1);
}
);
};
layerId = m002;
shapes = (
{
closed = 1;
nodes = (
(521,-205,l),
(521,545,l),
(453,545,l),
(436,469,l),
(436,437,l),
(456,413,l),
(456,102,l),
(436,95,l),
(436,-205,l)
);
},
{
closed = 1;
nodes = (
(353,-10,o),
(403,22,o),
(434,80,c),
(471,80,l),
(465,477,l),
(435,477,l),
(403,520,o),
(353,555,o),
(279,555,cs),
(150,555,o),
(47,449,o),
(47,274,cs),
(47,99,o),
(149,-10,o),
(281,-10,cs)
);
},
{
closed = 1;
nodes = (
(200,66,o),
(136,149,o),
(136,275,cs),
(136,401,o),
(201,479,o),
(293,479,cs),
(378,479,o),
(444,413,o),
(445,276,cs),
(445,274,ls),
(445,146,o),
(380,66,o),
(291,66,cs)
);
}
);
width = 603;
}
);
metricLeft = o;
metricRight = "=|n";
unicode = 113;
}
{
glyphname = asciitilde;
layers = (
{
layerId = m002;
shapes = (
{
closed = 1;
nodes = (
(376,280,o),
(404,290,o),
(434,310,c),
(434,380,l),
(404,360,o),
(376,350,o),
(348,350,cs),
(280,350,o),
(234,410,o),
(162,410,cs),
(131,410,o),
(102,399,o),
(75,380,c),
(75,310,l),
(104,331,o),
(130,340,o),
(156,340,cs),
(223,340,o),
(280,280,o),
(348,280,cs)
);
}
);
width = 509;
}
);
metricLeft = minus;
metricRight = minus;
unicode = 126;
}
{
glyphname = section;
layers = (
{
layerId = m002;
shapes = (
{
closed = 1;
nodes = (
(354,-215,o),
(407,-133,o),
(407,-46,cs),
(407,158,o),
(120,130,o),
(120,268,cs),
(120,328,o),
(173,366,o),
(220,374,c),
(197,426,l),
(104,407,o),
(44,345,o),
(44,260,cs),
(44,76,o),
(327,98,o),
(327,-44,cs),
(327,-89,o),
(298,-139,o),
(213,-139,cs),
(160,-139,o),
(101,-119,o),
(42,-75,c),
(78,-76,l),
(18,-183,l),
(2,-146,l),
(70,-194,o),
(139,-215,o),
(211,-215,cs)
);
},
{
closed = 1;
nodes = (
(392,98,o),
(437,162,o),
(437,235,cs),
(437,418,o),
(154,402,o),
(154,548,cs),
(154,606,o),
(198,635,o),
(260,635,cs),
(310,635,o),
(357,616,o),
(393,578,c),
(374,579,l),
(425,676,l),
(429,645,l),
(385,689,o),
(324,710,o),
(259,710,cs),
(136,710,o),
(74,635,o),
(74,543,cs),
(74,348,o),
(354,362,o),
(354,231,cs),
(354,189,o),
(325,150,o),
(248,132,c),
(282,81,l)
);
}
);
width = 478;
}
);
unicode = 167;
}
{
glyphname = copyright;
kernLeft = O;
kernRight = O;
layers = (
{
layerId = m002;
shapes = (
{
closed = 1;
nodes = (
(620,-10,o),
(768,139,o),
(768,349,cs),
(768,559,o),
(619,710,o),
(412,710,cs),
(210,710,o),
(55,565,o),
(55,349,cs),
(55,137,o),
(205,-10,o),
(412,-10,cs)
);
},
{
closed = 1;
nodes = (
(244,51,o),
(120,173,o),
(120,351,cs),
(120,522,o),
(234,649,o),
(411,649,cs),
(585,649,o),
(703,526,o),
(703,350,cs),
(703,172,o),
(583,51,o),
(414,51,cs)
);
},
{
closed = 1;
nodes = (
(476,139,o),
(534,163,o),
(560,199,c),
(564,141,l),
(497,268,l),
(542,252,l),
(507,222,o),
(463,201,o),
(418,201,cs),
(351,201,o),
(294,249,o),
(294,353,cs),
(294,461,o),
(355,507,o),
(427,507,cs),
(465,507,o),
(505,494,o),
(556,447,c),
(505,440,l),
(562,571,l),
(559,516,l),
(536,540,o),
(492,570,o),
(421,570,cs),
(304,570,o),
(225,488,o),
(225,351,cs),
(225,210,o),
(308,139,o),
(414,139,cs)
);
}
);
width = 823;
},
{
associatedMasterId = m002;
layerId = "89FD47B2-78F5-432B-8EB5-59E7F43840A1";
name = "19 Jun 23 16.17";
shapes = (
{
closed = 1;
nodes = (
(622,-10,o),
(768,136,o),
(768,360,cs),
(768,558,o),
(615,710,o),
(412,710,cs),
(210,710,o),
(55,565,o),
(55,349,cs),
(55,137,o),
(205,-10,o),
(412,-10,cs)
);
},
{
closed = 1;
nodes = (
(244,51,o),
(120,174,o),
(120,349,cs),
(120,523,o),
(234,649,o),
(412,649,cs),
(585,649,o),
(703,522,o),
(703,357,cs),
(703,168,o),
(583,51,o),
(412,51,cs)
);
},
{
closed = 1;
nodes = (
(478,133,o),
(536,157,o),
(562,193,c),
(566,135,l),
(499,262,l),
(544,246,l),
(509,216,o),
(466,195,o),
(419,195,cs),
(353,195,o),
(296,243,o),
(296,349,cs),
(296,455,o),
(361,501,o),
(422,501,cs),
(467,501,o),
(503,491,o),
(558,441,c),
(507,434,l),
(564,565,l),
(561,510,l),
(536,536,o),
(494,564,o),
(417,564,cs),
(310,564,o),
(227,482,o),
(227,348,cs),
(227,202,o),
(310,133,o),
(417,133,cs)
);
}
);
width = 823;
}
);
metricLeft = O;
metricRight = O;
unicode = 169;
}
{
glyphname = twosuperior;
layers = (
{
guides = (
{
angle = 270;
pos = (54,68);
}
);
layerId = m002;
shapes = (
{
closed = 1;
nodes = (
(237,526,l),
(237,573,l),
(66,573,l),
(80,556,l),
(77,564,o),
(76,574,o),
(76,578,cs),
(76,646,o),
(237,640,o),
(237,754,cs),
(237,812,o),
(196,846,o),
(131,846,cs),
(62,846,o),
(16,804,o),
(23,737,c),
(15,747,l),
(88,745,l),
(78,741,l),
(74,778,o),
(96,798,o),
(132,798,cs),
(166,798,o),
(183,778,o),
(183,753,cs),
(183,673,o),
(18,685,o),
(18,563,cs),
(18,556,o),
(19,538,o),
(21,526,c)
);
}
);
userData = {
RMXScaler = {
height = 45;
verticalShift = 526;
weight = -27;
width = 47;
};
};
width = 255;
},
{
associatedMasterId = m002;
layerId = "217662F6-B780-46B5-B0FD-3AB740827F8C";
name = "16 Jun 23 11.18";
shapes = (
{
closed = 1;
nodes = (
(440,0,l),
(440,70,l),
(85,70,l),
(127,41,l),
(376,359,ls),
(433,432,o),
(455,485,o),
(455,536,cs),
(455,640,o),
(369,710,o),
(258,710,cs),
(185,710,o),
(107,679,o),
(50,623,c),
(53,674,l),
(117,539,l),
(80,555,l),
(134,604,o),
(196,632,o),
(254,632,cs),
(329,632,o),
(375,598,o),
(375,539,cs),
(375,502,o),
(357,462,o),
(318,412,cs),
(49,69,l),
(49,0,l)
);
}
);
width = 493;
}
);
unicode = 178;
userData = {
RMXScaler = {
source = two;
};
};
}
{
glyphname = Thorn;
kernLeft = H;
kernRight = O;
layers = (
{
layerId = m002;
shapes = (
{
closed = 1;
nodes = (
(179,0,l),
(179,152,l),
(164,135,l),
(330,135,ls),
(469,135,o),
(540,230,o),
(540,339,cs),
(540,482,o),
(450,545,o),
(329,545,cs),
(157,545,l),
(179,523,l),
(179,700,l),
(92,700,l),
(92,0,l)
);
},
{
closed = 1;
nodes = (
(179,485,l),
(160,467,l),
(327,467,ls),
(421,467,o),
(454,416,o),
(454,348,cs),
(454,254,o),
(406,213,o),
(308,213,cs),
(162,213,l),
(179,185,l)
);
}
);
width = 574;
}
);
metricLeft = H;
unicode = 222;
}
{
glyphname = eth;
kernLeft = eth;
kernRight = eth;
layers = (
{
layerId = m002;
shapes = (
{
closed = 1;
nodes = (
(427,-10,o),
(516,115,o),
(516,312,cs),
(516,544,o),
(393,665,o),
(300,701,c),
(185,700,l),
(397,605,o),
(435,463,o),
(435,320,c),
(448,337,l),
(404,425,o),
(325,451,o),
(260,451,cs),
(145,451,o),
(43,370,o),
(43,225,cs),
(43,85,o),
(139,-10,o),
(273,-10,cs)
);
},
{
closed = 1;
nodes = (
(179,68,o),
(126,136,o),
(126,230,cs),
(126,321,o),
(176,381,o),
(265,381,cs),
(353,381,o),
(413,321,o),
(413,226,cs),
(413,134,o),
(357,68,o),
(269,68,cs)
);
},
{
closed = 1;
nodes = (
(280,478,l),
(530,661,l),
(521,632,l),
(460,718,l),
(496,717,l),
(236,525,l),
(244,547,l),
(291,475,l)
);
}
);
width = 562;
}
);
unicode = 240;
}
{
glyphname = OE;
kernLeft = O;
kernRight = E;
layers = (
{
layerId = m002;
shapes = (
{
closed = 1;
nodes = (
(568,-10,o),
(695,116,o),
(695,350,cs),
(695,582,o),
(572,710,o),
(385,710,cs),
(194,710,o),
(55,575,o),
(55,350,cs),
(55,126,o),
(190,-10,o),
(383,-10,cs)
);
},
{
closed = 1;
nodes = (
(253,68,o),
(144,161,o),
(144,353,cs),
(144,542,o),
(248,632,o),
(383,632,cs),
(516,632,o),
(617,546,o),
(617,350,cs),
(617,151,o),
(515,68,o),
(388,68,cs)
);
},
{
closed = 1;
nodes = (
(987,0,l),
(987,78,l),
(485,78,l),
(425,0,l)
);
},
{
closed = 1;
nodes = (
(963,323,l),
(963,399,l),
(645,399,l),
(645,323,l)
);
},
{
closed = 1;
nodes = (
(982,622,l),
(982,700,l),
(425,700,l),
(525,622,l)
);
}
);
width = 1048;
}
);
metricLeft = O;
metricRight = E;
unicode = 338;
}
{
glyphname = hsuperior;
layers = (
{
anchors = (
{
name = bottom;
pos = (188,357);
},
{
name = center;
pos = (182,593);
},
{
name = connect;
pos = (322,357);
},
{
name = top;
pos = (182,830);
}
);
background = {
shapes = (
{
pos = (-5,0);
ref = n;
}
);
};
layerId = m002;
shapes = (
{
closed = 1;
nodes = (
(105,357,l),
(105,830,l),
(50,830,l),
(50,357,l)
);
},
{
closed = 1;
nodes = (
(322,357,l),
(322,574,ls),
(322,652,o),
(283,707,o),
(211,707,cs),
(161,707,o),
(128,682,o),
(107,652,c),
(98,652,l),
(100,570,l),
(105,570,l),
(111,608,o),
(138,658,o),
(197,658,cs),
(240,658,o),
(267,630,o),
(267,567,cs),
(267,357,l)
);
}
);
userData = {
RMXScaler = {
height = 63;
verticalShift = 357;
weight = -27;
width = 62;
};
};
width = 371;
}
);
subCategory = "";
unicode = 688;
userData = {
RMXScaler = {
source = h;
};
};
}
{
glyphname = lsuperior;
layers = (
{
anchors = (
{
name = bottom;
pos = (97,357);
},
{
name = center;
pos = (69,626);
},
{
name = top;
pos = (77,830);
},
{
name = topright;
pos = (137,830);
}
);
background = {
shapes = (
{
pos = (-290,0);
ref = a;
}
);
};
layerId = m002;
shapes = (
{
closed = 1;
nodes = (
(127,351,o),
(143,355,o),
(156,365,c),
(148,353,l),
(132,406,l),
(147,401,l),
(136,397,o),
(125,396,o),
(120,396,cs),
(106,396,o),
(98,403,o),
(98,425,cs),
(98,830,l),
(43,830,l),
(43,425,ls),
(43,378,o),
(67,351,o),
(109,351,cs)
);
}
);
userData = {
RMXScaler = {
height = 63;
verticalShift = 357;
weight = -27;
width = 62;
};
};
width = 157;
}
);
subCategory = "";
unicode = 737;
userData = {
RMXScaler = {
source = l;
};
};
}
{
glyphname = ssuperior;
layers = (
{
anchors = (
{
name = bottom;
pos = (154,357);
},
{
name = top;
pos = (158,700);
}
);
background = {
shapes = (
{
pos = (-73,0);
ref = c;
}
);
};
layerId = m002;
shapes = (
{
closed = 1;
nodes = (
(235,351,o),
(281,386,o),
(281,451,cs),
(281,586,o),
(87,530,o),
(87,610,cs),
(87,633,o),
(103,659,o),
(153,659,cs),
(194,659,o),
(227,640,o),
(224,590,c),
(217,595,l),
(283,597,l),
(276,587,l),
(281,660,o),
(233,706,o),
(156,706,cs),
(86,706,o),
(36,668,o),
(36,605,cs),
(36,480,o),
(227,542,o),
(227,449,cs),
(227,420,o),
(208,398,o),
(156,398,cs),
(98,398,o),
(75,424,o),
(71,469,c),
(83,463,l),
(11,460,l),
(19,466,l),
(24,384,o),
(77,351,o),
(155,351,cs)
);
}
);
userData = {
RMXScaler = {
height = 63;
verticalShift = 357;
weight = -27;
width = 62;
};
};
width = 309;
},
{
associatedMasterId = m002;
background = {
shapes = (
{
pos = (-65,0);
ref = c;
}
);
};
layerId = "FDF81A65-E69B-406D-A2DD-69456A8C7C07";
name = "24 Apr 23 11.16";
shapes = (
{
closed = 1;
nodes = (
(354,-10,o),
(412,75,o),
(412,148,cs),
(412,344,o),
(121,287,o),
(124,409,cs),
(125,454,o),
(165,483,o),
(233,483,cs),
(286,483,o),
(344,465,o),
(399,415,c),
(347,403,l),
(409,538,l),
(412,494,l),
(379,521,o),
(321,555,o),
(237,555,cs),
(132,555,o),
(45,501,o),
(45,400,cs),
(45,214,o),
(331,279,o),
(331,145,cs),
(331,102,o),
(302,63,o),
(225,63,cs),
(146,63,o),
(71,104,o),
(25,146,c),
(71,147,l),
(0,20,l),
(-9,76,l),
(49,26,o),
(127,-10,o),
(222,-10,cs)
);
}
);
width = 440;
},
{
associatedMasterId = m002;
background = {
shapes = (
{
pos = (433,0);
ref = a;
scale = (-1,1);
}
);
};
layerId = "EDF57D63-48D0-4D55-ADAE-14A39772F4A7";
name = "28 Apr 23 10.44";
shapes = (
{
closed = 1;
nodes = (
(345,-10,o),
(401,65,o),
(401,148,cs),
(401,341,o),
(114,298,o),
(117,411,cs),
(118,453,o),
(153,481,o),
(218,481,cs),
(271,481,o),
(329,458,o),
(364,416,c),
(332,403,l),
(401,538,l),
(397,487,l),
(361,523,o),
(305,555,o),
(221,555,cs),
(112,555,o),
(36,493,o),
(36,402,cs),
(36,220,o),
(316,273,o),
(316,145,cs),
(316,102,o),
(285,64,o),
(213,64,cs),
(130,64,o),
(55,108,o),
(9,150,c),
(83,149,l),
(12,22,l),
(-25,75,l),
(33,26,o),
(121,-10,o),
(208,-10,cs)
);
}
);
width = 421;
},
{
associatedMasterId = m002;
background = {
shapes = (
{
pos = (-85,0);
ref = c;
}
);
};
layerId = "DA947C34-91B5-4077-BE80-5A6CF60FC80D";
name = "28 Apr 23 11.24";
shapes = (
{
closed = 1;
nodes = (
(322,-10,o),
(401,45,o),
(401,150,cs),
(401,357,o),
(115,274,o),
(117,400,cs),
(118,444,o),
(154,479,o),
(224,479,cs),
(285,479,o),
(333,452,o),
(364,416,c),
(327,403,l),
(398,538,l),
(397,487,l),
(360,527,o),
(300,555,o),
(225,555,cs),
(113,555,o),
(38,491,o),
(38,398,cs),
(38,190,o),
(318,291,o),
(318,148,cs),
(318,94,o),
(276,67,o),
(212,67,cs),
(158,67,o),
(96,85,o),
(36,130,c),
(72,129,l),
(12,22,l),
(-4,59,l),
(65,10,o),
(137,-10,o),
(220,-10,cs)
);
}
);
width = 421;
}
);
subCategory = "";
unicode = 738;
userData = {
RMXScaler = {
source = s;
};
};
}
{
glyphname = xsuperior;
layers = (
{
background = {
shapes = (
{
ref = v;
}
);
};
layerId = m002;
shapes = (
{
closed = 1;
nodes = (
(71,357,l),
(171,510,l),
(187,525,l),
(306,700,l),
(245,700,l),
(155,559,l),
(140,544,l),
(7,357,l)
);
},
{
closed = 1;
nodes = (
(320,357,l),
(186,545,l),
(153,511,l),
(256,357,l)
);
},
{
closed = 1;
nodes = (
(173,559,l),
(80,700,l),
(17,700,l),
(139,526,l)
);
}
);
userData = {
RMXScaler = {
height = 63;
verticalShift = 357;
weight = -27;
width = 62;
};
};
width = 328;
}
);
subCategory = "";
unicode = 739;
userData = {
RMXScaler = {
source = x;
};
};
}
{
glyphname = acutecomb;
layers = (
{
anchors = (
{
name = _top;
pos = (146,545);
},
{
name = top;
pos = (146,783);
}
);
layerId = m002;
shapes = (
{
closed = 1;
nodes = (
(91,636,l),
(163,636,l),
(142,625,l),
(250,783,l),
(147,783,l),
(100,622,l)
);
}
);
width = 292;
}
);
unicode = 769;
}
{
glyphname = circumflexcomb;
layers = (
{
anchors = (
{
name = _top;
pos = (196,545);
},
{
name = top;
pos = (196,783);
}
);
layerId = m002;
shapes = (
{
closed = 1;
nodes = (
(44,636,l),
(160,636,l),
(132,625,l),
(208,728,l),
(180,728,l),
(260,625,l),
(242,636,l),
(339,636,l),
(334,623,l),
(226,783,l),
(164,783,l),
(48,610,l)
);
}
);
width = 390;
}
);
metricRight = "=|";
unicode = 770;
}
{
glyphname = dotaccentcomb;
layers = (
{
anchors = (
{
name = _top;
pos = (133,545);
},
{
name = top;
pos = (133,750);
}
);
layerId = m002;
shapes = (
{
closed = 1;
nodes = (
(180,662,l),
(180,750,l),
(85,750,l),
(85,662,l)
);
}
);
width = 265;
}
);
unicode = 775;
}
{
glyphname = dieresiscomb;
layers = (
{
anchors = (
{
name = _top;
pos = (221,545);
},
{
name = top;
pos = (221,750);
}
);
layerId = m002;
shapes = (
{
closed = 1;
nodes = (
(175,662,l),
(175,750,l),
(85,750,l),
(85,662,l)
);
},
{
closed = 1;
nodes = (
(357,662,l),
(357,750,l),
(267,750,l),
(267,662,l)
);
}
);
width = 442;
}
);
metricLeft = dotaccentcomb;
metricRight = "=|";
unicode = 776;
}
{
glyphname = commaturnedabovecomb;
layers = (
{
anchors = (
{
name = _top;
pos = (134,520);
},
{
name = top;
pos = (134,780);
}
);
layerId = m002;
shapes = (
{
closed = 1;
nodes = (
(159,636,l),
(193,817,l),
(215,774,l),
(79,774,l),
(135,811,l),
(85,636,l)
);
}
);
width = 270;
}
);
metricLeft = dotaccentcomb;
metricRight = "=|";
unicode = 786;
}
{
glyphname = "akaraTedung-bali";
layers = (
{
anchors = (
{
name = bottom;
pos = (1182,0);
},
{
name = cecek;
pos = (725,127);
},
{
name = top;
pos = (727,650);
}
);
layerId = m002;
name = Regular;
shapes = (
{
closed = 1;
nodes = (
(927,-10,o),
(929,176,o),
(936,268,cs),
(940,320,o),
(956,480,o),
(1113,480,cs),
(1231,480,o),
(1290,390,o),
(1290,273,cs),
(1290,155,o),
(1230,52,o),
(1107,52,cs),
(1062,52,o),
(1020,66,o),
(978,102,c),
(1003,103,l),
(948,21,l),
(944,63,l),
(985,14,o),
(1043,-10,o),
(1114,-10,cs),
(1287,-10,o),
(1365,130,o),
(1365,273,cs),
(1365,421,o),
(1281,555,o),
(1113,555,cs),
(889,555,o),
(870,315,o),
(867,281,cs),
(858,163,o),
(850,53,o),
(720,53,cs),
(660,53,o),
(618,76,o),
(574,105,c),
(590,105,l),
(548,44,l),
(534,63,l),
(585,15,o),
(649,-10,o),
(724,-10,cs)
);
},
{
alignment = -1;
pos = (25,0);
ref = _akara;
},
{
pos = (15,0);
ref = _cecek_bangkiang;
}
);
width = 1423;
},
{
anchors = (
{
name = bottom;
pos = (1172,0);
},
{
name = top;
pos = (650,650);
}
);
associatedMasterId = m002;
layerId = m003;
name = Bold;
shapes = (
{
alignment = -1;
pos = (15,0);
ref = _akara;
},
{
alignment = -1;
pos = (15,0);
ref = _akara_bangkiang;
},
{
pos = (15,0);
ref = _cecek_bangkiang;
},
{
pos = (-161,0);
ref = _nya_ekor;
}
);
width = 1377;
},
{
anchors = (
{
name = bottom;
pos = (1182,0);
},
{
name = cecek;
pos = (725,127);
},
{
name = top;
pos = (660,650);
}
);
associatedMasterId = m002;
layerId = "A0897EF0-29C4-4895-BBAB-C89512B1A324";
name = "24 Aug 23 14.29";
shapes = (
{
alignment = -1;
pos = (25,0);
ref = _akara;
},
{
pos = (15,0);
ref = _cecek_bangkiang;
},
{
closed = 1;
nodes = (
(914,399,o),
(982,480,o),
(1095,480,cs),
(1224,480,o),
(1286,376,o),
(1286,254,cs),
(1286,139,o),
(1231,52,o),
(1110,52,cs),
(1061,52,o),
(1020,66,o),
(978,102,c),
(1003,103,l),
(948,21,l),
(944,63,l),
(986,13,o),
(1043,-10,o),
(1117,-10,cs),
(1276,-10,o),
(1362,98,o),
(1362,256,cs),
(1362,422,o),
(1268,555,o),
(1099,555,cs),
(940,555,o),
(846,436,o),
(846,291,cs),
(846,232,ls),
(846,106,o),
(798,54,o),
(714,53,cs),
(665,52,o),
(620,75,o),
(574,105,c),
(590,105,l),
(548,44,l),
(534,63,l),
(581,18,o),
(649,-10,o),
(717,-10,cs),
(826,-10,o),
(914,63,o),
(914,218,cs),
(914,291,ls)
);
}
);
width = 1420;
}
);
metricLeft = "akara-bali";
metricRight = "nya-bali";
unicode = 6918;
}
{
glyphname = "aikara-bali";
layers = (
{
anchors = (
{
name = bottom;
pos = (1134,-368);
},
{
name = top;
pos = (649,650);
}
);
background = {
shapes = (
{
closed = 1;
nodes = (
(658,-383,o),
(658,-278,o),
(712,-278,cs),
(767,-278,o),
(780,-383,o),
(886,-383,cs),
(951,-383,o),
(1004,-344,o),
(1004,-222,cs),
(1004,615,ls),
(1004,740,o),
(968,790,o),
(896,790,cs),
(821,790,o),
(783,727,o),
(786,663,cs),
(790,573,o),
(882,516,o),
(966,516,cs),
(1049,516,o),
(1110,562,o),
(1145,633,c),
(1112,664,l),
(1082,609,o),
(1032,581,o),
(974,581,cs),
(920,581,o),
(844,616,o),
(844,676,cs),
(844,707,o),
(865,727,o),
(896,727,cs),
(927,727,o),
(951,706,o),
(951,635,cs),
(951,-224,ls),
(951,-300,o),
(922,-319,o),
(874,-319,cs),
(801,-320,o),
(777,-215,o),
(716,-215,cs),
(650,-215,o),
(637,-322,o),
(579,-319,cs),
(530,-317,o),
(498,-271,o),
(498,-196,cs),
(498,22,o),
(870,119,o),
(870,379,cs),
(870,484,o),
(818,555,o),
(723,555,cs),
(655,555,o),
(612,519,o),
(596,423,c),
(595,423,l),
(582,519,o),
(537,555,o),
(471,555,cs),
(383,555,o),
(321,484,o),
(321,349,cs),
(321,69,l),
(270,71,o),
(240,105,o),
(240,197,cs),
(240,412,ls),
(240,500,o),
(194,555,o),
(129,555,cs),
(53,555,o),
(17,481,o),
(22,398,c),
(77,398,l),
(77,459,o),
(103,483,o),
(131,483,cs),
(158,483,o),
(189,461,o),
(189,401,cs),
(189,195,ls),
(189,44,o),
(230,0,o),
(321,0,cs),
(376,0,l),
(376,350,ls),
(376,439,o),
(424,487,o),
(476,487,cs),
(529,487,o),
(560,437,o),
(573,333,c),
(619,333,l),
(631,429,o),
(668,487,o),
(729,487,cs),
(777,487,o),
(815,450,o),
(815,380,cs),
(815,176,o),
(435,65,o),
(435,-199,cs),
(435,-301,o),
(482,-383,o),
(567,-383,cs)
);
}
);
};
layerId = m002;
name = Regular;
shapes = (
{
closed = 1;
nodes = (
(522,-769,o),
(546,-570,o),
(688,-570,cs),
(829,-570,o),
(824,-769,o),
(995,-769,cs),
(1094,-769,o),
(1167,-703,o),
(1167,-553,cs),
(1167,559,l),
(1152,539,l),
(1214,550,o),
(1260,601,o),
(1288,662,c),
(1288,646,l),
(1226,683,l),
(1244,691,l),
(1224,652,o),
(1188,612,o),
(1158,606,c),
(1167,595,l),
(1167,650,ls),
(1167,765,o),
(1116,815,o),
(1044,815,cs),
(966,815,o),
(919,755,o),
(921,687,cs),
(924,590,o),
(1022,541,o),
(1106,541,c),
(1099,551,l),
(1099,-535,ls),
(1099,-652,o),
(1062,-698,o),
(1002,-698,cs),
(875,-698,o),
(864,-496,o),
(689,-496,cs),
(514,-496,o),
(486,-697,o),
(347,-697,cs),
(261,-697,o),
(206,-619,o),
(206,-519,cs),
(206,-132,o),
(1031,-185,o),
(1024,320,cs),
(1022,459,o),
(959,555,o),
(836,555,cs),
(755,555,o),
(698,513,o),
(667,451,c),
(661,451,l),
(634,522,o),
(577,555,o),
(503,555,cs),
(393,555,o),
(314,481,o),
(314,326,cs),
(314,222,o),
(349,135,o),
(418,46,c),
(443,60,l),
(390,62,ls),
(301,65,o),
(254,96,o),
(254,185,cs),
(254,259,o),
(286,373,o),
(286,436,cs),
(286,513,o),
(238,555,o),
(171,555,cs),
(95,555,o),
(49,501,o),
(49,431,cs),
(49,375,o),
(78,327,o),
(93,303,c),
(68,303,l),
(161,350,l),
(153,324,l),
(136,355,o),
(118,393,o),
(118,430,cs),
(118,464,o),
(133,485,o),
(163,485,cs),
(197,485,o),
(207,459,o),
(207,418,cs),
(207,344,o),
(174,247,o),
(174,174,cs),
(174,70,o),
(240,-10,o),
(397,-10,cs),
(461,-10,ls),
(491,-10,o),
(503,3,o),
(503,19,cs),
(503,29,o),
(498,40,o),
(484,57,cs),
(410,148,o),
(386,246,o),
(386,321,cs),
(386,423,o),
(431,479,o),
(505,479,cs),
(564,479,o),
(620,444,o),
(640,332,c),
(625,345,l),
(700,345,l),
(681,336,l),
(700,426,o),
(751,479,o),
(824,479,cs),
(896,479,o),
(942,426,o),
(944,321,cs),
(955,-139,o),
(129,-65,o),
(129,-521,cs),
(129,-684,o),
(234,-769,o),
(348,-769,cs)
);
},
{
closed = 1;
nodes = (
(1107,603,l),
(1036,607,o),
(987,642,o),
(987,693,cs),
(987,727,o),
(1008,748,o),
(1038,748,cs),
(1073,748,o),
(1099,718,o),
(1099,640,cs),
(1099,593,l)
);
}
);
width = 1228;
},
{
anchors = (
{
name = bottom;
pos = (1122,-368);
},
{
name = top;
pos = (637,650);
}
);
associatedMasterId = m002;
background = {
shapes = (
{
closed = 1;
nodes = (
(646,-383,o),
(646,-278,o),
(700,-278,cs),
(755,-278,o),
(768,-383,o),
(874,-383,cs),
(939,-383,o),
(992,-344,o),
(992,-222,cs),
(992,615,ls),
(992,740,o),
(956,790,o),
(884,790,cs),
(809,790,o),
(771,727,o),
(774,663,cs),
(778,573,o),
(870,516,o),
(954,516,cs),
(1037,516,o),
(1098,562,o),
(1133,633,c),
(1100,664,l),
(1070,609,o),
(1020,581,o),
(962,581,cs),
(908,581,o),
(832,616,o),
(832,676,cs),
(832,707,o),
(853,727,o),
(884,727,cs),
(915,727,o),
(939,706,o),
(939,635,cs),
(939,-224,ls),
(939,-300,o),
(910,-319,o),
(862,-319,cs),
(789,-320,o),
(765,-215,o),
(704,-215,cs),
(638,-215,o),
(625,-322,o),
(567,-319,cs),
(518,-317,o),
(486,-271,o),
(486,-196,cs),
(486,22,o),
(858,119,o),
(858,379,cs),
(858,484,o),
(806,555,o),
(711,555,cs),
(643,555,o),
(600,519,o),
(584,423,c),
(583,423,l),
(570,519,o),
(525,555,o),
(459,555,cs),
(371,555,o),
(309,484,o),
(309,349,cs),
(309,69,l),
(258,71,o),
(228,105,o),
(228,197,cs),
(228,412,ls),
(228,500,o),
(182,555,o),
(117,555,cs),
(41,555,o),
(5,481,o),
(10,398,c),
(65,398,l),
(65,459,o),
(91,483,o),
(119,483,cs),
(146,483,o),
(177,461,o),
(177,401,cs),
(177,195,ls),
(177,44,o),
(218,0,o),
(309,0,cs),
(364,0,l),
(364,350,ls),
(364,439,o),
(412,487,o),
(464,487,cs),
(517,487,o),
(548,437,o),
(561,333,c),
(607,333,l),
(619,429,o),
(656,487,o),
(717,487,cs),
(765,487,o),
(803,450,o),
(803,380,cs),
(803,176,o),
(423,65,o),
(423,-199,cs),
(423,-301,o),
(470,-383,o),
(555,-383,cs)
);
}
);
};
layerId = m003;
name = Bold;
shapes = (
{
alignment = -1;
pos = (33,0);
ref = _nga_tenas;
},
{
alignment = -1;
pos = (10,0);
ref = _okara_tenas;
},
{
alignment = -1;
pos = (10,0);
ref = _iluk_duwur;
},
{
pos = (10,0);
ref = _aikara_ikuh;
}
);
width = 1216;
},
{
anchors = (
{
name = bottom;
pos = (1134,-368);
},
{
name = top;
pos = (649,650);
}
);
associatedMasterId = m002;
background = {
shapes = (
{
closed = 1;
nodes = (
(658,-383,o),
(658,-278,o),
(712,-278,cs),
(767,-278,o),
(780,-383,o),
(886,-383,cs),
(951,-383,o),
(1004,-344,o),
(1004,-222,cs),
(1004,615,ls),
(1004,740,o),
(968,790,o),
(896,790,cs),
(821,790,o),
(783,727,o),
(786,663,cs),
(790,573,o),
(882,516,o),
(966,516,cs),
(1049,516,o),
(1110,562,o),
(1145,633,c),
(1112,664,l),
(1082,609,o),
(1032,581,o),
(974,581,cs),
(920,581,o),
(844,616,o),
(844,676,cs),
(844,707,o),
(865,727,o),
(896,727,cs),
(927,727,o),
(951,706,o),
(951,635,cs),
(951,-224,ls),
(951,-300,o),
(922,-319,o),
(874,-319,cs),
(801,-320,o),
(777,-215,o),
(716,-215,cs),
(650,-215,o),
(637,-322,o),
(579,-319,cs),
(530,-317,o),
(498,-271,o),
(498,-196,cs),
(498,22,o),
(870,119,o),
(870,379,cs),
(870,484,o),
(818,555,o),
(723,555,cs),
(655,555,o),
(612,519,o),
(596,423,c),
(595,423,l),
(582,519,o),
(537,555,o),
(471,555,cs),
(383,555,o),
(321,484,o),
(321,349,cs),
(321,69,l),
(270,71,o),
(240,105,o),
(240,197,cs),
(240,412,ls),
(240,500,o),
(194,555,o),
(129,555,cs),
(53,555,o),
(17,481,o),
(22,398,c),
(77,398,l),
(77,459,o),
(103,483,o),
(131,483,cs),
(158,483,o),
(189,461,o),
(189,401,cs),
(189,195,ls),
(189,44,o),
(230,0,o),
(321,0,cs),
(376,0,l),
(376,350,ls),
(376,439,o),
(424,487,o),
(476,487,cs),
(529,487,o),
(560,437,o),
(573,333,c),
(619,333,l),
(631,429,o),
(668,487,o),
(729,487,cs),
(777,487,o),
(815,450,o),
(815,380,cs),
(815,176,o),
(435,65,o),
(435,-199,cs),
(435,-301,o),
(482,-383,o),
(567,-383,cs)
);
}
);
};
layerId = "2D6DB8B6-A1AB-48F4-BF98-DF5F630E5BA2";
name = "24 Aug 23 14.40";
shapes = (
{
closed = 1;
nodes = (
(524,-769,o),
(545,-570,o),
(687,-570,cs),
(829,-570,o),
(824,-769,o),
(995,-769,cs),
(1094,-769,o),
(1167,-703,o),
(1167,-553,cs),
(1167,559,l),
(1152,539,l),
(1214,550,o),
(1260,601,o),
(1288,662,c),
(1288,646,l),
(1226,683,l),
(1244,691,l),
(1224,652,o),
(1188,612,o),
(1158,606,c),
(1167,595,l),
(1167,650,ls),
(1167,765,o),
(1116,815,o),
(1044,815,cs),
(966,815,o),
(919,755,o),
(921,687,cs),
(924,590,o),
(1022,541,o),
(1106,541,c),
(1099,551,l),
(1099,-535,ls),
(1099,-652,o),
(1062,-698,o),
(1002,-698,cs),
(875,-698,o),
(864,-496,o),
(689,-496,cs),
(514,-496,o),
(486,-697,o),
(347,-697,cs),
(262,-697,o),
(206,-621,o),
(206,-526,cs),
(206,-504,ls),
(206,-130,o),
(1030,-187,o),
(1024,320,cs),
(1022,459,o),
(959,555,o),
(836,555,cs),
(755,555,o),
(698,513,o),
(667,451,c),
(661,451,l),
(634,522,o),
(577,555,o),
(503,555,cs),
(393,555,o),
(314,482,o),
(314,322,cs),
(314,222,o),
(351,132,o),
(418,46,c),
(443,60,l),
(390,62,ls),
(301,65,o),
(254,96,o),
(254,185,cs),
(254,259,o),
(286,373,o),
(286,436,cs),
(286,513,o),
(238,555,o),
(171,555,cs),
(95,555,o),
(49,501,o),
(49,431,cs),
(49,375,o),
(78,327,o),
(93,303,c),
(68,303,l),
(161,350,l),
(153,324,l),
(136,355,o),
(118,393,o),
(118,430,cs),
(118,464,o),
(133,485,o),
(163,485,cs),
(197,485,o),
(207,459,o),
(207,418,cs),
(207,344,o),
(174,247,o),
(174,174,cs),
(174,70,o),
(240,-10,o),
(397,-10,cs),
(461,-10,ls),
(491,-10,o),
(503,3,o),
(503,19,cs),
(503,29,o),
(498,40,o),
(484,57,cs),
(411,147,o),
(386,246,o),
(386,316,cs),
(386,425,o),
(431,479,o),
(504,479,cs),
(564,479,o),
(620,444,o),
(640,332,c),
(625,345,l),
(700,345,l),
(681,336,l),
(700,426,o),
(751,479,o),
(824,479,cs),
(896,479,o),
(942,426,o),
(944,321,cs),
(954,-128,o),
(129,-67,o),
(129,-502,cs),
(129,-534,ls),
(129,-670,o),
(221,-769,o),
(346,-769,cs)
);
},
{
closed = 1;
nodes = (
(1107,603,l),
(1036,607,o),
(987,642,o),
(987,693,cs),
(987,727,o),
(1008,748,o),
(1038,748,cs),
(1073,748,o),
(1099,718,o),
(1099,640,cs),
(1099,593,l)
);
}
);
width = 1228;
}
);
metricLeft = "ha-bali";
unicode = 6928;
}
{
glyphname = "ca-bali";
kernLeft = "ka-bali";
layers = (
{
anchors = (
{
name = bottom;
pos = (849,0);
},
{
name = top;
pos = (494,650);
}
);
background = {
shapes = (
{
pos = (-29,0);
ref = "na-bali";
},
{
closed = 1;
nodes = (
(618,-10,o),
(691,139,o),
(690,262,c),
(616,262,l),
(617,178,o),
(575,63,o),
(492,63,cs),
(407,63,o),
(397,192,o),
(295,243,c),
(280,247,l),
(267,179,l),
(346,130,o),
(359,-10,o),
(487,-10,cs)
);
}
);
};
layerId = m002;
name = Regular;
shapes = (
{
closed = 1;
nodes = (
(239,-10,o),
(275,74,o),
(292,190,c),
(278,183,l),
(345,156,o),
(370,-10,o),
(514,-10,cs),
(609,-10,o),
(695,61,o),
(695,210,cs),
(695,377,o),
(587,446,o),
(468,445,c),
(465,431,l),
(508,469,o),
(557,487,o),
(609,487,cs),
(709,487,o),
(773,420,o),
(773,281,cs),
(773,0,l),
(849,0,l),
(849,289,ls),
(849,464,o),
(755,555,o),
(623,555,cs),
(533,555,o),
(447,512,o),
(383,437,c),
(394,470,l),
(426,381,l),
(408,395,l),
(501,396,o),
(625,373,o),
(625,213,cs),
(625,114,o),
(578,59,o),
(515,59,cs),
(409,59,o),
(396,215,o),
(295,249,c),
(296,243,l),
(297,277,ls),
(302,452,o),
(227,555,o),
(135,555,cs),
(73,555,o),
(22,509,o),
(22,435,cs),
(22,391,o),
(40,344,o),
(73,298,c),
(47,304,l),
(133,349,l),
(124,335,l),
(108,365,o),
(92,398,o),
(92,429,cs),
(92,464,o),
(109,485,o),
(137,485,cs),
(185,485,o),
(235,420,o),
(231,253,c),
(238,258,l),
(139,256,o),
(66,177,o),
(66,89,cs),
(66,32,o),
(97,-10,o),
(156,-10,cs)
);
},
{
closed = 1;
nodes = (
(146,53,o),
(130,66,o),
(130,97,cs),
(130,149,o),
(177,191,o),
(227,191,cs),
(238,191,l),
(226,213,l),
(229,139,o),
(196,53,o),
(160,53,cs)
);
}
);
width = 929;
},
{
associatedMasterId = m002;
background = {
shapes = (
{
ref = "na-bali";
}
);
};
layerId = "9CA60967-E49B-43B6-800B-F44C17925C18";
name = "4 May 23 12.09";
shapes = (
{
alignment = -1;
pos = (23,0);
ref = _na_tenas;
},
{
alignment = -1;
pos = (107,0);
ref = _wa_ca_gelungan;
},
{
pos = (23,0);
ref = _ca_awak;
},
{
closed = 1;
nodes = (
(617,-10,o),
(711,83,o),
(711,232,c),
(637,232,l),
(637,138,o),
(583,63,o),
(525,63,cs),
(437,63,o),
(426,192,o),
(324,243,c),
(309,247,l),
(296,179,l),
(375,130,o),
(397,-10,o),
(515,-10,cs)
);
}
);
width = 955;
},
{
associatedMasterId = m002;
background = {
shapes = (
{
ref = "na-bali";
}
);
};
layerId = "063E3D61-5F59-402D-99B0-4DF4DCDBECB0";
name = "4 May 23 14.05";
shapes = (
{
alignment = -1;
pos = (23,0);
ref = _na_tenas;
},
{
alignment = -1;
pos = (107,0);
ref = _wa_ca_gelungan;
},
{
pos = (23,0);
ref = _ca_awak;
},
{
closed = 1;
nodes = (
(641,-10,o),
(711,89,o),
(711,232,c),
(637,232,l),
(637,128,o),
(595,63,o),
(538,63,cs),
(453,63,o),
(426,192,o),
(324,243,c),
(309,247,l),
(296,179,l),
(375,130,o),
(408,-10,o),
(536,-10,cs)
);
}
);
width = 955;
},
{
associatedMasterId = m002;
background = {
shapes = (
{
ref = "na-bali";
}
);
};
layerId = "B27BB196-5D94-4152-B8EB-660CFF954345";
name = Regular;
shapes = (
{
alignment = -1;
pos = (23,0);
ref = _na_tenas;
},
{
alignment = -1;
pos = (107,0);
ref = _wa_ca_gelungan;
},
{
pos = (23,0);
ref = _ca_awak;
},
{
closed = 1;
nodes = (
(617,-10,o),
(711,83,o),
(711,232,c),
(637,232,l),
(637,138,o),
(583,63,o),
(525,63,cs),
(437,63,o),
(426,192,o),
(324,243,c),
(309,247,l),
(296,179,l),
(375,130,o),
(397,-10,o),
(515,-10,cs)
);
}
);
width = 955;
},
{
associatedMasterId = m002;
background = {
shapes = (
{
ref = "na-bali";
}
);
};
layerId = "3EFEBB4A-7BF8-4ED4-A76B-DB7CE0059B8A";
name = Regular;
shapes = (
{
alignment = -1;
pos = (23,0);
ref = _na_tenas;
},
{
alignment = -1;
pos = (107,0);
ref = _wa_ca_gelungan;
},
{
pos = (23,0);
ref = _ca_awak;
},
{
closed = 1;
nodes = (
(641,-10,o),
(711,89,o),
(711,232,c),
(637,232,l),
(637,128,o),
(595,63,o),
(538,63,cs),
(453,63,o),
(426,192,o),
(324,243,c),
(309,247,l),
(296,179,l),
(375,130,o),
(408,-10,o),
(536,-10,cs)
);
}
);
width = 955;
},
{
anchors = (
{
name = bottom;
pos = (847,0);
},
{
name = top;
pos = (393,650);
}
);
associatedMasterId = m002;
background = {
shapes = (
{
pos = (-31,0);
ref = "na-bali";
},
{
closed = 1;
nodes = (
(616,-10,o),
(689,139,o),
(688,262,c),
(614,262,l),
(615,178,o),
(573,63,o),
(490,63,cs),
(405,63,o),
(395,192,o),
(293,243,c),
(278,247,l),
(265,179,l),
(344,130,o),
(357,-10,o),
(485,-10,cs)
);
}
);
};
layerId = m003;
name = Bold;
shapes = (
{
closed = 1;
nodes = (
(610,-10,o),
(700,66,o),
(700,227,c),
(630,226,l),
(630,106,o),
(572,59,o),
(520,59,cs),
(430,59,o),
(393,214,o),
(293,249,c),
(278,253,l),
(265,186,l),
(341,174,o),
(377,-10,o),
(519,-10,cs)
);
},
{
pos = (-8,0);
ref = _ca_awak;
},
{
alignment = -1;
pos = (-8,0);
ref = _na_tenas;
},
{
alignment = -1;
pos = (76,0);
ref = _wa_ca_gelungan;
}
);
width = 907;
},
{
associatedMasterId = m002;
background = {
shapes = (
{
ref = "na-bali";
}
);
};
layerId = "2DC4011D-04EF-4F3F-9008-5CCA48DD97A3";
name = Bold;
shapes = (
{
alignment = -1;
pos = (23,0);
ref = _na_tenas;
},
{
alignment = -1;
pos = (107,0);
ref = _wa_ca_gelungan;
},
{
pos = (23,0);
ref = _ca_awak;
},
{
closed = 1;
nodes = (
(617,-10,o),
(711,83,o),
(711,232,c),
(637,232,l),
(637,138,o),
(583,63,o),
(525,63,cs),
(437,63,o),
(426,192,o),
(324,243,c),
(309,247,l),
(296,179,l),
(375,130,o),
(397,-10,o),
(515,-10,cs)
);
}
);
width = 955;
},
{
associatedMasterId = m002;
background = {
shapes = (
{
ref = "na-bali";
}
);
};
layerId = "AF8D72C9-22D5-43B6-922B-2F31810104CE";
name = Bold;
shapes = (
{
alignment = -1;
pos = (23,0);
ref = _na_tenas;
},
{
alignment = -1;
pos = (107,0);
ref = _wa_ca_gelungan;
},
{
pos = (23,0);
ref = _ca_awak;
},
{
closed = 1;
nodes = (
(641,-10,o),
(711,89,o),
(711,232,c),
(637,232,l),
(637,128,o),
(595,63,o),
(538,63,cs),
(453,63,o),
(426,192,o),
(324,243,c),
(309,247,l),
(296,179,l),
(375,130,o),
(408,-10,o),
(536,-10,cs)
);
}
);
width = 955;
},
{
anchors = (
{
name = bottom;
pos = (849,0);
},
{
name = top;
pos = (395,650);
}
);
associatedMasterId = m002;
background = {
shapes = (
{
pos = (-29,0);
ref = "na-bali";
},
{
closed = 1;
nodes = (
(618,-10,o),
(691,139,o),
(690,262,c),
(616,262,l),
(617,178,o),
(575,63,o),
(492,63,cs),
(407,63,o),
(397,192,o),
(295,243,c),
(280,247,l),
(267,179,l),
(346,130,o),
(359,-10,o),
(487,-10,cs)
);
}
);
};
layerId = "5E721D5E-15CE-4326-9436-5EC6C283E4B2";
name = "19 Aug 23 16.49";
shapes = (
{
closed = 1;
nodes = (
(612,-10,o),
(702,66,o),
(702,227,c),
(632,226,l),
(632,106,o),
(574,59,o),
(523,59,cs),
(431,59,o),
(396,214,o),
(295,249,c),
(280,253,l),
(267,186,l),
(343,174,o),
(379,-10,o),
(521,-10,cs)
);
},
{
pos = (-6,0);
ref = _ca_awak;
},
{
alignment = -1;
pos = (-8,0);
ref = _na_tenas;
},
{
alignment = -1;
pos = (78,0);
ref = _wa_ca_gelungan;
}
);
width = 929;
},
{
anchors = (
{
name = bottom;
pos = (849,0);
},
{
name = top;
pos = (395,650);
}
);
associatedMasterId = m002;
background = {
shapes = (
{
pos = (-29,0);
ref = "na-bali";
},
{
closed = 1;
nodes = (
(618,-10,o),
(691,139,o),
(690,262,c),
(616,262,l),
(617,178,o),
(575,63,o),
(492,63,cs),
(407,63,o),
(397,192,o),
(295,243,c),
(280,247,l),
(267,179,l),
(346,130,o),
(359,-10,o),
(487,-10,cs)
);
}
);
};
layerId = "270F11C2-D76C-4F91-BF0B-9BC4D1AF0732";
name = "19 Aug 23 16.59";
shapes = (
{
closed = 1;
nodes = (
(642,-10,o),
(692,46,o),
(692,146,c),
(622,145,l),
(622,95,o),
(604,59,o),
(553,59,cs),
(461,59,o),
(396,214,o),
(295,249,c),
(280,253,l),
(267,186,l),
(343,174,o),
(409,-10,o),
(551,-10,cs)
);
},
{
pos = (-6,0);
ref = _ca_awak;
},
{
alignment = -1;
pos = (-8,0);
ref = _na_tenas;
},
{
closed = 1;
nodes = (
(849,0,l),
(849,223,ls),
(849,468,o),
(695,554,o),
(558,554,cs),
(472,554,o),
(395,521,o),
(343,425,c),
(335,444,l),
(381,364,l),
(361,364,l),
(470,395,o),
(622,332,o),
(622,145,c),
(628,135,l),
(682,136,l),
(692,146,l),
(692,346,o),
(549,451,o),
(378,420,c),
(392,403,l),
(434,472,o),
(483,488,o),
(542,488,cs),
(646,488,o),
(773,426,o),
(773,211,cs),
(773,0,l)
);
}
);
width = 929;
},
{
anchors = (
{
name = bottom;
pos = (849,0);
},
{
name = top;
pos = (395,650);
}
);
associatedMasterId = m002;
background = {
shapes = (
{
pos = (-29,0);
ref = "na-bali";
},
{
closed = 1;
nodes = (
(618,-10,o),
(691,139,o),
(690,262,c),
(616,262,l),
(617,178,o),
(575,63,o),
(492,63,cs),
(407,63,o),
(397,192,o),
(295,243,c),
(280,247,l),
(267,179,l),
(346,130,o),
(359,-10,o),
(487,-10,cs)
);
}
);
};
layerId = "190A43B9-419D-4B1E-AAA4-10E7D2853D07";
name = "19 Aug 23 17.11";
shapes = (
{
closed = 1;
nodes = (
(608,-10,o),
(695,64,o),
(695,210,c),
(625,209,l),
(625,114,o),
(576,59,o),
(511,59,cs),
(407,59,o),
(395,214,o),
(295,249,c),
(280,253,l),
(267,186,l),
(343,174,o),
(363,-10,o),
(509,-10,cs)
);
},
{
pos = (-6,0);
ref = _ca_awak;
},
{
alignment = -1;
pos = (-8,0);
ref = _na_tenas;
},
{
closed = 1;
nodes = (
(418,416,l),
(460,458,o),
(518,488,o),
(581,488,cs),
(676,488,o),
(773,426,o),
(773,211,cs),
(773,0,l),
(849,0,l),
(849,223,ls),
(849,468,o),
(724,554,o),
(596,555,cs),
(473,556,o),
(368,472,o),
(323,375,c),
(338,451,l),
(396,362,l),
(341,355,l),
(430,400,o),
(625,415,o),
(625,209,c),
(631,199,l),
(685,200,l),
(695,210,l),
(695,428,o),
(498,473,o),
(397,420,c)
);
}
);
width = 929;
}
);
metricLeft = "na-bali";
metricRight = "ha-bali";
unicode = 6936;
}
{
glyphname = "ja-bali";
layers = (
{
anchors = (
{
name = bottom;
pos = (826,0);
},
{
name = top;
pos = (465,650);
}
);
background = {
shapes = (
{
closed = 1;
nodes = (
(438,0,l),
(438,320,ls),
(438,436,o),
(509,487,o),
(628,487,cs),
(705,487,o),
(782,463,o),
(782,389,cs),
(782,322,o),
(715,275,o),
(597,238,c),
(597,203,l),
(720,195,o),
(801,170,o),
(801,31,cs),
(801,0,l),
(862,0,l),
(862,41,ls),
(862,162,o),
(781,228,o),
(701,228,c),
(701,231,l),
(776,250,o),
(837,320,o),
(837,399,cs),
(837,498,o),
(742,555,o),
(625,555,cs),
(475,555,o),
(383,481,o),
(383,319,cs),
(383,0,l)
);
},
{
closed = 1;
nodes = (
(438,0,l),
(438,69,l),
(387,69,ls),
(334,69,o),
(302,103,o),
(302,197,cs),
(302,412,ls),
(302,500,o),
(256,555,o),
(191,555,cs),
(115,555,o),
(79,481,o),
(84,398,c),
(139,398,l),
(139,459,o),
(165,483,o),
(193,483,cs),
(220,483,o),
(251,461,o),
(251,401,cs),
(251,195,ls),
(251,41,o),
(294,0,o),
(388,0,cs)
);
}
);
};
layerId = m002;
name = Regular;
shapes = (
{
closed = 1;
nodes = (
(435,-10,ls),
(456,-10,o),
(468,1,o),
(468,15,cs),
(468,24,o),
(463,31,o),
(454,48,cs),
(413,122,o),
(391,200,o),
(391,273,cs),
(391,394,o),
(451,479,o),
(604,479,cs),
(695,479,o),
(746,449,o),
(746,388,cs),
(746,327,o),
(695,294,o),
(590,297,c),
(608,312,l),
(601,218,l),
(584,233,l),
(706,225,o),
(746,187,o),
(748,95,cs),
(750,0,l),
(826,0,l),
(826,83,ls),
(826,189,o),
(793,245,o),
(724,269,c),
(724,273,l),
(777,292,o),
(825,330,o),
(825,402,cs),
(825,502,o),
(733,555,o),
(602,555,cs),
(406,555,o),
(316,436,o),
(316,284,cs),
(316,208,o),
(338,124,o),
(380,43,c),
(390,62,l),
(303,64,o),
(252,96,o),
(252,186,cs),
(252,260,o),
(286,372,o),
(286,436,cs),
(286,513,o),
(238,555,o),
(171,555,cs),
(95,555,o),
(49,501,o),
(49,431,cs),
(49,375,o),
(78,327,o),
(93,303,c),
(68,303,l),
(161,350,l),
(153,324,l),
(136,355,o),
(118,393,o),
(118,430,cs),
(118,464,o),
(133,485,o),
(163,485,cs),
(197,485,o),
(207,459,o),
(207,418,cs),
(207,344,o),
(174,247,o),
(174,174,cs),
(174,70,o),
(240,-10,o),
(397,-10,cs)
);
}
);
width = 906;
},
{
anchors = (
{
name = bottom;
pos = (814,0);
},
{
name = top;
pos = (444,650);
}
);
associatedMasterId = m002;
background = {
shapes = (
{
closed = 1;
nodes = (
(426,0,l),
(426,320,ls),
(426,436,o),
(497,487,o),
(616,487,cs),
(693,487,o),
(770,463,o),
(770,389,cs),
(770,322,o),
(703,275,o),
(585,238,c),
(585,203,l),
(708,195,o),
(789,170,o),
(789,31,cs),
(789,0,l),
(850,0,l),
(850,41,ls),
(850,162,o),
(769,228,o),
(689,228,c),
(689,231,l),
(764,250,o),
(825,320,o),
(825,399,cs),
(825,498,o),
(730,555,o),
(613,555,cs),
(463,555,o),
(371,481,o),
(371,319,cs),
(371,0,l)
);
},
{
closed = 1;
nodes = (
(426,0,l),
(426,69,l),
(375,69,ls),
(322,69,o),
(290,103,o),
(290,197,cs),
(290,412,ls),
(290,500,o),
(244,555,o),
(179,555,cs),
(103,555,o),
(67,481,o),
(72,398,c),
(127,398,l),
(127,459,o),
(153,483,o),
(181,483,cs),
(208,483,o),
(239,461,o),
(239,401,cs),
(239,195,ls),
(239,41,o),
(282,0,o),
(376,0,cs)
);
}
);
};
layerId = m003;
name = Bold;
shapes = (
{
closed = 1;
nodes = (
(423,-10,ls),
(444,-10,o),
(456,1,o),
(456,13,cs),
(456,23,o),
(452,30,o),
(442,48,cs),
(401,122,o),
(374,202,o),
(374,292,cs),
(374,395,o),
(425,479,o),
(580,479,cs),
(683,479,o),
(734,453,o),
(734,387,cs),
(734,328,o),
(683,298,o),
(578,291,c),
(589,306,l),
(589,228,l),
(572,243,l),
(694,225,o),
(734,187,o),
(736,95,cs),
(738,0,l),
(814,0,l),
(814,83,ls),
(814,189,o),
(781,245,o),
(712,269,c),
(712,273,l),
(765,292,o),
(813,330,o),
(813,403,cs),
(813,502,o),
(720,555,o),
(592,555,cs),
(408,555,o),
(301,449,o),
(301,296,cs),
(301,221,o),
(320,138,o),
(357,62,c),
(385,-10,l)
);
},
{
alignment = -1;
pos = (33,0);
ref = _nga_tenas;
}
);
width = 870;
}
);
metricLeft = "ha-bali";
unicode = 6938;
}
{
glyphname = "naRambat-bali";
layers = (
{
anchors = (
{
name = bottom;
pos = (1039,0);
},
{
name = ha_geluungan_ha;
pos = (811,291);
},
{
name = top;
pos = (486,650);
}
);
background = {
shapes = (
{
pos = (-275,0);
ref = "ba-bali";
}
);
};
layerId = m002;
name = Regular;
shapes = (
{
closed = 1;
nodes = (
(827,-10,o),
(880,26,o),
(880,124,cs),
(880,502,l),
(873,482,l),
(941,484,o),
(963,447,o),
(963,372,cs),
(963,0,l),
(1039,0,l),
(1039,376,ls),
(1039,498,o),
(994,550,o),
(871,550,cs),
(861,550,l),
(812,507,l),
(812,115,ls),
(812,75,o),
(796,58,o),
(773,58,cs),
(743,58,o),
(731,83,o),
(731,128,cs),
(731,420,ls),
(731,504,o),
(683,555,o),
(609,555,cs),
(510,555,o),
(478,457,o),
(424,457,cs),
(369,457,o),
(348,555,o),
(245,555,cs),
(166,555,o),
(128,498,o),
(128,436,cs),
(128,411,o),
(134,385,o),
(146,361,c),
(170,376,l),
(108,373,o),
(74,412,o),
(74,474,cs),
(74,498,o),
(80,528,o),
(92,564,c),
(102,538,l),
(10,551,l),
(28,564,l),
(13,527,o),
(8,494,o),
(8,467,cs),
(8,367,o),
(74,317,o),
(169,313,c),
(211,360,l),
(211,342,l),
(192,373,o),
(188,395,o),
(188,413,cs),
(188,465,o),
(220,484,o),
(249,484,cs),
(317,484,o),
(341,382,o),
(420,382,cs),
(497,382,o),
(532,479,o),
(600,479,cs),
(633,479,o),
(655,456,o),
(655,394,cs),
(655,132,ls),
(655,37,o),
(701,-10,o),
(768,-10,cs)
);
}
);
width = 1119;
},
{
anchors = (
{
name = bottom;
pos = (1147,0);
},
{
name = class0;
pos = (1187,0);
},
{
name = top;
pos = (498,650);
}
);
associatedMasterId = m002;
layerId = "D28D0B7C-F11B-4371-B6DF-378E287C497E";
name = "23 May 23 15.04";
shapes = (
{
closed = 1;
nodes = (
(185,260,o),
(220,292,o),
(232,352,cs),
(246,423,o),
(247,479,o),
(297,479,cs),
(304,479,ls),
(361,479,o),
(386,390,o),
(491,390,cs),
(579,390,o),
(623,479,o),
(687,479,cs),
(698,479,ls),
(733,479,o),
(753,458,o),
(753,394,cs),
(753,291,l),
(829,291,l),
(829,398,ls),
(829,505,o),
(784,555,o),
(708,555,cs),
(691,555,ls),
(583,555,o),
(554,465,o),
(491,465,cs),
(421,465,o),
(395,555,o),
(302,555,cs),
(210,555,o),
(180,476,o),
(171,409,cs),
(164,359,o),
(157,328,o),
(131,328,cs),
(91,328,o),
(81,375,o),
(94,474,c),
(108,440,l),
(28,447,l),
(48,467,l),
(5,349,o),
(46,260,o),
(129,260,cs)
);
},
{
alignment = -1;
pos = (-37,0);
ref = _ha_bangkiang;
},
{
alignment = -1;
pos = (-7,0);
ref = _ha_geluungan_ha;
}
);
width = 1187;
},
{
anchors = (
{
name = bottom;
pos = (1137,0);
},
{
name = top;
pos = (488,650);
}
);
associatedMasterId = m002;
layerId = "8CD4655E-DC15-4A75-9A43-7F576DF9D78C";
name = "31 May 23 12.11";
shapes = (
{
closed = 1;
nodes = (
(185,260,o),
(235,296,o),
(235,388,cs),
(235,439,o),
(243,479,o),
(296,479,cs),
(373,479,o),
(369,381,o),
(483,381,cs),
(591,381,o),
(599,479,o),
(683,479,cs),
(689,479,ls),
(734,479,o),
(753,448,o),
(753,394,cs),
(753,291,l),
(829,291,l),
(829,407,ls),
(829,505,o),
(774,555,o),
(698,555,cs),
(684,555,ls),
(570,555,o),
(548,455,o),
(483,455,cs),
(411,455,o),
(405,555,o),
(292,555,cs),
(225,555,o),
(170,507,o),
(170,430,cs),
(170,352,o),
(157,328,o),
(131,328,cs),
(91,328,o),
(81,375,o),
(116,504,c),
(130,469,l),
(50,486,l),
(66,497,l),
(1,349,o),
(46,260,o),
(129,260,cs)
);
},
{
alignment = -1;
pos = (-37,0);
ref = _ha_bangkiang;
},
{
alignment = -1;
pos = (-7,0);
ref = _ha_geluungan_ha;
}
);
width = 1197;
},
{
anchors = (
{
name = bottom;
pos = (1039,0);
},
{
name = top;
pos = (443,650);
}
);
associatedMasterId = m002;
background = {
shapes = (
{
pos = (-275,0);
ref = "ba-bali";
}
);
};
layerId = "43DFD816-BAD2-4A08-8AC3-A2AAEE3D63CC";
name = "31 May 23 14.14";
shapes = (
{
alignment = -1;
pos = (-135,0);
ref = _ha_bangkiang;
},
{
alignment = -1;
pos = (-105,0);
ref = _ha_geluungan_ha;
},
{
closed = 1;
nodes = (
(163,376,l),
(110,383,o),
(78,412,o),
(78,474,cs),
(78,498,o),
(83,528,o),
(94,564,c),
(103,541,l),
(23,558,l),
(41,564,l),
(27,527,o),
(21,494,o),
(21,465,cs),
(21,368,o),
(89,320,o),
(153,320,cs),
(171,320,o),
(207,328,o),
(207,363,cs),
(207,385,o),
(193,398,o),
(193,423,cs),
(193,466,o),
(228,479,o),
(256,479,cs),
(315,479,o),
(368,445,o),
(402,332,c),
(386,345,l),
(461,345,l),
(444,336,l),
(456,396,o),
(489,479,o),
(578,479,cs),
(634,479,o),
(655,447,o),
(655,394,cs),
(655,291,l),
(731,291,l),
(731,407,ls),
(731,497,o),
(673,555,o),
(590,555,cs),
(512,555,o),
(457,509,o),
(428,451,c),
(422,451,l),
(390,509,o),
(326,555,o),
(259,555,cs),
(174,555,o),
(136,492,o),
(136,441,cs),
(136,411,o),
(143,390,o),
(157,371,c)
);
}
);
width = 1099;
},
{
anchors = (
{
name = bottom;
pos = (1147,0);
},
{
name = class0;
pos = (1187,0);
},
{
name = top;
pos = (498,650);
}
);
associatedMasterId = m002;
layerId = "46B27E7D-2668-4B81-AEE8-0D674A4D61AF";
name = Regular;
shapes = (
{
closed = 1;
nodes = (
(185,260,o),
(220,292,o),
(232,352,cs),
(246,423,o),
(247,479,o),
(297,479,cs),
(304,479,ls),
(361,479,o),
(386,390,o),
(491,390,cs),
(579,390,o),
(623,479,o),
(687,479,cs),
(698,479,ls),
(733,479,o),
(753,458,o),
(753,394,cs),
(753,291,l),
(829,291,l),
(829,398,ls),
(829,505,o),
(784,555,o),
(708,555,cs),
(691,555,ls),
(583,555,o),
(554,465,o),
(491,465,cs),
(421,465,o),
(395,555,o),
(302,555,cs),
(210,555,o),
(180,476,o),
(171,409,cs),
(164,359,o),
(157,328,o),
(131,328,cs),
(91,328,o),
(81,375,o),
(94,474,c),
(108,440,l),
(28,447,l),
(48,467,l),
(5,349,o),
(46,260,o),
(129,260,cs)
);
},
{
alignment = -1;
pos = (-37,0);
ref = _ha_bangkiang;
},
{
alignment = -1;
pos = (-7,0);
ref = _ha_geluungan_ha;
}
);
width = 1187;
},
{
anchors = (
{
name = bottom;
pos = (1137,0);
},
{
name = top;
pos = (488,650);
}
);
associatedMasterId = m002;
layerId = "D577826A-3D80-4EE6-A43D-BF85DFC2FB0B";
name = Regular;
shapes = (
{
closed = 1;
nodes = (
(185,260,o),
(235,296,o),
(235,388,cs),
(235,439,o),
(243,479,o),
(296,479,cs),
(373,479,o),
(369,381,o),
(483,381,cs),
(591,381,o),
(599,479,o),
(683,479,cs),
(689,479,ls),
(734,479,o),
(753,448,o),
(753,394,cs),
(753,291,l),
(829,291,l),
(829,407,ls),
(829,505,o),
(774,555,o),
(698,555,cs),
(684,555,ls),
(570,555,o),
(548,455,o),
(483,455,cs),
(411,455,o),
(405,555,o),
(292,555,cs),
(225,555,o),
(170,507,o),
(170,430,cs),
(170,352,o),
(157,328,o),
(131,328,cs),
(91,328,o),
(81,375,o),
(116,504,c),
(130,469,l),
(50,486,l),
(66,497,l),
(1,349,o),
(46,260,o),
(129,260,cs)
);
},
{
alignment = -1;
pos = (-37,0);
ref = _ha_bangkiang;
},
{
alignment = -1;
pos = (-7,0);
ref = _ha_geluungan_ha;
}
);
width = 1197;
},
{
anchors = (
{
name = bottom;
pos = (1039,0);
},
{
name = top;
pos = (443,650);
}
);
associatedMasterId = m002;
background = {
shapes = (
{
pos = (-275,0);
ref = "ba-bali";
}
);
};
layerId = "1AC89106-8ACD-4855-B22A-448BDB02A7C7";
name = Regular;
shapes = (
{
alignment = -1;
pos = (-135,0);
ref = _ha_bangkiang;
},
{
alignment = -1;
pos = (-105,0);
ref = _ha_geluungan_ha;
},
{
closed = 1;
nodes = (
(163,376,l),
(110,383,o),
(78,412,o),
(78,474,cs),
(78,498,o),
(83,528,o),
(94,564,c),
(103,541,l),
(23,558,l),
(41,564,l),
(27,527,o),
(21,494,o),
(21,465,cs),
(21,368,o),
(89,320,o),
(153,320,cs),
(171,320,o),
(207,328,o),
(207,363,cs),
(207,385,o),
(193,398,o),
(193,423,cs),
(193,466,o),
(228,479,o),
(256,479,cs),
(315,479,o),
(368,445,o),
(402,332,c),
(386,345,l),
(461,345,l),
(444,336,l),
(456,396,o),
(489,479,o),
(578,479,cs),
(634,479,o),
(655,447,o),
(655,394,cs),
(655,291,l),
(731,291,l),
(731,407,ls),
(731,497,o),
(673,555,o),
(590,555,cs),
(512,555,o),
(457,509,o),
(428,451,c),
(422,451,l),
(390,509,o),
(326,555,o),
(259,555,cs),
(174,555,o),
(136,492,o),
(136,441,cs),
(136,411,o),
(143,390,o),
(157,371,c)
);
}
);
width = 1099;
},
{
anchors = (
{
name = bottom;
pos = (1039,0);
},
{
name = top;
pos = (414,650);
}
);
associatedMasterId = m002;
background = {
shapes = (
{
pos = (-275,0);
ref = "ba-bali";
}
);
};
layerId = m003;
name = Bold;
shapes = (
{
closed = 1;
nodes = (
(731,291,l),
(731,407,ls),
(731,497,o),
(686,555,o),
(603,555,cs),
(513,555,o),
(476,457,o),
(422,457,cs),
(372,457,o),
(345,555,o),
(248,555,cs),
(181,555,o),
(136,513,o),
(136,444,cs),
(136,423,o),
(138,402,o),
(146,371,c),
(170,376,l),
(97,373,o),
(65,412,o),
(65,474,cs),
(65,498,o),
(70,528,o),
(81,564,c),
(90,543,l),
(10,560,l),
(28,564,l),
(14,527,o),
(8,494,o),
(8,465,cs),
(8,368,o),
(76,320,o),
(149,320,cs),
(178,320,o),
(214,328,o),
(214,363,cs),
(214,385,o),
(200,400,o),
(200,434,cs),
(200,469,o),
(220,484,o),
(249,484,cs),
(316,484,o),
(344,382,o),
(418,382,cs),
(499,382,o),
(533,479,o),
(598,479,cs),
(633,479,o),
(655,457,o),
(655,394,cs),
(655,291,l)
);
},
{
alignment = -1;
pos = (-135,0);
ref = _ha_bangkiang;
},
{
alignment = -1;
pos = (-105,0);
ref = _ha_geluungan_ha;
}
);
width = 1099;
},
{
anchors = (
{
name = bottom;
pos = (1147,0);
},
{
name = class0;
pos = (1187,0);
},
{
name = top;
pos = (498,650);
}
);
associatedMasterId = m002;
layerId = "EAF5F0F5-855F-4231-BC8E-DE2EBDDCA8E7";
name = Bold;
shapes = (
{
closed = 1;
nodes = (
(185,260,o),
(220,292,o),
(232,352,cs),
(246,423,o),
(247,479,o),
(297,479,cs),
(304,479,ls),
(361,479,o),
(386,390,o),
(491,390,cs),
(579,390,o),
(623,479,o),
(687,479,cs),
(698,479,ls),
(733,479,o),
(753,458,o),
(753,394,cs),
(753,291,l),
(829,291,l),
(829,398,ls),
(829,505,o),
(784,555,o),
(708,555,cs),
(691,555,ls),
(583,555,o),
(554,465,o),
(491,465,cs),
(421,465,o),
(395,555,o),
(302,555,cs),
(210,555,o),
(180,476,o),
(171,409,cs),
(164,359,o),
(157,328,o),
(131,328,cs),
(91,328,o),
(81,375,o),
(94,474,c),
(108,440,l),
(28,447,l),
(48,467,l),
(5,349,o),
(46,260,o),
(129,260,cs)
);
},
{
alignment = -1;
pos = (-37,0);
ref = _ha_bangkiang;
},
{
alignment = -1;
pos = (-7,0);
ref = _ha_geluungan_ha;
}
);
width = 1187;
},
{
anchors = (
{
name = bottom;
pos = (1137,0);
},
{
name = top;
pos = (488,650);
}
);
associatedMasterId = m002;
layerId = "A1522935-F922-408D-8656-09F9BE53F198";
name = Bold;
shapes = (
{
closed = 1;
nodes = (
(185,260,o),
(235,296,o),
(235,388,cs),
(235,439,o),
(243,479,o),
(296,479,cs),
(373,479,o),
(369,381,o),
(483,381,cs),
(591,381,o),
(599,479,o),
(683,479,cs),
(689,479,ls),
(734,479,o),
(753,448,o),
(753,394,cs),
(753,291,l),
(829,291,l),
(829,407,ls),
(829,505,o),
(774,555,o),
(698,555,cs),
(684,555,ls),
(570,555,o),
(548,455,o),
(483,455,cs),
(411,455,o),
(405,555,o),
(292,555,cs),
(225,555,o),
(170,507,o),
(170,430,cs),
(170,352,o),
(157,328,o),
(131,328,cs),
(91,328,o),
(81,375,o),
(116,504,c),
(130,469,l),
(50,486,l),
(66,497,l),
(1,349,o),
(46,260,o),
(129,260,cs)
);
},
{
alignment = -1;
pos = (-37,0);
ref = _ha_bangkiang;
},
{
alignment = -1;
pos = (-7,0);
ref = _ha_geluungan_ha;
}
);
width = 1197;
},
{
anchors = (
{
name = bottom;
pos = (1039,0);
},
{
name = top;
pos = (443,650);
}
);
associatedMasterId = m002;
background = {
shapes = (
{
pos = (-275,0);
ref = "ba-bali";
}
);
};
layerId = "244E5AAA-86DA-4553-BAF4-012327127F9B";
name = Bold;
shapes = (
{
alignment = -1;
pos = (-135,0);
ref = _ha_bangkiang;
},
{
alignment = -1;
pos = (-105,0);
ref = _ha_geluungan_ha;
},
{
closed = 1;
nodes = (
(163,376,l),
(110,383,o),
(78,412,o),
(78,474,cs),
(78,498,o),
(83,528,o),
(94,564,c),
(103,541,l),
(23,558,l),
(41,564,l),
(27,527,o),
(21,494,o),
(21,465,cs),
(21,368,o),
(89,320,o),
(153,320,cs),
(171,320,o),
(207,328,o),
(207,363,cs),
(207,385,o),
(193,398,o),
(193,423,cs),
(193,466,o),
(228,479,o),
(256,479,cs),
(315,479,o),
(368,445,o),
(402,332,c),
(386,345,l),
(461,345,l),
(444,336,l),
(456,396,o),
(489,479,o),
(578,479,cs),
(634,479,o),
(655,447,o),
(655,394,cs),
(655,291,l),
(731,291,l),
(731,407,ls),
(731,497,o),
(673,555,o),
(590,555,cs),
(512,555,o),
(457,509,o),
(428,451,c),
(422,451,l),
(390,509,o),
(326,555,o),
(259,555,cs),
(174,555,o),
(136,492,o),
(136,441,cs),
(136,411,o),
(143,390,o),
(157,371,c)
);
}
);
width = 1099;
}
);
metricRight = "ha-bali";
unicode = 6945;
}
{
glyphname = "ta-bali";
layers = (
{
anchors = (
{
name = bottom;
pos = (1146,0);
},
{
name = top;
pos = (593,650);
}
);
background = {
shapes = (
{
closed = 1;
nodes = (
(593,-11,o),
(672,52,o),
(672,176,cs),
(672,354,o),
(474,281,o),
(474,397,cs),
(474,456,o),
(523,487,o),
(623,487,cs),
(718,487,o),
(808,440,o),
(808,320,cs),
(808,129,ls),
(808,40,o),
(863,-11,o),
(930,-11,cs),
(996,-11,o),
(1044,39,o),
(1044,127,cs),
(1044,522,l),
(1024,498,l),
(1064,498,ls),
(1104,498,o),
(1126,478,o),
(1126,436,cs),
(1126,0,l),
(1179,0,l),
(1179,420,ls),
(1179,509,o),
(1148,545,o),
(1058,545,cs),
(991,545,l),
(991,125,ls),
(991,68,o),
(964,44,o),
(929,44,cs),
(894,44,o),
(863,67,o),
(863,119,cs),
(863,319,ls),
(863,490,o),
(774,555,o),
(632,555,cs),
(489,555,o),
(420,498,o),
(420,410,cs),
(420,241,o),
(619,302,o),
(619,160,cs),
(619,82,o),
(560,48,o),
(452,48,cs),
(329,48,o),
(268,96,o),
(268,186,cs),
(268,412,ls),
(268,500,o),
(222,555,o),
(157,555,cs),
(81,555,o),
(45,481,o),
(50,398,c),
(105,398,l),
(105,459,o),
(131,483,o),
(159,483,cs),
(186,483,o),
(217,461,o),
(217,401,cs),
(217,186,ls),
(217,64,o),
(285,-11,o),
(453,-11,cs)
);
}
);
};
layerId = m002;
name = Regular;
shapes = (
{
closed = 1;
nodes = (
(456,-10,ls),
(598,-10,o),
(661,73,o),
(661,165,cs),
(661,272,o),
(582,319,o),
(498,319,cs),
(456,319,o),
(400,307,o),
(362,282,c),
(402,272,l),
(405,395,o),
(475,483,o),
(593,483,cs),
(696,483,o),
(762,416,o),
(762,291,cs),
(762,132,ls),
(762,37,o),
(808,-10,o),
(875,-10,cs),
(934,-10,o),
(987,26,o),
(987,116,cs),
(987,502,l),
(980,482,l),
(1048,484,o),
(1070,447,o),
(1070,372,cs),
(1070,0,l),
(1146,0,l),
(1146,376,ls),
(1146,498,o),
(1101,550,o),
(978,550,cs),
(968,550,l),
(919,507,l),
(919,115,ls),
(919,75,o),
(903,58,o),
(880,58,cs),
(850,58,o),
(838,83,o),
(838,128,cs),
(838,291,ls),
(838,457,o),
(746,555,o),
(601,555,cs),
(446,555,o),
(334,442,o),
(333,253,c),
(324,279,l),
(400,216,l),
(360,222,l),
(394,240,o),
(438,252,o),
(480,252,cs),
(541,252,o),
(585,227,o),
(585,163,cs),
(585,104,o),
(533,66,o),
(438,66,cs),
(376,66,ls),
(305,66,o),
(255,86,o),
(255,183,cs),
(255,259,o),
(286,374,o),
(286,436,cs),
(286,513,o),
(238,555,o),
(169,555,cs),
(91,555,o),
(49,501,o),
(49,432,cs),
(49,374,o),
(78,327,o),
(93,303,c),
(68,303,l),
(165,352,l),
(158,314,l),
(136,355,o),
(118,393,o),
(118,430,cs),
(118,464,o),
(133,485,o),
(163,485,cs),
(195,485,o),
(205,459,o),
(205,425,cs),
(205,365,o),
(173,251,o),
(173,173,cs),
(173,44,o),
(261,-10,o),
(364,-10,cs)
);
}
);
width = 1226;
},
{
associatedMasterId = m002;
background = {
shapes = (
{
closed = 1;
nodes = (
(573,-11,o),
(652,52,o),
(652,176,cs),
(652,354,o),
(454,281,o),
(454,397,cs),
(454,456,o),
(503,487,o),
(603,487,cs),
(698,487,o),
(788,440,o),
(788,320,cs),
(788,129,ls),
(788,40,o),
(843,-11,o),
(910,-11,cs),
(976,-11,o),
(1024,39,o),
(1024,127,cs),
(1024,522,l),
(1004,498,l),
(1044,498,ls),
(1084,498,o),
(1106,478,o),
(1106,436,cs),
(1106,0,l),
(1159,0,l),
(1159,420,ls),
(1159,509,o),
(1128,545,o),
(1038,545,cs),
(971,545,l),
(971,125,ls),
(971,68,o),
(944,44,o),
(909,44,cs),
(874,44,o),
(843,67,o),
(843,119,cs),
(843,319,ls),
(843,490,o),
(754,555,o),
(612,555,cs),
(469,555,o),
(400,498,o),
(400,410,cs),
(400,241,o),
(599,302,o),
(599,160,cs),
(599,82,o),
(540,48,o),
(432,48,cs),
(309,48,o),
(248,96,o),
(248,186,cs),
(248,412,ls),
(248,500,o),
(202,555,o),
(137,555,cs),
(61,555,o),
(25,481,o),
(30,398,c),
(85,398,l),
(85,459,o),
(111,483,o),
(139,483,cs),
(166,483,o),
(197,461,o),
(197,401,cs),
(197,186,ls),
(197,64,o),
(265,-11,o),
(433,-11,cs)
);
}
);
};
layerId = "D38AAA8B-9F2D-4EC0-B257-0148F8050AC3";
name = "2 May 23 15.39";
shapes = (
{
closed = 1;
nodes = (
(429,-10,ls),
(530,-10,o),
(600,43,o),
(600,153,cs),
(600,343,o),
(393,319,o),
(393,404,cs),
(393,448,o),
(448,479,o),
(542,479,cs),
(630,479,o),
(722,451,o),
(722,291,c),
(798,291,l),
(798,472,o),
(712,555,o),
(549,555,cs),
(384,555,o),
(316,480,o),
(316,399,cs),
(316,262,o),
(524,297,o),
(524,157,cs),
(524,85,o),
(470,66,o),
(391,66,cs),
(356,66,l),
(344,-10,l)
);
},
{
pos = (30,0);
ref = _ha_tenas_ha;
},
{
pos = (-68,0);
ref = _ha_bangkiang;
},
{
pos = (-38,0);
ref = _ha_geluungan_ha;
}
);
width = 1120;
},
{
associatedMasterId = m002;
background = {
shapes = (
{
closed = 1;
nodes = (
(574,-11,o),
(653,52,o),
(653,176,cs),
(653,354,o),
(455,281,o),
(455,397,cs),
(455,456,o),
(504,487,o),
(604,487,cs),
(699,487,o),
(789,440,o),
(789,320,cs),
(789,129,ls),
(789,40,o),
(844,-11,o),
(911,-11,cs),
(977,-11,o),
(1025,39,o),
(1025,127,cs),
(1025,522,l),
(1005,498,l),
(1045,498,ls),
(1085,498,o),
(1107,478,o),
(1107,436,cs),
(1107,0,l),
(1160,0,l),
(1160,420,ls),
(1160,509,o),
(1129,545,o),
(1039,545,cs),
(972,545,l),
(972,125,ls),
(972,68,o),
(945,44,o),
(910,44,cs),
(875,44,o),
(844,67,o),
(844,119,cs),
(844,319,ls),
(844,490,o),
(755,555,o),
(613,555,cs),
(470,555,o),
(401,498,o),
(401,410,cs),
(401,241,o),
(600,302,o),
(600,160,cs),
(600,82,o),
(541,48,o),
(433,48,cs),
(310,48,o),
(249,96,o),
(249,186,cs),
(249,412,ls),
(249,500,o),
(203,555,o),
(138,555,cs),
(62,555,o),
(26,481,o),
(31,398,c),
(86,398,l),
(86,459,o),
(112,483,o),
(140,483,cs),
(167,483,o),
(198,461,o),
(198,401,cs),
(198,186,ls),
(198,64,o),
(266,-11,o),
(434,-11,cs)
);
}
);
};
layerId = "5722E2B1-9EFA-4F47-BB80-D15DF3D74D4E";
name = "2 May 23 15.59";
shapes = (
{
closed = 1;
nodes = (
(430,-10,ls),
(531,-10,o),
(583,43,o),
(583,153,cs),
(583,325,o),
(394,299,o),
(394,397,cs),
(394,448,o),
(467,479,o),
(543,479,cs),
(631,479,o),
(723,451,o),
(723,291,c),
(799,291,l),
(799,472,o),
(713,555,o),
(550,555,cs),
(413,555,o),
(335,470,o),
(335,399,cs),
(335,262,o),
(525,297,o),
(525,157,cs),
(525,85,o),
(471,66,o),
(392,66,cs),
(357,66,l),
(345,-10,l)
);
},
{
pos = (31,0);
ref = _ha_tenas_ha;
},
{
pos = (-67,0);
ref = _ha_bangkiang;
},
{
pos = (-37,0);
ref = _ha_geluungan_ha;
}
);
width = 1114;
},
{
associatedMasterId = m002;
background = {
shapes = (
{
closed = 1;
nodes = (
(574,-11,o),
(653,52,o),
(653,176,cs),
(653,354,o),
(455,281,o),
(455,397,cs),
(455,456,o),
(504,487,o),
(604,487,cs),
(699,487,o),
(789,440,o),
(789,320,cs),
(789,129,ls),
(789,40,o),
(844,-11,o),
(911,-11,cs),
(977,-11,o),
(1025,39,o),
(1025,127,cs),
(1025,522,l),
(1005,498,l),
(1045,498,ls),
(1085,498,o),
(1107,478,o),
(1107,436,cs),
(1107,0,l),
(1160,0,l),
(1160,420,ls),
(1160,509,o),
(1129,545,o),
(1039,545,cs),
(972,545,l),
(972,125,ls),
(972,68,o),
(945,44,o),
(910,44,cs),
(875,44,o),
(844,67,o),
(844,119,cs),
(844,319,ls),
(844,490,o),
(755,555,o),
(613,555,cs),
(470,555,o),
(401,498,o),
(401,410,cs),
(401,241,o),
(600,302,o),
(600,160,cs),
(600,82,o),
(541,48,o),
(433,48,cs),
(310,48,o),
(249,96,o),
(249,186,cs),
(249,412,ls),
(249,500,o),
(203,555,o),
(138,555,cs),
(62,555,o),
(26,481,o),
(31,398,c),
(86,398,l),
(86,459,o),
(112,483,o),
(140,483,cs),
(167,483,o),
(198,461,o),
(198,401,cs),
(198,186,ls),
(198,64,o),
(266,-11,o),
(434,-11,cs)
);
}
);
};
layerId = "FAD0FD3F-3582-4648-8673-98DA3840321F";
name = "4 May 23 15.34";
shapes = (
{
closed = 1;
nodes = (
(400,-10,ls),
(517,-10,o),
(587,53,o),
(587,153,cs),
(587,326,o),
(409,321,o),
(409,399,cs),
(409,450,o),
(469,485,o),
(551,485,cs),
(633,485,o),
(723,451,o),
(723,291,c),
(799,291,l),
(799,472,o),
(702,555,o),
(559,555,cs),
(422,555,o),
(336,477,o),
(336,399,cs),
(336,270,o),
(515,297,o),
(515,157,cs),
(515,85,o),
(461,66,o),
(392,66,cs),
(357,66,l),
(345,-10,l)
);
},
{
pos = (31,0);
ref = _ha_tenas_ha;
},
{
pos = (-67,0);
ref = _ha_bangkiang;
},
{
pos = (-37,0);
ref = _ha_geluungan_ha;
}
);
width = 1160;
},
{
associatedMasterId = m002;
background = {
shapes = (
{
closed = 1;
nodes = (
(574,-11,o),
(653,52,o),
(653,176,cs),
(653,354,o),
(455,281,o),
(455,397,cs),
(455,456,o),
(504,487,o),
(604,487,cs),
(699,487,o),
(789,440,o),
(789,320,cs),
(789,129,ls),
(789,40,o),
(844,-11,o),
(911,-11,cs),
(977,-11,o),
(1025,39,o),
(1025,127,cs),
(1025,522,l),
(1005,498,l),
(1045,498,ls),
(1085,498,o),
(1107,478,o),
(1107,436,cs),
(1107,0,l),
(1160,0,l),
(1160,420,ls),
(1160,509,o),
(1129,545,o),
(1039,545,cs),
(972,545,l),
(972,125,ls),
(972,68,o),
(945,44,o),
(910,44,cs),
(875,44,o),
(844,67,o),
(844,119,cs),
(844,319,ls),
(844,490,o),
(755,555,o),
(613,555,cs),
(470,555,o),
(401,498,o),
(401,410,cs),
(401,241,o),
(600,302,o),
(600,160,cs),
(600,82,o),
(541,48,o),
(433,48,cs),
(310,48,o),
(249,96,o),
(249,186,cs),
(249,412,ls),
(249,500,o),
(203,555,o),
(138,555,cs),
(62,555,o),
(26,481,o),
(31,398,c),
(86,398,l),
(86,459,o),
(112,483,o),
(140,483,cs),
(167,483,o),
(198,461,o),
(198,401,cs),
(198,186,ls),
(198,64,o),
(266,-11,o),
(434,-11,cs)
);
}
);
};
layerId = "146460DD-6658-4958-89B8-8279BA9FF819";
name = "4 May 23 15.54";
shapes = (
{
closed = 1;
nodes = (
(393,-10,ls),
(536,-10,o),
(591,84,o),
(591,168,cs),
(591,253,o),
(547,304,o),
(455,319,cs),
(391,330,o),
(366,345,o),
(366,387,cs),
(366,449,o),
(419,484,o),
(524,484,cs),
(649,484,o),
(723,413,o),
(723,272,c),
(799,291,l),
(799,491,o),
(667,555,o),
(539,555,cs),
(383,555,o),
(302,487,o),
(302,366,cs),
(302,283,o),
(349,272,o),
(431,255,cs),
(506,239,o),
(519,215,o),
(519,173,cs),
(519,115,o),
(475,66,o),
(392,66,cs),
(357,66,l),
(345,-10,l)
);
},
{
pos = (31,0);
ref = _ha_tenas_ha;
},
{
pos = (-67,0);
ref = _ha_bangkiang;
},
{
pos = (-37,0);
ref = _ha_geluungan_ha;
}
);
width = 1160;
},
{
associatedMasterId = m002;
background = {
shapes = (
{
closed = 1;
nodes = (
(573,-11,o),
(652,52,o),
(652,176,cs),
(652,354,o),
(454,281,o),
(454,397,cs),
(454,456,o),
(503,487,o),
(603,487,cs),
(698,487,o),
(788,440,o),
(788,320,cs),
(788,129,ls),
(788,40,o),
(843,-11,o),
(910,-11,cs),
(976,-11,o),
(1024,39,o),
(1024,127,cs),
(1024,522,l),
(1004,498,l),
(1044,498,ls),
(1084,498,o),
(1106,478,o),
(1106,436,cs),
(1106,0,l),
(1159,0,l),
(1159,420,ls),
(1159,509,o),
(1128,545,o),
(1038,545,cs),
(971,545,l),
(971,125,ls),
(971,68,o),
(944,44,o),
(909,44,cs),
(874,44,o),
(843,67,o),
(843,119,cs),
(843,319,ls),
(843,490,o),
(754,555,o),
(612,555,cs),
(469,555,o),
(400,498,o),
(400,410,cs),
(400,241,o),
(599,302,o),
(599,160,cs),
(599,82,o),
(540,48,o),
(432,48,cs),
(309,48,o),
(248,96,o),
(248,186,cs),
(248,412,ls),
(248,500,o),
(202,555,o),
(137,555,cs),
(61,555,o),
(25,481,o),
(30,398,c),
(85,398,l),
(85,459,o),
(111,483,o),
(139,483,cs),
(166,483,o),
(197,461,o),
(197,401,cs),
(197,186,ls),
(197,64,o),
(265,-11,o),
(433,-11,cs)
);
}
);
};
layerId = "1738CA26-4FC9-4F77-A427-EDE212E795F1";
name = Regular;
shapes = (
{
closed = 1;
nodes = (
(429,-10,ls),
(530,-10,o),
(600,43,o),
(600,153,cs),
(600,343,o),
(393,319,o),
(393,404,cs),
(393,448,o),
(448,479,o),
(542,479,cs),
(630,479,o),
(722,451,o),
(722,291,c),
(798,291,l),
(798,472,o),
(712,555,o),
(549,555,cs),
(384,555,o),
(316,480,o),
(316,399,cs),
(316,262,o),
(524,297,o),
(524,157,cs),
(524,85,o),
(470,66,o),
(391,66,cs),
(356,66,l),
(344,-10,l)
);
},
{
pos = (30,0);
ref = _ha_tenas_ha;
},
{
pos = (-68,0);
ref = _ha_bangkiang;
},
{
pos = (-38,0);
ref = _ha_geluungan_ha;
}
);
width = 1120;
},
{
associatedMasterId = m002;
background = {
shapes = (
{
closed = 1;
nodes = (
(574,-11,o),
(653,52,o),
(653,176,cs),
(653,354,o),
(455,281,o),
(455,397,cs),
(455,456,o),
(504,487,o),
(604,487,cs),
(699,487,o),
(789,440,o),
(789,320,cs),
(789,129,ls),
(789,40,o),
(844,-11,o),
(911,-11,cs),
(977,-11,o),
(1025,39,o),
(1025,127,cs),
(1025,522,l),
(1005,498,l),
(1045,498,ls),
(1085,498,o),
(1107,478,o),
(1107,436,cs),
(1107,0,l),
(1160,0,l),
(1160,420,ls),
(1160,509,o),
(1129,545,o),
(1039,545,cs),
(972,545,l),
(972,125,ls),
(972,68,o),
(945,44,o),
(910,44,cs),
(875,44,o),
(844,67,o),
(844,119,cs),
(844,319,ls),
(844,490,o),
(755,555,o),
(613,555,cs),
(470,555,o),
(401,498,o),
(401,410,cs),
(401,241,o),
(600,302,o),
(600,160,cs),
(600,82,o),
(541,48,o),
(433,48,cs),
(310,48,o),
(249,96,o),
(249,186,cs),
(249,412,ls),
(249,500,o),
(203,555,o),
(138,555,cs),
(62,555,o),
(26,481,o),
(31,398,c),
(86,398,l),
(86,459,o),
(112,483,o),
(140,483,cs),
(167,483,o),
(198,461,o),
(198,401,cs),
(198,186,ls),
(198,64,o),
(266,-11,o),
(434,-11,cs)
);
}
);
};
layerId = "E8638A3E-8DA0-427A-9561-B487FA0EC3B7";
name = Regular;
shapes = (
{
closed = 1;
nodes = (
(430,-10,ls),
(531,-10,o),
(583,43,o),
(583,153,cs),
(583,325,o),
(394,299,o),
(394,397,cs),
(394,448,o),
(467,479,o),
(543,479,cs),
(631,479,o),
(723,451,o),
(723,291,c),
(799,291,l),
(799,472,o),
(713,555,o),
(550,555,cs),
(413,555,o),
(335,470,o),
(335,399,cs),
(335,262,o),
(525,297,o),
(525,157,cs),
(525,85,o),
(471,66,o),
(392,66,cs),
(357,66,l),
(345,-10,l)
);
},
{
pos = (31,0);
ref = _ha_tenas_ha;
},
{
pos = (-67,0);
ref = _ha_bangkiang;
},
{
pos = (-37,0);
ref = _ha_geluungan_ha;
}
);
width = 1114;
},
{
associatedMasterId = m002;
background = {
shapes = (
{
closed = 1;
nodes = (
(574,-11,o),
(653,52,o),
(653,176,cs),
(653,354,o),
(455,281,o),
(455,397,cs),
(455,456,o),
(504,487,o),
(604,487,cs),
(699,487,o),
(789,440,o),
(789,320,cs),
(789,129,ls),
(789,40,o),
(844,-11,o),
(911,-11,cs),
(977,-11,o),
(1025,39,o),
(1025,127,cs),
(1025,522,l),
(1005,498,l),
(1045,498,ls),
(1085,498,o),
(1107,478,o),
(1107,436,cs),
(1107,0,l),
(1160,0,l),
(1160,420,ls),
(1160,509,o),
(1129,545,o),
(1039,545,cs),
(972,545,l),
(972,125,ls),
(972,68,o),
(945,44,o),
(910,44,cs),
(875,44,o),
(844,67,o),
(844,119,cs),
(844,319,ls),
(844,490,o),
(755,555,o),
(613,555,cs),
(470,555,o),
(401,498,o),
(401,410,cs),
(401,241,o),
(600,302,o),
(600,160,cs),
(600,82,o),
(541,48,o),
(433,48,cs),
(310,48,o),
(249,96,o),
(249,186,cs),
(249,412,ls),
(249,500,o),
(203,555,o),
(138,555,cs),
(62,555,o),
(26,481,o),
(31,398,c),
(86,398,l),
(86,459,o),
(112,483,o),
(140,483,cs),
(167,483,o),
(198,461,o),
(198,401,cs),
(198,186,ls),
(198,64,o),
(266,-11,o),
(434,-11,cs)
);
}
);
};
layerId = "7AA2149E-FB26-4EAE-9F80-D5FA8B69E4B6";
name = Regular;
shapes = (
{
closed = 1;
nodes = (
(400,-10,ls),
(517,-10,o),
(587,53,o),
(587,153,cs),
(587,326,o),
(409,321,o),
(409,399,cs),
(409,450,o),
(469,485,o),
(551,485,cs),
(633,485,o),
(723,451,o),
(723,291,c),
(799,291,l),
(799,472,o),
(702,555,o),
(559,555,cs),
(422,555,o),
(336,477,o),
(336,399,cs),
(336,270,o),
(515,297,o),
(515,157,cs),
(515,85,o),
(461,66,o),
(392,66,cs),
(357,66,l),
(345,-10,l)
);
},
{
pos = (31,0);
ref = _ha_tenas_ha;
},
{
pos = (-67,0);
ref = _ha_bangkiang;
},
{
pos = (-37,0);
ref = _ha_geluungan_ha;
}
);
width = 1160;
},
{
associatedMasterId = m002;
background = {
shapes = (
{
closed = 1;
nodes = (
(574,-11,o),
(653,52,o),
(653,176,cs),
(653,354,o),
(455,281,o),
(455,397,cs),
(455,456,o),
(504,487,o),
(604,487,cs),
(699,487,o),
(789,440,o),
(789,320,cs),
(789,129,ls),
(789,40,o),
(844,-11,o),
(911,-11,cs),
(977,-11,o),
(1025,39,o),
(1025,127,cs),
(1025,522,l),
(1005,498,l),
(1045,498,ls),
(1085,498,o),
(1107,478,o),
(1107,436,cs),
(1107,0,l),
(1160,0,l),
(1160,420,ls),
(1160,509,o),
(1129,545,o),
(1039,545,cs),
(972,545,l),
(972,125,ls),
(972,68,o),
(945,44,o),
(910,44,cs),
(875,44,o),
(844,67,o),
(844,119,cs),
(844,319,ls),
(844,490,o),
(755,555,o),
(613,555,cs),
(470,555,o),
(401,498,o),
(401,410,cs),
(401,241,o),
(600,302,o),
(600,160,cs),
(600,82,o),
(541,48,o),
(433,48,cs),
(310,48,o),
(249,96,o),
(249,186,cs),
(249,412,ls),
(249,500,o),
(203,555,o),
(138,555,cs),
(62,555,o),
(26,481,o),
(31,398,c),
(86,398,l),
(86,459,o),
(112,483,o),
(140,483,cs),
(167,483,o),
(198,461,o),
(198,401,cs),
(198,186,ls),
(198,64,o),
(266,-11,o),
(434,-11,cs)
);
}
);
};
layerId = "230A62BB-60CD-4DEE-AD71-90DCA8375253";
name = Regular;
shapes = (
{
closed = 1;
nodes = (
(393,-10,ls),
(536,-10,o),
(591,84,o),
(591,168,cs),
(591,253,o),
(547,304,o),
(455,319,cs),
(391,330,o),
(366,345,o),
(366,387,cs),
(366,449,o),
(419,484,o),
(524,484,cs),
(649,484,o),
(723,413,o),
(723,272,c),
(799,291,l),
(799,491,o),
(667,555,o),
(539,555,cs),
(383,555,o),
(302,487,o),
(302,366,cs),
(302,283,o),
(349,272,o),
(431,255,cs),
(506,239,o),
(519,215,o),
(519,173,cs),
(519,115,o),
(475,66,o),
(392,66,cs),
(357,66,l),
(345,-10,l)
);
},
{
pos = (31,0);
ref = _ha_tenas_ha;
},
{
pos = (-67,0);
ref = _ha_bangkiang;
},
{
pos = (-37,0);
ref = _ha_geluungan_ha;
}
);
width = 1160;
},
{
anchors = (
{
name = bottom;
pos = (1157,0);
},
{
name = top;
pos = (414,650);
}
);
associatedMasterId = m002;
background = {
shapes = (
{
closed = 1;
nodes = (
(604,-11,o),
(683,52,o),
(683,176,cs),
(683,354,o),
(485,281,o),
(485,397,cs),
(485,456,o),
(534,487,o),
(634,487,cs),
(729,487,o),
(819,440,o),
(819,320,cs),
(819,129,ls),
(819,40,o),
(874,-11,o),
(941,-11,cs),
(1007,-11,o),
(1055,39,o),
(1055,127,cs),
(1055,522,l),
(1035,498,l),
(1075,498,ls),
(1115,498,o),
(1137,478,o),
(1137,436,cs),
(1137,0,l),
(1190,0,l),
(1190,420,ls),
(1190,509,o),
(1159,545,o),
(1069,545,cs),
(1002,545,l),
(1002,125,ls),
(1002,68,o),
(975,44,o),
(940,44,cs),
(905,44,o),
(874,67,o),
(874,119,cs),
(874,319,ls),
(874,490,o),
(785,555,o),
(643,555,cs),
(500,555,o),
(431,498,o),
(431,410,cs),
(431,241,o),
(630,302,o),
(630,160,cs),
(630,82,o),
(571,48,o),
(463,48,cs),
(340,48,o),
(279,96,o),
(279,186,cs),
(279,412,ls),
(279,500,o),
(233,555,o),
(168,555,cs),
(92,555,o),
(56,481,o),
(61,398,c),
(116,398,l),
(116,459,o),
(142,483,o),
(170,483,cs),
(197,483,o),
(228,461,o),
(228,401,cs),
(228,186,ls),
(228,64,o),
(296,-11,o),
(464,-11,cs)
);
}
);
};
layerId = m003;
name = Bold;
shapes = (
{
alignment = -1;
pos = (61,0);
ref = _ha_tenas_ha;
},
{
alignment = -1;
pos = (-17,0);
ref = _ha_bangkiang;
},
{
alignment = -1;
pos = (13,0);
ref = _ha_geluungan_ha;
},
{
pos = (10,0);
ref = _ta_awak;
}
);
width = 1217;
},
{
associatedMasterId = m002;
background = {
shapes = (
{
closed = 1;
nodes = (
(573,-11,o),
(652,52,o),
(652,176,cs),
(652,354,o),
(454,281,o),
(454,397,cs),
(454,456,o),
(503,487,o),
(603,487,cs),
(698,487,o),
(788,440,o),
(788,320,cs),
(788,129,ls),
(788,40,o),
(843,-11,o),
(910,-11,cs),
(976,-11,o),
(1024,39,o),
(1024,127,cs),
(1024,522,l),
(1004,498,l),
(1044,498,ls),
(1084,498,o),
(1106,478,o),
(1106,436,cs),
(1106,0,l),
(1159,0,l),
(1159,420,ls),
(1159,509,o),
(1128,545,o),
(1038,545,cs),
(971,545,l),
(971,125,ls),
(971,68,o),
(944,44,o),
(909,44,cs),
(874,44,o),
(843,67,o),
(843,119,cs),
(843,319,ls),
(843,490,o),
(754,555,o),
(612,555,cs),
(469,555,o),
(400,498,o),
(400,410,cs),
(400,241,o),
(599,302,o),
(599,160,cs),
(599,82,o),
(540,48,o),
(432,48,cs),
(309,48,o),
(248,96,o),
(248,186,cs),
(248,412,ls),
(248,500,o),
(202,555,o),
(137,555,cs),
(61,555,o),
(25,481,o),
(30,398,c),
(85,398,l),
(85,459,o),
(111,483,o),
(139,483,cs),
(166,483,o),
(197,461,o),
(197,401,cs),
(197,186,ls),
(197,64,o),
(265,-11,o),
(433,-11,cs)
);
}
);
};
layerId = "AF8FBC59-D9F7-4C02-B0EA-F0C5D1EA8B7A";
name = Bold;
shapes = (
{
closed = 1;
nodes = (
(429,-10,ls),
(530,-10,o),
(600,43,o),
(600,153,cs),
(600,343,o),
(393,319,o),
(393,404,cs),
(393,448,o),
(448,479,o),
(542,479,cs),
(630,479,o),
(722,451,o),
(722,291,c),
(798,291,l),
(798,472,o),
(712,555,o),
(549,555,cs),
(384,555,o),
(316,480,o),
(316,399,cs),
(316,262,o),
(524,297,o),
(524,157,cs),
(524,85,o),
(470,66,o),
(391,66,cs),
(356,66,l),
(344,-10,l)
);
},
{
pos = (30,0);
ref = _ha_tenas_ha;
},
{
pos = (-68,0);
ref = _ha_bangkiang;
},
{
pos = (-38,0);
ref = _ha_geluungan_ha;
}
);
width = 1120;
},
{
associatedMasterId = m002;
background = {
shapes = (
{
closed = 1;
nodes = (
(574,-11,o),
(653,52,o),
(653,176,cs),
(653,354,o),
(455,281,o),
(455,397,cs),
(455,456,o),
(504,487,o),
(604,487,cs),
(699,487,o),
(789,440,o),
(789,320,cs),
(789,129,ls),
(789,40,o),
(844,-11,o),
(911,-11,cs),
(977,-11,o),
(1025,39,o),
(1025,127,cs),
(1025,522,l),
(1005,498,l),
(1045,498,ls),
(1085,498,o),
(1107,478,o),
(1107,436,cs),
(1107,0,l),
(1160,0,l),
(1160,420,ls),
(1160,509,o),
(1129,545,o),
(1039,545,cs),
(972,545,l),
(972,125,ls),
(972,68,o),
(945,44,o),
(910,44,cs),
(875,44,o),
(844,67,o),
(844,119,cs),
(844,319,ls),
(844,490,o),
(755,555,o),
(613,555,cs),
(470,555,o),
(401,498,o),
(401,410,cs),
(401,241,o),
(600,302,o),
(600,160,cs),
(600,82,o),
(541,48,o),
(433,48,cs),
(310,48,o),
(249,96,o),
(249,186,cs),
(249,412,ls),
(249,500,o),
(203,555,o),
(138,555,cs),
(62,555,o),
(26,481,o),
(31,398,c),
(86,398,l),
(86,459,o),
(112,483,o),
(140,483,cs),
(167,483,o),
(198,461,o),
(198,401,cs),
(198,186,ls),
(198,64,o),
(266,-11,o),
(434,-11,cs)
);
}
);
};
layerId = "2279C82C-DF6D-4375-8E3B-680BE7D13CA4";
name = Bold;
shapes = (
{
closed = 1;
nodes = (
(430,-10,ls),
(531,-10,o),
(583,43,o),
(583,153,cs),
(583,325,o),
(394,299,o),
(394,397,cs),
(394,448,o),
(467,479,o),
(543,479,cs),
(631,479,o),
(723,451,o),
(723,291,c),
(799,291,l),
(799,472,o),
(713,555,o),
(550,555,cs),
(413,555,o),
(335,470,o),
(335,399,cs),
(335,262,o),
(525,297,o),
(525,157,cs),
(525,85,o),
(471,66,o),
(392,66,cs),
(357,66,l),
(345,-10,l)
);
},
{
pos = (31,0);
ref = _ha_tenas_ha;
},
{
pos = (-67,0);
ref = _ha_bangkiang;
},
{
pos = (-37,0);
ref = _ha_geluungan_ha;
}
);
width = 1114;
},
{
associatedMasterId = m002;
background = {
shapes = (
{
closed = 1;
nodes = (
(574,-11,o),
(653,52,o),
(653,176,cs),
(653,354,o),
(455,281,o),
(455,397,cs),
(455,456,o),
(504,487,o),
(604,487,cs),
(699,487,o),
(789,440,o),
(789,320,cs),
(789,129,ls),
(789,40,o),
(844,-11,o),
(911,-11,cs),
(977,-11,o),
(1025,39,o),
(1025,127,cs),
(1025,522,l),
(1005,498,l),
(1045,498,ls),
(1085,498,o),
(1107,478,o),
(1107,436,cs),
(1107,0,l),
(1160,0,l),
(1160,420,ls),
(1160,509,o),
(1129,545,o),
(1039,545,cs),
(972,545,l),
(972,125,ls),
(972,68,o),
(945,44,o),
(910,44,cs),
(875,44,o),
(844,67,o),
(844,119,cs),
(844,319,ls),
(844,490,o),
(755,555,o),
(613,555,cs),
(470,555,o),
(401,498,o),
(401,410,cs),
(401,241,o),
(600,302,o),
(600,160,cs),
(600,82,o),
(541,48,o),
(433,48,cs),
(310,48,o),
(249,96,o),
(249,186,cs),
(249,412,ls),
(249,500,o),
(203,555,o),
(138,555,cs),
(62,555,o),
(26,481,o),
(31,398,c),
(86,398,l),
(86,459,o),
(112,483,o),
(140,483,cs),
(167,483,o),
(198,461,o),
(198,401,cs),
(198,186,ls),
(198,64,o),
(266,-11,o),
(434,-11,cs)
);
}
);
};
layerId = "6695EB37-FFD9-4FC1-9456-5E88CF05B8A2";
name = Bold;
shapes = (
{
closed = 1;
nodes = (
(400,-10,ls),
(517,-10,o),
(587,53,o),
(587,153,cs),
(587,326,o),
(409,321,o),
(409,399,cs),
(409,450,o),
(469,485,o),
(551,485,cs),
(633,485,o),
(723,451,o),
(723,291,c),
(799,291,l),
(799,472,o),
(702,555,o),
(559,555,cs),
(422,555,o),
(336,477,o),
(336,399,cs),
(336,270,o),
(515,297,o),
(515,157,cs),
(515,85,o),
(461,66,o),
(392,66,cs),
(357,66,l),
(345,-10,l)
);
},
{
pos = (31,0);
ref = _ha_tenas_ha;
},
{
pos = (-67,0);
ref = _ha_bangkiang;
},
{
pos = (-37,0);
ref = _ha_geluungan_ha;
}
);
width = 1160;
},
{
associatedMasterId = m002;
background = {
shapes = (
{
closed = 1;
nodes = (
(574,-11,o),
(653,52,o),
(653,176,cs),
(653,354,o),
(455,281,o),
(455,397,cs),
(455,456,o),
(504,487,o),
(604,487,cs),
(699,487,o),
(789,440,o),
(789,320,cs),
(789,129,ls),
(789,40,o),
(844,-11,o),
(911,-11,cs),
(977,-11,o),
(1025,39,o),
(1025,127,cs),
(1025,522,l),
(1005,498,l),
(1045,498,ls),
(1085,498,o),
(1107,478,o),
(1107,436,cs),
(1107,0,l),
(1160,0,l),
(1160,420,ls),
(1160,509,o),
(1129,545,o),
(1039,545,cs),
(972,545,l),
(972,125,ls),
(972,68,o),
(945,44,o),
(910,44,cs),
(875,44,o),
(844,67,o),
(844,119,cs),
(844,319,ls),
(844,490,o),
(755,555,o),
(613,555,cs),
(470,555,o),
(401,498,o),
(401,410,cs),
(401,241,o),
(600,302,o),
(600,160,cs),
(600,82,o),
(541,48,o),
(433,48,cs),
(310,48,o),
(249,96,o),
(249,186,cs),
(249,412,ls),
(249,500,o),
(203,555,o),
(138,555,cs),
(62,555,o),
(26,481,o),
(31,398,c),
(86,398,l),
(86,459,o),
(112,483,o),
(140,483,cs),
(167,483,o),
(198,461,o),
(198,401,cs),
(198,186,ls),
(198,64,o),
(266,-11,o),
(434,-11,cs)
);
}
);
};
layerId = "A0A19FE3-8752-4029-A30B-23F913BAA9B4";
name = Bold;
shapes = (
{
closed = 1;
nodes = (
(393,-10,ls),
(536,-10,o),
(591,84,o),
(591,168,cs),
(591,253,o),
(547,304,o),
(455,319,cs),
(391,330,o),
(366,345,o),
(366,387,cs),
(366,449,o),
(419,484,o),
(524,484,cs),
(649,484,o),
(723,413,o),
(723,272,c),
(799,291,l),
(799,491,o),
(667,555,o),
(539,555,cs),
(383,555,o),
(302,487,o),
(302,366,cs),
(302,283,o),
(349,272,o),
(431,255,cs),
(506,239,o),
(519,215,o),
(519,173,cs),
(519,115,o),
(475,66,o),
(392,66,cs),
(357,66,l),
(345,-10,l)
);
},
{
pos = (31,0);
ref = _ha_tenas_ha;
},
{
pos = (-67,0);
ref = _ha_bangkiang;
},
{
pos = (-37,0);
ref = _ha_geluungan_ha;
}
);
width = 1160;
},
{
anchors = (
{
name = bottom;
pos = (1146,0);
},
{
name = top;
pos = (403,650);
}
);
associatedMasterId = m002;
background = {
shapes = (
{
closed = 1;
nodes = (
(593,-11,o),
(672,52,o),
(672,176,cs),
(672,354,o),
(474,281,o),
(474,397,cs),
(474,456,o),
(523,487,o),
(623,487,cs),
(718,487,o),
(808,440,o),
(808,320,cs),
(808,129,ls),
(808,40,o),
(863,-11,o),
(930,-11,cs),
(996,-11,o),
(1044,39,o),
(1044,127,cs),
(1044,522,l),
(1024,498,l),
(1064,498,ls),
(1104,498,o),
(1126,478,o),
(1126,436,cs),
(1126,0,l),
(1179,0,l),
(1179,420,ls),
(1179,509,o),
(1148,545,o),
(1058,545,cs),
(991,545,l),
(991,125,ls),
(991,68,o),
(964,44,o),
(929,44,cs),
(894,44,o),
(863,67,o),
(863,119,cs),
(863,319,ls),
(863,490,o),
(774,555,o),
(632,555,cs),
(489,555,o),
(420,498,o),
(420,410,cs),
(420,241,o),
(619,302,o),
(619,160,cs),
(619,82,o),
(560,48,o),
(452,48,cs),
(329,48,o),
(268,96,o),
(268,186,cs),
(268,412,ls),
(268,500,o),
(222,555,o),
(157,555,cs),
(81,555,o),
(45,481,o),
(50,398,c),
(105,398,l),
(105,459,o),
(131,483,o),
(159,483,cs),
(186,483,o),
(217,461,o),
(217,401,cs),
(217,186,ls),
(217,64,o),
(285,-11,o),
(453,-11,cs)
);
}
);
};
layerId = "FF444BA0-34A8-42DA-A5A0-34A5562EB98E";
name = "19 Aug 23 15.05";
shapes = (
{
alignment = -1;
pos = (50,0);
ref = _ha_tenas_ha;
},
{
alignment = -1;
pos = (-28,0);
ref = _ha_bangkiang;
},
{
alignment = -1;
pos = (2,0);
ref = _ha_geluungan_ha;
},
{
pos = (-1,0);
ref = _ta_awak;
}
);
width = 1226;
},
{
anchors = (
{
name = bottom;
pos = (1146,0);
},
{
name = top;
pos = (403,650);
}
);
associatedMasterId = m002;
background = {
shapes = (
{
closed = 1;
nodes = (
(593,-11,o),
(672,52,o),
(672,176,cs),
(672,354,o),
(474,281,o),
(474,397,cs),
(474,456,o),
(523,487,o),
(623,487,cs),
(718,487,o),
(808,440,o),
(808,320,cs),
(808,129,ls),
(808,40,o),
(863,-11,o),
(930,-11,cs),
(996,-11,o),
(1044,39,o),
(1044,127,cs),
(1044,522,l),
(1024,498,l),
(1064,498,ls),
(1104,498,o),
(1126,478,o),
(1126,436,cs),
(1126,0,l),
(1179,0,l),
(1179,420,ls),
(1179,509,o),
(1148,545,o),
(1058,545,cs),
(991,545,l),
(991,125,ls),
(991,68,o),
(964,44,o),
(929,44,cs),
(894,44,o),
(863,67,o),
(863,119,cs),
(863,319,ls),
(863,490,o),
(774,555,o),
(632,555,cs),
(489,555,o),
(420,498,o),
(420,410,cs),
(420,241,o),
(619,302,o),
(619,160,cs),
(619,82,o),
(560,48,o),
(452,48,cs),
(329,48,o),
(268,96,o),
(268,186,cs),
(268,412,ls),
(268,500,o),
(222,555,o),
(157,555,cs),
(81,555,o),
(45,481,o),
(50,398,c),
(105,398,l),
(105,459,o),
(131,483,o),
(159,483,cs),
(186,483,o),
(217,461,o),
(217,401,cs),
(217,186,ls),
(217,64,o),
(285,-11,o),
(453,-11,cs)
);
}
);
};
layerId = "B9E164DF-116D-4FD7-93B5-4C9C3A6A9F4A";
name = "19 Aug 23 15.52";
shapes = (
{
alignment = -1;
pos = (50,0);
ref = _ha_tenas_ha;
},
{
alignment = -1;
pos = (-28,0);
ref = _ha_bangkiang;
},
{
alignment = -1;
pos = (2,0);
ref = _ha_geluungan_ha;
},
{
closed = 1;
nodes = (
(422,-10,ls),
(563,-10,o),
(627,72,o),
(627,166,cs),
(627,221,o),
(605,260,o),
(557,287,cs),
(491,324,o),
(413,321,o),
(413,386,cs),
(413,436,o),
(460,483,o),
(569,483,cs),
(702,483,o),
(762,413,o),
(762,291,c),
(838,291,l),
(838,478,o),
(720,555,o),
(576,555,cs),
(429,555,o),
(344,475,o),
(344,377,cs),
(344,310,o),
(384,281,o),
(426,264,cs),
(485,240,o),
(552,240,o),
(552,166,cs),
(552,102,o),
(502,66,o),
(430,66,cs),
(376,66,l),
(364,-10,l)
);
}
);
width = 1226;
}
);
metricLeft = "ha-bali";
metricRight = "ha-bali";
unicode = 6946;
}
{
glyphname = "daMadu-bali";
layers = (
{
anchors = (
{
name = bottom;
pos = (916,0);
},
{
name = top;
pos = (462,650);
}
);
background = {
shapes = (
{
pos = (28,0);
ref = _daMadu_bawah;
}
);
};
layerId = m002;
name = Regular;
shapes = (
{
closed = 1;
nodes = (
(394,-10,o),
(416,90,o),
(454,90,cs),
(456,90,ls),
(492,90,o),
(519,-10,o),
(615,-10,cs),
(702,-10,o),
(761,71,o),
(761,192,cs),
(761,366,o),
(638,448,o),
(535,445,c),
(532,431,l),
(575,469,o),
(624,487,o),
(676,487,cs),
(776,487,o),
(840,420,o),
(840,272,cs),
(840,0,l),
(916,0,l),
(916,300,ls),
(916,466,o),
(825,555,o),
(692,555,cs),
(600,555,o),
(515,513,o),
(450,437,c),
(465,459,l),
(493,381,l),
(475,395,l),
(563,397,o),
(692,362,o),
(692,195,cs),
(692,115,o),
(662,61,o),
(616,61,cs),
(552,61,o),
(520,169,o),
(459,169,cs),
(457,169,ls),
(394,169,o),
(361,63,o),
(297,63,cs),
(269,63,o),
(246,84,o),
(246,139,cs),
(246,212,o),
(286,344,o),
(286,425,cs),
(286,514,o),
(238,555,o),
(169,555,cs),
(91,555,o),
(49,501,o),
(49,432,cs),
(49,374,o),
(78,327,o),
(93,303,c),
(68,303,l),
(177,358,l),
(158,314,l),
(136,355,o),
(118,393,o),
(118,430,cs),
(118,464,o),
(133,485,o),
(162,485,cs),
(195,485,o),
(205,456,o),
(205,418,cs),
(205,344,o),
(166,213,o),
(166,131,cs),
(166,36,o),
(218,-10,o),
(289,-10,cs)
);
}
);
width = 996;
},
{
anchors = (
{
name = bottom;
pos = (898,0);
},
{
name = top;
pos = (414,650);
}
);
associatedMasterId = m002;
background = {
shapes = (
{
pos = (10,0);
ref = _daMadu_bawah;
}
);
};
layerId = m003;
name = Bold;
shapes = (
{
pos = (23,0);
ref = _la_tenas;
},
{
closed = 1;
nodes = (
(686,-10,o),
(751,76,o),
(751,214,cs),
(751,227,l),
(681,226,l),
(681,211,ls),
(681,119,o),
(649,62,o),
(592,62,c),
(595,-10,l)
);
},
{
alignment = -1;
pos = (127,0);
ref = _wa_ca_gelungan;
},
{
pos = (10,0);
ref = _daMadu_bawah;
}
);
width = 958;
},
{
anchors = (
{
name = bottom;
pos = (916,0);
},
{
name = top;
pos = (432,650);
}
);
associatedMasterId = m002;
background = {
shapes = (
{
pos = (28,0);
ref = _daMadu_bawah;
}
);
};
layerId = "B74DBB3A-8F7C-4B81-9AA2-BE2E07AA23AB";
name = "21 Aug 23 09.15";
shapes = (
{
pos = (41,0);
ref = _la_tenas;
},
{
closed = 1;
nodes = (
(704,-10,o),
(769,76,o),
(769,224,cs),
(769,227,l),
(699,226,l),
(699,221,ls),
(699,119,o),
(667,62,o),
(610,62,c),
(613,-10,l)
);
},
{
alignment = -1;
pos = (145,0);
ref = _wa_ca_gelungan;
},
{
pos = (28,0);
ref = _daMadu_bawah;
}
);
width = 996;
}
);
metricLeft = "ha-bali";
metricRight = "ha-bali";
unicode = 6949;
}
{
glyphname = "pa-bali";
layers = (
{
anchors = (
{
name = bottom;
pos = (831,0);
},
{
name = top;
pos = (427,650);
}
);
background = {
shapes = (
{
pos = (30,0);
ref = "wa-bali";
}
);
};
layerId = m002;
name = Regular;
shapes = (
{
closed = 1;
nodes = (
(433,-10,ls),
(596,-10,o),
(672,70,o),
(672,231,cs),
(672,502,l),
(665,482,l),
(733,484,o),
(755,447,o),
(755,372,cs),
(755,0,l),
(831,0,l),
(831,376,ls),
(831,498,o),
(786,550,o),
(663,550,cs),
(653,550,l),
(604,507,l),
(604,237,ls),
(604,109,o),
(552,66,o),
(438,66,cs),
(376,66,ls),
(305,66,o),
(255,86,o),
(255,183,cs),
(255,259,o),
(286,374,o),
(286,436,cs),
(286,513,o),
(238,555,o),
(169,555,cs),
(91,555,o),
(49,501,o),
(49,432,cs),
(49,374,o),
(78,327,o),
(93,303,c),
(68,303,l),
(165,352,l),
(158,314,l),
(136,355,o),
(118,393,o),
(118,430,cs),
(118,464,o),
(133,485,o),
(163,485,cs),
(195,485,o),
(205,459,o),
(205,425,cs),
(205,365,o),
(173,251,o),
(173,173,cs),
(173,44,o),
(261,-10,o),
(364,-10,cs)
);
}
);
width = 911;
},
{
associatedMasterId = m002;
background = {
shapes = (
{
pos = (10,0);
ref = "wa-bali";
}
);
};
layerId = "CE4C7E6F-BDEB-40E5-8A5B-0C6FE33E2E58";
name = "2 May 23 14.53";
shapes = (
{
closed = 1;
nodes = (
(519,-10,o),
(620,69,o),
(620,260,cs),
(620,291,l),
(544,291,l),
(544,266,ls),
(544,114,o),
(471,66,o),
(356,66,c),
(344,-10,l)
);
},
{
pos = (30,0);
ref = _ha_tenas_ha;
},
{
alignment = -1;
pos = (-362,0);
ref = _ha_geluungan_ha;
}
);
width = 796;
},
{
associatedMasterId = m002;
background = {
shapes = (
{
pos = (11,0);
ref = "wa-bali";
}
);
};
layerId = "D381F9CB-BECB-4104-A520-66953F839354";
name = "2 May 23 16.06";
shapes = (
{
closed = 1;
nodes = (
(520,-10,o),
(583,87,o),
(583,260,cs),
(583,291,l),
(537,291,l),
(537,266,ls),
(537,124,o),
(472,66,o),
(357,66,c),
(345,-10,l)
);
},
{
pos = (31,0);
ref = _ha_tenas_ha;
},
{
alignment = -1;
pos = (-361,0);
ref = _ha_geluungan_ha;
}
);
width = 790;
},
{
associatedMasterId = m002;
background = {
shapes = (
{
pos = (10,0);
ref = "wa-bali";
}
);
};
layerId = "B94CFCF1-A12C-4766-9DFA-EC55313F5647";
name = Regular;
shapes = (
{
closed = 1;
nodes = (
(519,-10,o),
(620,69,o),
(620,260,cs),
(620,291,l),
(544,291,l),
(544,266,ls),
(544,114,o),
(471,66,o),
(356,66,c),
(344,-10,l)
);
},
{
pos = (30,0);
ref = _ha_tenas_ha;
},
{
alignment = -1;
pos = (-362,0);
ref = _ha_geluungan_ha;
}
);
width = 796;
},
{
associatedMasterId = m002;
background = {
shapes = (
{
pos = (11,0);
ref = "wa-bali";
}
);
};
layerId = "3E0AF9DD-C71C-4034-BB00-77AA8640AE40";
name = Regular;
shapes = (
{
closed = 1;
nodes = (
(520,-10,o),
(583,87,o),
(583,260,cs),
(583,291,l),
(537,291,l),
(537,266,ls),
(537,124,o),
(472,66,o),
(357,66,c),
(345,-10,l)
);
},
{
pos = (31,0);
ref = _ha_tenas_ha;
},
{
alignment = -1;
pos = (-361,0);
ref = _ha_geluungan_ha;
}
);
width = 790;
},
{
anchors = (
{
name = bottom;
pos = (842,0);
},
{
name = top;
pos = (414,650);
}
);
associatedMasterId = m002;
background = {
shapes = (
{
pos = (41,0);
ref = "wa-bali";
}
);
};
layerId = m003;
name = Bold;
shapes = (
{
closed = 1;
nodes = (
(444,-10,ls),
(599,-10,o),
(683,99,o),
(683,260,cs),
(683,291,l),
(615,291,l),
(615,266,ls),
(615,138,o),
(558,66,o),
(449,66,cs),
(387,66,l),
(375,-10,l)
);
},
{
pos = (61,0);
ref = _ha_tenas_ha;
},
{
alignment = -1;
pos = (-302,0);
ref = _ha_geluungan_ha;
}
);
width = 902;
},
{
associatedMasterId = m002;
background = {
shapes = (
{
pos = (10,0);
ref = "wa-bali";
}
);
};
layerId = "4DB57068-6845-4152-837B-0793414BF89B";
name = Bold;
shapes = (
{
closed = 1;
nodes = (
(519,-10,o),
(620,69,o),
(620,260,cs),
(620,291,l),
(544,291,l),
(544,266,ls),
(544,114,o),
(471,66,o),
(356,66,c),
(344,-10,l)
);
},
{
pos = (30,0);
ref = _ha_tenas_ha;
},
{
alignment = -1;
pos = (-362,0);
ref = _ha_geluungan_ha;
}
);
width = 796;
},
{
associatedMasterId = m002;
background = {
shapes = (
{
pos = (11,0);
ref = "wa-bali";
}
);
};
layerId = "99A308E8-A6E0-4065-BB78-1E6C51C5E966";
name = Bold;
shapes = (
{
closed = 1;
nodes = (
(520,-10,o),
(583,87,o),
(583,260,cs),
(583,291,l),
(537,291,l),
(537,266,ls),
(537,124,o),
(472,66,o),
(357,66,c),
(345,-10,l)
);
},
{
pos = (31,0);
ref = _ha_tenas_ha;
},
{
alignment = -1;
pos = (-361,0);
ref = _ha_geluungan_ha;
}
);
width = 790;
}
);
metricLeft = "ha-bali";
metricRight = "ha-bali";
unicode = 6951;
}
{
glyphname = "ma-bali";
layers = (
{
anchors = (
{
name = bottom;
pos = (851,0);
},
{
name = top;
pos = (466,650);
}
);
background = {
shapes = (
{
closed = 1;
nodes = (
(582,-10,o),
(692,80,o),
(692,261,cs),
(692,291,l),
(624,291,l),
(624,266,ls),
(624,123,o),
(548,61,o),
(402,61,cs),
(304,61,o),
(242,89,o),
(242,153,cs),
(242,225,o),
(318,253,o),
(414,265,c),
(406,248,l),
(406,347,l),
(430,319,l),
(305,339,o),
(243,364,o),
(243,416,cs),
(243,451,o),
(271,480,o),
(349,480,cs),
(408,480,o),
(454,463,o),
(495,444,c),
(477,437,l),
(519,521,l),
(521,503,l),
(473,536,o),
(387,555,o),
(307,555,cs),
(291,555,ls),
(167,555,o),
(32,490,o),
(32,320,cs),
(32,267,o),
(45,213,o),
(75,159,c),
(58,168,l),
(135,199,l),
(133,185,l),
(113,230,o),
(100,274,o),
(100,321,cs),
(100,418,o),
(157,493,o),
(257,499,c),
(253,503,l),
(219,491,o),
(182,456,o),
(182,403,cs),
(182,343,o),
(231,307,o),
(297,294,c),
(297,290,l),
(228,273,o),
(171,224,o),
(171,144,cs),
(171,48,o),
(253,-10,o),
(400,-10,cs)
);
}
);
};
layerId = m002;
name = Regular;
shapes = (
{
closed = 1;
nodes = (
(582,-10,o),
(692,80,o),
(692,261,cs),
(692,502,l),
(685,482,l),
(753,484,o),
(775,447,o),
(775,372,cs),
(775,0,l),
(851,0,l),
(851,376,ls),
(851,498,o),
(806,550,o),
(683,550,cs),
(673,550,l),
(624,507,l),
(624,266,ls),
(624,123,o),
(548,61,o),
(402,61,cs),
(304,61,o),
(242,89,o),
(242,153,cs),
(242,225,o),
(318,253,o),
(414,265,c),
(406,248,l),
(406,347,l),
(430,319,l),
(305,339,o),
(254,361,o),
(254,410,cs),
(254,448,o),
(286,480,o),
(363,480,cs),
(401,480,o),
(451,472,o),
(488,462,c),
(464,459,l),
(488,557,l),
(504,531,l),
(441,548,o),
(378,555,o),
(320,555,cs),
(128,555,o),
(32,479,o),
(32,323,cs),
(32,266,o),
(45,213,o),
(75,159,c),
(58,168,l),
(135,199,l),
(133,185,l),
(113,230,o),
(100,278,o),
(100,323,cs),
(100,408,o),
(145,490,o),
(266,498,c),
(262,502,l),
(213,488,o),
(182,449,o),
(182,403,cs),
(182,343,o),
(231,307,o),
(297,294,c),
(297,290,l),
(228,273,o),
(171,224,o),
(171,144,cs),
(171,48,o),
(253,-10,o),
(400,-10,cs)
);
}
);
width = 931;
},
{
associatedMasterId = m002;
background = {
shapes = (
{
closed = 1;
nodes = (
(557,-10,o),
(648,57,o),
(648,181,cs),
(648,517,l),
(628,493,l),
(668,493,ls),
(708,493,o),
(730,473,o),
(730,431,cs),
(730,-5,l),
(783,-5,l),
(783,415,ls),
(783,504,o),
(752,540,o),
(662,540,cs),
(595,540,l),
(595,209,ls),
(595,97,o),
(530,70,o),
(414,70,cs),
(278,70,o),
(227,106,o),
(227,155,cs),
(227,208,o),
(287,252,o),
(421,252,c),
(421,298,l),
(295,298,o),
(227,347,o),
(227,407,cs),
(227,446,o),
(256,486,o),
(353,486,cs),
(402,486,o),
(448,477,o),
(512,441,c),
(527,508,l),
(474,540,o),
(421,555,o),
(355,555,cs),
(221,555,o),
(159,497,o),
(159,403,cs),
(159,334,o),
(195,291,o),
(291,275,c),
(291,274,l),
(195,261,o),
(159,216,o),
(159,150,cs),
(159,62,o),
(230,-10,o),
(414,-10,cs)
);
},
{
closed = 1;
nodes = (
(109,299,l),
(109,376,ls),
(109,476,o),
(162,512,o),
(271,512,cs),
(350,512,l),
(350,555,l),
(262,555,ls),
(121,555,o),
(57,501,o),
(57,372,cs),
(57,299,l)
);
}
);
};
layerId = "D96E6127-E041-4A45-91CE-BC92C2007791";
name = "2 May 23 15.22";
shapes = (
{
closed = 1;
nodes = (
(399,-10,ls),
(618,-10,o),
(672,99,o),
(672,260,cs),
(672,291,l),
(596,291,l),
(596,266,ls),
(596,123,o),
(556,62,o),
(406,62,cs),
(390,62,ls),
(305,62,o),
(247,86,o),
(247,149,cs),
(247,229,o),
(340,255,o),
(451,258,c),
(451,331,l),
(315,337,o),
(248,362,o),
(248,416,cs),
(248,451,o),
(277,483,o),
(350,483,cs),
(423,483,o),
(469,452,o),
(514,410,c),
(465,403,l),
(532,538,l),
(538,479,l),
(494,531,o),
(409,555,o),
(340,555,cs),
(313,555,ls),
(194,555,o),
(50,504,o),
(50,322,cs),
(50,199,l),
(124,199,l),
(124,336,ls),
(124,420,o),
(161,479,o),
(242,495,c),
(244,503,l),
(195,486,o),
(177,446,o),
(177,406,cs),
(177,332,o),
(236,307,o),
(302,294,c),
(302,289,l),
(232,274,o),
(170,220,o),
(170,139,cs),
(170,38,o),
(251,-10,o),
(387,-10,cs)
);
},
{
alignment = -1;
pos = (-302,0);
ref = _ha_geluungan_ha;
}
);
width = 848;
},
{
associatedMasterId = m002;
background = {
shapes = (
{
closed = 1;
nodes = (
(566,-10,o),
(657,57,o),
(657,181,cs),
(657,517,l),
(637,493,l),
(677,493,ls),
(717,493,o),
(739,473,o),
(739,431,cs),
(739,-5,l),
(792,-5,l),
(792,415,ls),
(792,504,o),
(761,540,o),
(671,540,cs),
(604,540,l),
(604,209,ls),
(604,97,o),
(539,70,o),
(423,70,cs),
(287,70,o),
(236,106,o),
(236,155,cs),
(236,208,o),
(296,252,o),
(430,252,c),
(430,298,l),
(304,298,o),
(236,347,o),
(236,407,cs),
(236,446,o),
(265,486,o),
(362,486,cs),
(411,486,o),
(457,477,o),
(521,441,c),
(536,508,l),
(483,540,o),
(430,555,o),
(364,555,cs),
(230,555,o),
(168,497,o),
(168,403,cs),
(168,334,o),
(204,291,o),
(300,275,c),
(300,274,l),
(204,261,o),
(168,216,o),
(168,150,cs),
(168,62,o),
(239,-10,o),
(423,-10,cs)
);
},
{
closed = 1;
nodes = (
(118,299,l),
(118,376,ls),
(118,476,o),
(171,512,o),
(280,512,cs),
(359,512,l),
(359,555,l),
(271,555,ls),
(130,555,o),
(66,501,o),
(66,372,cs),
(66,299,l)
);
}
);
};
layerId = "61D3694B-2868-4ACE-8733-BB197262E9F0";
name = "2 May 23 16.05";
shapes = (
{
closed = 1;
nodes = (
(408,-10,ls),
(597,-10,o),
(651,99,o),
(651,260,cs),
(651,291,l),
(605,291,l),
(605,266,ls),
(605,123,o),
(565,62,o),
(415,62,cs),
(399,62,ls),
(314,62,o),
(256,86,o),
(256,149,cs),
(256,229,o),
(349,255,o),
(460,258,c),
(460,331,l),
(324,337,o),
(257,362,o),
(257,416,cs),
(257,451,o),
(286,483,o),
(359,483,cs),
(432,483,o),
(478,452,o),
(523,410,c),
(474,403,l),
(541,538,l),
(547,479,l),
(503,531,o),
(418,555,o),
(349,555,cs),
(322,555,ls),
(203,555,o),
(59,504,o),
(59,322,cs),
(59,199,l),
(109,199,l),
(109,336,ls),
(109,430,o),
(179,492,o),
(251,495,c),
(253,503,l),
(204,486,o),
(186,446,o),
(186,406,cs),
(186,332,o),
(245,307,o),
(311,294,c),
(311,289,l),
(241,274,o),
(179,220,o),
(179,139,cs),
(179,38,o),
(260,-10,o),
(396,-10,cs)
);
},
{
alignment = -1;
pos = (-293,0);
ref = _ha_geluungan_ha;
}
);
width = 858;
},
{
associatedMasterId = m002;
background = {
shapes = (
{
closed = 1;
nodes = (
(557,-10,o),
(648,57,o),
(648,181,cs),
(648,517,l),
(628,493,l),
(668,493,ls),
(708,493,o),
(730,473,o),
(730,431,cs),
(730,-5,l),
(783,-5,l),
(783,415,ls),
(783,504,o),
(752,540,o),
(662,540,cs),
(595,540,l),
(595,209,ls),
(595,97,o),
(530,70,o),
(414,70,cs),
(278,70,o),
(227,106,o),
(227,155,cs),
(227,208,o),
(287,252,o),
(421,252,c),
(421,298,l),
(295,298,o),
(227,347,o),
(227,407,cs),
(227,446,o),
(256,486,o),
(353,486,cs),
(402,486,o),
(448,477,o),
(512,441,c),
(527,508,l),
(474,540,o),
(421,555,o),
(355,555,cs),
(221,555,o),
(159,497,o),
(159,403,cs),
(159,334,o),
(195,291,o),
(291,275,c),
(291,274,l),
(195,261,o),
(159,216,o),
(159,150,cs),
(159,62,o),
(230,-10,o),
(414,-10,cs)
);
},
{
closed = 1;
nodes = (
(109,299,l),
(109,376,ls),
(109,476,o),
(162,512,o),
(271,512,cs),
(350,512,l),
(350,555,l),
(262,555,ls),
(121,555,o),
(57,501,o),
(57,372,cs),
(57,299,l)
);
}
);
};
layerId = "EBFFA376-2499-4A10-9EC9-D80DBF9E9B2F";
name = Regular;
shapes = (
{
closed = 1;
nodes = (
(399,-10,ls),
(618,-10,o),
(672,99,o),
(672,260,cs),
(672,291,l),
(596,291,l),
(596,266,ls),
(596,123,o),
(556,62,o),
(406,62,cs),
(390,62,ls),
(305,62,o),
(247,86,o),
(247,149,cs),
(247,229,o),
(340,255,o),
(451,258,c),
(451,331,l),
(315,337,o),
(248,362,o),
(248,416,cs),
(248,451,o),
(277,483,o),
(350,483,cs),
(423,483,o),
(469,452,o),
(514,410,c),
(465,403,l),
(532,538,l),
(538,479,l),
(494,531,o),
(409,555,o),
(340,555,cs),
(313,555,ls),
(194,555,o),
(50,504,o),
(50,322,cs),
(50,199,l),
(124,199,l),
(124,336,ls),
(124,420,o),
(161,479,o),
(242,495,c),
(244,503,l),
(195,486,o),
(177,446,o),
(177,406,cs),
(177,332,o),
(236,307,o),
(302,294,c),
(302,289,l),
(232,274,o),
(170,220,o),
(170,139,cs),
(170,38,o),
(251,-10,o),
(387,-10,cs)
);
},
{
alignment = -1;
pos = (-302,0);
ref = _ha_geluungan_ha;
}
);
width = 848;
},
{
associatedMasterId = m002;
background = {
shapes = (
{
closed = 1;
nodes = (
(566,-10,o),
(657,57,o),
(657,181,cs),
(657,517,l),
(637,493,l),
(677,493,ls),
(717,493,o),
(739,473,o),
(739,431,cs),
(739,-5,l),
(792,-5,l),
(792,415,ls),
(792,504,o),
(761,540,o),
(671,540,cs),
(604,540,l),
(604,209,ls),
(604,97,o),
(539,70,o),
(423,70,cs),
(287,70,o),
(236,106,o),
(236,155,cs),
(236,208,o),
(296,252,o),
(430,252,c),
(430,298,l),
(304,298,o),
(236,347,o),
(236,407,cs),
(236,446,o),
(265,486,o),
(362,486,cs),
(411,486,o),
(457,477,o),
(521,441,c),
(536,508,l),
(483,540,o),
(430,555,o),
(364,555,cs),
(230,555,o),
(168,497,o),
(168,403,cs),
(168,334,o),
(204,291,o),
(300,275,c),
(300,274,l),
(204,261,o),
(168,216,o),
(168,150,cs),
(168,62,o),
(239,-10,o),
(423,-10,cs)
);
},
{
closed = 1;
nodes = (
(118,299,l),
(118,376,ls),
(118,476,o),
(171,512,o),
(280,512,cs),
(359,512,l),
(359,555,l),
(271,555,ls),
(130,555,o),
(66,501,o),
(66,372,cs),
(66,299,l)
);
}
);
};
layerId = "F08D685E-9410-44C8-BF62-4DA3C33E6AD8";
name = Regular;
shapes = (
{
closed = 1;
nodes = (
(408,-10,ls),
(597,-10,o),
(651,99,o),
(651,260,cs),
(651,291,l),
(605,291,l),
(605,266,ls),
(605,123,o),
(565,62,o),
(415,62,cs),
(399,62,ls),
(314,62,o),
(256,86,o),
(256,149,cs),
(256,229,o),
(349,255,o),
(460,258,c),
(460,331,l),
(324,337,o),
(257,362,o),
(257,416,cs),
(257,451,o),
(286,483,o),
(359,483,cs),
(432,483,o),
(478,452,o),
(523,410,c),
(474,403,l),
(541,538,l),
(547,479,l),
(503,531,o),
(418,555,o),
(349,555,cs),
(322,555,ls),
(203,555,o),
(59,504,o),
(59,322,cs),
(59,199,l),
(109,199,l),
(109,336,ls),
(109,430,o),
(179,492,o),
(251,495,c),
(253,503,l),
(204,486,o),
(186,446,o),
(186,406,cs),
(186,332,o),
(245,307,o),
(311,294,c),
(311,289,l),
(241,274,o),
(179,220,o),
(179,139,cs),
(179,38,o),
(260,-10,o),
(396,-10,cs)
);
},
{
alignment = -1;
pos = (-293,0);
ref = _ha_geluungan_ha;
}
);
width = 858;
},
{
anchors = (
{
name = bottom;
pos = (851,0);
},
{
name = top;
pos = (454,650);
}
);
associatedMasterId = m002;
background = {
shapes = (
{
closed = 1;
nodes = (
(552,-10,o),
(643,57,o),
(643,181,cs),
(643,517,l),
(623,493,l),
(663,493,ls),
(703,493,o),
(725,473,o),
(725,431,cs),
(725,-5,l),
(778,-5,l),
(778,415,ls),
(778,504,o),
(747,540,o),
(657,540,cs),
(590,540,l),
(590,209,ls),
(590,97,o),
(525,70,o),
(409,70,cs),
(273,70,o),
(222,106,o),
(222,155,cs),
(222,208,o),
(282,252,o),
(416,252,c),
(416,298,l),
(290,298,o),
(222,347,o),
(222,407,cs),
(222,446,o),
(251,486,o),
(348,486,cs),
(397,486,o),
(443,477,o),
(507,441,c),
(522,508,l),
(469,540,o),
(416,555,o),
(350,555,cs),
(216,555,o),
(154,497,o),
(154,403,cs),
(154,334,o),
(190,291,o),
(286,275,c),
(286,274,l),
(190,261,o),
(154,216,o),
(154,150,cs),
(154,62,o),
(225,-10,o),
(409,-10,cs)
);
},
{
closed = 1;
nodes = (
(104,299,l),
(104,376,ls),
(104,476,o),
(157,512,o),
(266,512,cs),
(345,512,l),
(345,555,l),
(257,555,ls),
(116,555,o),
(52,501,o),
(52,372,cs),
(52,299,l)
);
}
);
};
layerId = m003;
name = Bold;
shapes = (
{
closed = 1;
nodes = (
(584,-10,o),
(692,80,o),
(692,261,cs),
(692,291,l),
(624,291,l),
(624,266,ls),
(624,123,o),
(548,61,o),
(401,61,cs),
(304,61,o),
(242,89,o),
(242,153,cs),
(242,225,o),
(318,253,o),
(414,265,c),
(406,248,l),
(406,347,l),
(430,319,l),
(305,339,o),
(243,364,o),
(243,416,cs),
(243,451,o),
(272,480,o),
(345,480,cs),
(410,480,o),
(454,463,o),
(495,444,c),
(477,437,l),
(519,521,l),
(521,491,l),
(473,535,o),
(387,555,o),
(307,555,cs),
(291,555,ls),
(167,555,o),
(32,495,o),
(32,322,cs),
(32,273,o),
(55,208,o),
(89,167,c),
(73,172,l),
(135,199,l),
(133,185,l),
(114,230,o),
(100,267,o),
(100,324,cs),
(100,417,o),
(165,496,o),
(257,499,c),
(253,503,l),
(221,492,o),
(182,456,o),
(182,406,cs),
(182,342,o),
(231,307,o),
(297,294,c),
(297,290,l),
(228,273,o),
(171,221,o),
(171,142,cs),
(171,48,o),
(255,-10,o),
(394,-10,cs)
);
},
{
alignment = -1;
pos = (-293,0);
ref = _ha_geluungan_ha;
}
);
width = 911;
},
{
associatedMasterId = m002;
background = {
shapes = (
{
closed = 1;
nodes = (
(557,-10,o),
(648,57,o),
(648,181,cs),
(648,517,l),
(628,493,l),
(668,493,ls),
(708,493,o),
(730,473,o),
(730,431,cs),
(730,-5,l),
(783,-5,l),
(783,415,ls),
(783,504,o),
(752,540,o),
(662,540,cs),
(595,540,l),
(595,209,ls),
(595,97,o),
(530,70,o),
(414,70,cs),
(278,70,o),
(227,106,o),
(227,155,cs),
(227,208,o),
(287,252,o),
(421,252,c),
(421,298,l),
(295,298,o),
(227,347,o),
(227,407,cs),
(227,446,o),
(256,486,o),
(353,486,cs),
(402,486,o),
(448,477,o),
(512,441,c),
(527,508,l),
(474,540,o),
(421,555,o),
(355,555,cs),
(221,555,o),
(159,497,o),
(159,403,cs),
(159,334,o),
(195,291,o),
(291,275,c),
(291,274,l),
(195,261,o),
(159,216,o),
(159,150,cs),
(159,62,o),
(230,-10,o),
(414,-10,cs)
);
},
{
closed = 1;
nodes = (
(109,299,l),
(109,376,ls),
(109,476,o),
(162,512,o),
(271,512,cs),
(350,512,l),
(350,555,l),
(262,555,ls),
(121,555,o),
(57,501,o),
(57,372,cs),
(57,299,l)
);
}
);
};
layerId = "6013B6F6-FBE5-442C-96E4-930AB215AAFC";
name = Bold;
shapes = (
{
closed = 1;
nodes = (
(399,-10,ls),
(618,-10,o),
(672,99,o),
(672,260,cs),
(672,291,l),
(596,291,l),
(596,266,ls),
(596,123,o),
(556,62,o),
(406,62,cs),
(390,62,ls),
(305,62,o),
(247,86,o),
(247,149,cs),
(247,229,o),
(340,255,o),
(451,258,c),
(451,331,l),
(315,337,o),
(248,362,o),
(248,416,cs),
(248,451,o),
(277,483,o),
(350,483,cs),
(423,483,o),
(469,452,o),
(514,410,c),
(465,403,l),
(532,538,l),
(538,479,l),
(494,531,o),
(409,555,o),
(340,555,cs),
(313,555,ls),
(194,555,o),
(50,504,o),
(50,322,cs),
(50,199,l),
(124,199,l),
(124,336,ls),
(124,420,o),
(161,479,o),
(242,495,c),
(244,503,l),
(195,486,o),
(177,446,o),
(177,406,cs),
(177,332,o),
(236,307,o),
(302,294,c),
(302,289,l),
(232,274,o),
(170,220,o),
(170,139,cs),
(170,38,o),
(251,-10,o),
(387,-10,cs)
);
},
{
alignment = -1;
pos = (-302,0);
ref = _ha_geluungan_ha;
}
);
width = 848;
},
{
associatedMasterId = m002;
background = {
shapes = (
{
closed = 1;
nodes = (
(566,-10,o),
(657,57,o),
(657,181,cs),
(657,517,l),
(637,493,l),
(677,493,ls),
(717,493,o),
(739,473,o),
(739,431,cs),
(739,-5,l),
(792,-5,l),
(792,415,ls),
(792,504,o),
(761,540,o),
(671,540,cs),
(604,540,l),
(604,209,ls),
(604,97,o),
(539,70,o),
(423,70,cs),
(287,70,o),
(236,106,o),
(236,155,cs),
(236,208,o),
(296,252,o),
(430,252,c),
(430,298,l),
(304,298,o),
(236,347,o),
(236,407,cs),
(236,446,o),
(265,486,o),
(362,486,cs),
(411,486,o),
(457,477,o),
(521,441,c),
(536,508,l),
(483,540,o),
(430,555,o),
(364,555,cs),
(230,555,o),
(168,497,o),
(168,403,cs),
(168,334,o),
(204,291,o),
(300,275,c),
(300,274,l),
(204,261,o),
(168,216,o),
(168,150,cs),
(168,62,o),
(239,-10,o),
(423,-10,cs)
);
},
{
closed = 1;
nodes = (
(118,299,l),
(118,376,ls),
(118,476,o),
(171,512,o),
(280,512,cs),
(359,512,l),
(359,555,l),
(271,555,ls),
(130,555,o),
(66,501,o),
(66,372,cs),
(66,299,l)
);
}
);
};
layerId = "AFA2A900-F31D-47E8-A631-D89CDCCB40A6";
name = Bold;
shapes = (
{
closed = 1;
nodes = (
(408,-10,ls),
(597,-10,o),
(651,99,o),
(651,260,cs),
(651,291,l),
(605,291,l),
(605,266,ls),
(605,123,o),
(565,62,o),
(415,62,cs),
(399,62,ls),
(314,62,o),
(256,86,o),
(256,149,cs),
(256,229,o),
(349,255,o),
(460,258,c),
(460,331,l),
(324,337,o),
(257,362,o),
(257,416,cs),
(257,451,o),
(286,483,o),
(359,483,cs),
(432,483,o),
(478,452,o),
(523,410,c),
(474,403,l),
(541,538,l),
(547,479,l),
(503,531,o),
(418,555,o),
(349,555,cs),
(322,555,ls),
(203,555,o),
(59,504,o),
(59,322,cs),
(59,199,l),
(109,199,l),
(109,336,ls),
(109,430,o),
(179,492,o),
(251,495,c),
(253,503,l),
(204,486,o),
(186,446,o),
(186,406,cs),
(186,332,o),
(245,307,o),
(311,294,c),
(311,289,l),
(241,274,o),
(179,220,o),
(179,139,cs),
(179,38,o),
(260,-10,o),
(396,-10,cs)
);
},
{
alignment = -1;
pos = (-293,0);
ref = _ha_geluungan_ha;
}
);
width = 858;
}
);
metricRight = "ha-bali";
unicode = 6955;
}
{
glyphname = "ulu-bali";
layers = (
{
anchors = (
{
name = _top;
pos = (330,630);
},
{
name = dot_ulu_bali;
pos = (307,746);
},
{
name = top;
pos = (801,630);
}
);
layerId = m002;
name = Regular;
shapes = (
{
closed = 1;
nodes = (
(266,699,l),
(277,686,l),
(215,738,o),
(190,784,o),
(190,828,cs),
(190,891,o),
(241,927,o),
(313,927,cs),
(403,927,o),
(441,870,o),
(441,799,cs),
(441,753,o),
(425,700,o),
(404,650,c),
(392,665,l),
(480,637,l),
(468,633,l),
(498,694,o),
(514,755,o),
(514,808,cs),
(514,916,o),
(447,997,o),
(315,997,cs),
(187,997,o),
(119,921,o),
(119,830,cs),
(119,773,o),
(146,725,o),
(208,679,c),
(207,677,l),
(50,758,l),
(81,753,l),
(47,665,l),
(20,682,l),
(242,622,l),
(222,608,l)
);
}
);
width = 574;
},
{
anchors = (
{
name = _top;
pos = (326,630);
},
{
name = dot_ulu_bali;
pos = (303,746);
},
{
name = top;
pos = (797,630);
}
);
associatedMasterId = m002;
layerId = m003;
name = Bold;
shapes = (
{
closed = 1;
nodes = (
(262,699,l),
(263,686,l),
(204,735,o),
(178,784,o),
(178,824,cs),
(178,893,o),
(237,927,o),
(308,927,cs),
(399,927,o),
(437,869,o),
(437,805,cs),
(437,750,o),
(421,700,o),
(400,650,c),
(388,665,l),
(476,637,l),
(464,633,l),
(494,694,o),
(510,755,o),
(510,809,cs),
(510,916,o),
(444,997,o),
(307,997,cs),
(184,997,o),
(116,921,o),
(116,836,cs),
(116,782,o),
(144,723,o),
(204,679,c),
(203,677,l),
(154,693,o),
(108,714,o),
(67,755,c),
(85,753,l),
(46,665,l),
(42,679,l),
(91,656,o),
(161,635,o),
(238,632,c),
(226,625,l)
);
}
);
width = 560;
}
);
unicode = 6966;
}
{
glyphname = "asyuraSasak-bali";
kernLeft = "ka-bali";
layers = (
{
anchors = (
{
name = bottom;
pos = (1594,0);
},
{
name = top;
pos = (846,650);
}
);
layerId = m002;
name = Regular;
shapes = (
{
closed = 1;
nodes = (
(564,-10,o),
(645,37,o),
(646,182,cs),
(648,497,l),
(641,477,l),
(709,479,o),
(735,432,o),
(735,377,cs),
(735,306,o),
(697,228,o),
(697,153,cs),
(697,43,o),
(754,-10,o),
(837,-10,cs),
(963,-10,o),
(1037,109,o),
(1061,351,c),
(1066,351,l),
(1073,141,o),
(1137,-10,o),
(1275,-10,cs),
(1362,-10,o),
(1435,50,o),
(1435,231,cs),
(1435,291,l),
(1367,291,l),
(1367,258,ls),
(1367,107,o),
(1329,66,o),
(1273,66,cs),
(1109,66,o),
(1120,430,o),
(1101,568,c),
(1117,545,l),
(1020,545,l),
(1040,560,l),
(998,242,o),
(957,67,o),
(847,67,cs),
(793,67,o),
(774,110,o),
(774,170,cs),
(774,238,o),
(807,302,o),
(807,371,cs),
(807,473,o),
(753,545,o),
(639,545,cs),
(629,545,l),
(580,502,l),
(580,223,ls),
(580,128,o),
(554,59,o),
(497,59,cs),
(406,59,o),
(385,233,o),
(277,253,c),
(265,188,l),
(344,168,o),
(350,-10,o),
(498,-10,cs)
);
},
{
pos = (-8,0);
ref = _ca_awak;
},
{
alignment = -1;
pos = (-8,0);
ref = _na_tenas;
},
{
pos = (450,0);
ref = _ha_geluungan_ha;
}
);
width = 1674;
},
{
anchors = (
{
name = bottom;
pos = (1594,0);
},
{
name = top;
pos = (393,650);
}
);
associatedMasterId = m002;
layerId = m003;
name = Bold;
shapes = (
{
closed = 1;
nodes = (
(564,-10,o),
(645,37,o),
(646,182,cs),
(648,497,l),
(641,477,l),
(709,479,o),
(735,432,o),
(735,377,cs),
(735,306,o),
(697,228,o),
(697,153,cs),
(697,43,o),
(754,-10,o),
(837,-10,cs),
(963,-10,o),
(1037,109,o),
(1061,351,c),
(1066,351,l),
(1073,141,o),
(1137,-10,o),
(1275,-10,cs),
(1362,-10,o),
(1435,50,o),
(1435,231,cs),
(1435,291,l),
(1367,291,l),
(1367,258,ls),
(1367,107,o),
(1329,66,o),
(1273,66,cs),
(1109,66,o),
(1120,430,o),
(1101,568,c),
(1117,545,l),
(1020,545,l),
(1040,560,l),
(998,242,o),
(957,67,o),
(847,67,cs),
(793,67,o),
(774,110,o),
(774,170,cs),
(774,238,o),
(807,302,o),
(807,371,cs),
(807,473,o),
(753,545,o),
(639,545,cs),
(619,545,ls),
(598,545,o),
(580,527,o),
(580,507,c),
(580,223,ls),
(580,128,o),
(554,59,o),
(497,59,cs),
(406,59,o),
(385,233,o),
(277,253,c),
(265,188,l),
(344,168,o),
(350,-10,o),
(498,-10,cs)
);
},
{
pos = (-8,0);
ref = _ca_awak;
},
{
alignment = -1;
pos = (-8,0);
ref = _na_tenas;
},
{
pos = (450,0);
ref = _ha_geluungan_ha;
}
);
width = 1654;
}
);
metricLeft = "na-bali";
metricRight = "ha-bali";
unicode = 6987;
}
{
glyphname = "zero-bali";
layers = (
{
layerId = m002;
name = Regular;
shapes = (
{
closed = 1;
nodes = (
(442,-10,o),
(553,90,o),
(553,272,cs),
(553,454,o),
(442,555,o),
(309,555,cs),
(173,555,o),
(63,450,o),
(63,272,cs),
(63,93,o),
(174,-10,o),
(309,-10,cs)
);
},
{
closed = 1;
nodes = (
(220,59,o),
(140,115,o),
(140,274,cs),
(140,434,o),
(221,486,o),
(308,486,cs),
(395,486,o),
(474,434,o),
(474,272,cs),
(474,111,o),
(396,59,o),
(310,59,cs)
);
}
);
width = 588;
},
{
associatedMasterId = m002;
layerId = m003;
name = Bold;
shapes = (
{
closed = 1;
nodes = (
(404,60,o),
(467,129,o),
(467,277,cs),
(467,424,o),
(404,493,o),
(304,493,cs),
(204,493,o),
(141,424,o),
(141,277,cs),
(141,129,o),
(204,60,o),
(304,60,cs)
);
},
{
closed = 1;
nodes = (
(241,140,o),
(201,183,o),
(201,277,cs),
(201,370,o),
(241,413,o),
(304,413,cs),
(367,413,o),
(407,370,o),
(407,277,cs),
(407,183,o),
(367,140,o),
(304,140,cs)
);
}
);
width = 600;
}
);
unicode = 6992;
}
{
glyphname = "four-bali";
layers = (
{
layerId = m002;
name = Regular;
shapes = (
{
alignment = -1;
pos = (27,0);
ref = _akara;
}
);
width = 608;
},
{
associatedMasterId = m002;
layerId = m003;
name = Bold;
shapes = (
{
closed = 1;
nodes = (
(378,-10,o),
(446,44,o),
(446,132,cs),
(446,190,o),
(416,243,o),
(336,250,c),
(336,253,l),
(390,272,o),
(411,315,o),
(411,357,cs),
(411,420,o),
(364,448,o),
(314,448,cs),
(276,448,o),
(233,431,o),
(193,382,c),
(213,348,l),
(244,376,o),
(268,394,o),
(298,394,cs),
(327,394,o),
(345,377,o),
(345,351,cs),
(345,314,o),
(307,261,o),
(233,261,c),
(233,227,l),
(338,227,o),
(377,195,o),
(377,144,cs),
(377,89,o),
(332,60,o),
(263,60,cs),
(161,60,o),
(71,126,o),
(71,263,cs),
(71,359,o),
(115,439,o),
(186,480,c),
(158,520,l),
(69,472,o),
(13,382,o),
(13,275,cs),
(13,93,o),
(138,-10,o),
(268,-10,cs)
);
}
);
width = 600;
}
);
metricLeft = "=|nya-bali";
unicode = 6996;
}
{
glyphname = "nine-bali";
layers = (
{
layerId = m002;
name = Regular;
shapes = (
{
closed = 1;
nodes = (
(439,-10,o),
(513,109,o),
(537,351,c),
(542,351,l),
(549,141,o),
(613,-10,o),
(751,-10,cs),
(838,-10,o),
(911,50,o),
(911,231,cs),
(911,559,l),
(896,539,l),
(958,550,o),
(1004,601,o),
(1032,662,c),
(1032,646,l),
(970,683,l),
(988,691,l),
(968,652,o),
(932,612,o),
(902,606,c),
(911,595,l),
(911,650,ls),
(911,765,o),
(860,815,o),
(788,815,cs),
(710,815,o),
(663,755,o),
(665,687,cs),
(668,590,o),
(766,541,o),
(850,541,c),
(843,551,l),
(843,258,ls),
(843,107,o),
(805,66,o),
(749,66,cs),
(585,66,o),
(596,430,o),
(577,568,c),
(593,545,l),
(496,545,l),
(516,560,l),
(474,242,o),
(433,67,o),
(324,67,cs),
(272,67,o),
(255,107,o),
(255,167,cs),
(255,249,o),
(286,376,o),
(286,437,cs),
(286,513,o),
(238,555,o),
(169,555,cs),
(91,555,o),
(49,501,o),
(49,432,cs),
(49,374,o),
(78,327,o),
(93,303,c),
(68,303,l),
(165,352,l),
(158,314,l),
(136,355,o),
(118,393,o),
(118,430,cs),
(118,464,o),
(133,485,o),
(163,485,cs),
(195,485,o),
(205,459,o),
(205,425,cs),
(205,364,o),
(173,252,o),
(173,162,cs),
(173,43,o),
(230,-10,o),
(313,-10,cs)
);
},
{
closed = 1;
nodes = (
(851,603,l),
(780,607,o),
(731,642,o),
(731,693,cs),
(731,727,o),
(752,748,o),
(782,748,cs),
(817,748,o),
(843,718,o),
(843,640,cs),
(843,593,l)
);
}
);
width = 972;
},
{
associatedMasterId = m002;
layerId = m003;
name = Bold;
shapes = (
{
closed = 1;
nodes = (
(415,0,o),
(447,86,o),
(463,202,c),
(464,202,l),
(483,87,o),
(526,0,o),
(614,0,cs),
(701,0,o),
(744,71,o),
(744,186,cs),
(744,545,ls),
(744,660,o),
(713,710,o),
(640,710,cs),
(561,710,o),
(526,647,o),
(528,580,cs),
(532,473,o),
(622,420,o),
(706,420,cs),
(789,420,o),
(844,459,o),
(885,553,c),
(852,584,l),
(814,514,o),
(772,494,o),
(714,494,cs),
(660,494,o),
(583,526,o),
(583,590,cs),
(583,625,o),
(602,647,o),
(632,647,cs),
(664,647,o),
(691,626,o),
(691,545,cs),
(691,184,ls),
(691,103,o),
(656,68,o),
(612,68,cs),
(520,68,o),
(487,237,o),
(487,512,c),
(441,512,l),
(441,237,o),
(409,68,o),
(316,68,cs),
(278,68,o),
(241,96,o),
(241,177,cs),
(241,412,ls),
(241,500,o),
(195,555,o),
(130,555,cs),
(54,555,o),
(18,481,o),
(23,398,c),
(78,398,l),
(78,459,o),
(104,483,o),
(132,483,cs),
(159,483,o),
(190,461,o),
(190,401,cs),
(190,186,ls),
(190,51,o),
(242,0,o),
(318,0,cs)
);
}
);
width = 905;
}
);
metricLeft = "ha-bali";
metricRight = "aikara-bali";
unicode = 7001;
}
{
glyphname = "tegeh-bali";
layers = (
{
anchors = (
{
name = _top;
pos = (272,630);
}
);
layerId = m002;
name = Regular;
shapes = (
{
closed = 1;
nodes = (
(324,626,o),
(363,636,o),
(395,655,c),
(367,702,l),
(343,692,o),
(318,687,o),
(293,687,cs),
(209,687,o),
(172,744,o),
(172,807,cs),
(172,874,o),
(214,931,o),
(317,931,cs),
(336,931,o),
(348,929,o),
(367,923,c),
(380,979,l),
(358,987,o),
(331,992,o),
(301,992,cs),
(167,992,o),
(98,892,o),
(98,797,cs),
(98,712,o),
(153,626,o),
(281,626,cs)
);
}
);
width = 446;
},
{
associatedMasterId = m002;
layerId = m003;
name = Bold;
shapes = (
{
closed = 1;
nodes = (
(274,632,o),
(322,662,o),
(346,718,c),
(322,736,l),
(299,710,o),
(270,694,o),
(238,694,cs),
(196,694,o),
(175,726,o),
(175,759,cs),
(175,796,o),
(200,834,o),
(251,834,cs),
(273,834,o),
(290,826,o),
(299,813,c),
(325,850,l),
(310,875,o),
(281,891,o),
(243,891,cs),
(147,891,o),
(100,819,o),
(100,752,cs),
(100,691,o),
(136,632,o),
(219,632,cs)
);
}
);
width = 446;
}
);
unicode = 7019;
}
{
glyphname = "kempliJegogan-bali";
layers = (
{
anchors = (
{
name = _top;
pos = (310,630);
}
);
layerId = m002;
name = Regular;
shapes = (
{
closed = 1;
nodes = (
(207,628,o),
(266,677,o),
(313,740,c),
(359,677,o),
(418,628,o),
(496,584,c),
(525,632,l),
(458,679,o),
(410,728,o),
(373,784,c),
(251,784,l),
(215,728,o),
(167,679,o),
(100,632,c),
(129,584,l)
);
},
{
pos = (23,0);
ref = "kempli-bali";
}
);
width = 625;
},
{
associatedMasterId = m002;
layerId = m003;
name = Bold;
shapes = (
{
closed = 1;
nodes = (
(207,628,o),
(266,677,o),
(313,740,c),
(359,677,o),
(418,628,o),
(496,584,c),
(525,632,l),
(458,679,o),
(410,728,o),
(373,784,c),
(251,784,l),
(215,728,o),
(167,679,o),
(100,632,c),
(129,584,l)
);
},
{
pos = (23,0);
ref = "kempli-bali";
}
);
width = 625;
}
);
unicode = 7025;
}
{
glyphname = "leftHandClosedPlak-bali";
layers = (
{
layerId = m002;
name = Regular;
shapes = (
{
alignment = 1;
ref = "leftHandOpenPang-bali";
},
{
alignment = -1;
pos = (69,0);
ref = _segtitga_bali;
}
);
width = 516;
},
{
associatedMasterId = m002;
layerId = m003;
name = Bold;
shapes = (
{
ref = "leftHandOpenPang-bali";
},
{
closed = 1;
nodes = (
(389,147,l),
(93,480,l),
(60,446,l),
(362,121,l)
);
}
);
width = 451;
}
);
metricLeft = "leftHandOpenPang-bali";
metricRight = "leftHandOpenPang-bali";
unicode = 7034;
}
{
glyphname = uni1B7E;
layers = (
{
layerId = m002;
shapes = (
{
closed = 1;
nodes = (
(1110,-769,o),
(1212,-615,o),
(1212,-420,cs),
(1212,291,l),
(1144,291,l),
(1144,-419,ls),
(1144,-576,o),
(1070,-699,o),
(940,-699,cs),
(874,-699,o),
(823,-668,o),
(823,-610,cs),
(823,-565,o),
(853,-537,o),
(896,-537,cs),
(923,-537,o),
(964,-547,o),
(1005,-601,c),
(959,-597,l),
(1040,-509,l),
(1042,-557,l),
(1002,-488,o),
(935,-466,o),
(878,-466,cs),
(697,-466,o),
(620,-686,o),
(394,-686,cs),
(245,-686,o),
(170,-590,o),
(170,-468,cs),
(170,-379,o),
(210,-277,o),
(297,-187,c),
(298,-228,l),
(190,-158,l),
(238,-160,l),
(144,-261,o),
(100,-375,o),
(100,-477,cs),
(100,-621,o),
(188,-754,o),
(391,-754,cs),
(629,-754,o),
(700,-571,o),
(830,-530,c),
(825,-493,l),
(779,-517,o),
(748,-562,o),
(748,-620,cs),
(748,-712,o),
(825,-769,o),
(933,-769,cs)
);
},
{
ref = "nga-bali";
},
{
alignment = -1;
pos = (505,-659);
ref = _ha_bangkiang;
},
{
closed = 1;
nodes = (
(2144,-542,l),
(2149,-560,l),
(1495,-146,o),
(1028,-21,o),
(794,-21,cs),
(657,-21,o),
(571,-64,o),
(571,-152,cs),
(571,-260,o),
(698,-268,o),
(698,-342,cs),
(698,-377,o),
(670,-393,o),
(635,-393,cs),
(578,-393,o),
(520,-350,o),
(497,-253,c),
(558,-282,l),
(434,-344,l),
(451,-262,l),
(453,-386,o),
(538,-457,o),
(637,-457,cs),
(710,-457,o),
(769,-419,o),
(769,-342,cs),
(769,-229,o),
(643,-214,o),
(643,-150,cs),
(643,-104,o),
(707,-86,o),
(795,-86,cs),
(1017,-86,o),
(1475,-202,o),
(2128,-596,c),
(2106,-600,l)
);
},
{
closed = 1;
nodes = (
(1371,-368,l),
(1371,0,l),
(1364,10,l),
(1300,10,l),
(1295,0,l),
(1295,-368,l)
);
},
{
alignment = -1;
pos = (813,-459);
ref = _ha_bangkiang;
},
{
closed = 1;
nodes = (
(1520,-368,l),
(1520,291,l),
(1452,291,l),
(1452,-368,l)
);
},
{
pos = (227,0);
ref = _ha_geluungan_ha;
},
{
closed = 1;
nodes = (
(1679,-168,l),
(1679,0,l),
(1672,10,l),
(1608,10,l),
(1603,0,l),
(1603,-168,l)
);
},
{
pos = (535,0);
ref = _ha_geluungan_ha;
},
{
closed = 1;
nodes = (
(1828,-168,l),
(1828,291,l),
(1760,291,l),
(1760,-168,l)
);
},
{
alignment = -1;
pos = (1121,-259);
ref = _ha_bangkiang;
},
{
pos = (843,0);
ref = _ha_geluungan_ha;
},
{
alignment = -1;
pos = (1429,-59);
ref = _ha_bangkiang;
},
{
closed = 1;
nodes = (
(2136,32,l),
(2136,502,l),
(2129,482,l),
(2197,484,o),
(2219,447,o),
(2219,372,cs),
(2219,232,l),
(2295,232,l),
(2295,376,ls),
(2295,498,o),
(2250,550,o),
(2127,550,cs),
(2117,550,l),
(2068,507,l),
(2068,32,l)
);
},
{
closed = 1;
nodes = (
(2739,90,o),
(2784,127,o),
(2784,191,cs),
(2784,269,o),
(2748,369,o),
(2748,432,cs),
(2748,459,o),
(2762,474,o),
(2788,474,cs),
(2870,474,o),
(2946,223,o),
(3141,223,cs),
(3246,223,o),
(3288,292,o),
(3288,361,cs),
(3288,431,o),
(3241,496,o),
(3152,496,cs),
(3117,496,o),
(3084,490,o),
(3048,478,c),
(3057,496,l),
(3073,414,l),
(3057,427,l),
(3087,433,o),
(3114,436,o),
(3138,436,cs),
(3193,436,o),
(3222,408,o),
(3222,364,cs),
(3222,326,o),
(3197,287,o),
(3135,287,cs),
(2979,287,o),
(2919,541,o),
(2784,541,cs),
(2722,541,o),
(2684,496,o),
(2684,437,cs),
(2684,347,o),
(2717,263,o),
(2717,198,cs),
(2717,181,o),
(2708,158,o),
(2680,158,cs),
(2655,158,o),
(2641,175,o),
(2631,223,cs),
(2597,386,ls),
(2574,496,o),
(2534,550,o),
(2435,550,cs),
(2425,550,l),
(2376,507,l),
(2376,232,l),
(2444,232,l),
(2444,502,l),
(2437,482,l),
(2494,484,o),
(2515,446,o),
(2530,372,cs),
(2564,206,ls),
(2580,130,o),
(2613,90,o),
(2676,90,cs)
);
}
);
width = 3308;
},
{
associatedMasterId = m002;
layerId = "94A38ED6-634B-4C65-A93F-17CED96EAA28";
name = "17 Aug 23 16.46";
shapes = (
{
ref = "nga-bali";
},
{
closed = 1;
nodes = (
(561,-551,o),
(649,-542,o),
(726,-530,c),
(721,-493,l),
(675,-517,o),
(644,-563,o),
(644,-618,cs),
(644,-712,o),
(732,-769,o),
(875,-769,cs),
(1072,-769,o),
(1198,-662,o),
(1198,-420,cs),
(1198,291,l),
(1130,291,l),
(1130,-419,ls),
(1130,-606,o),
(1050,-699,o),
(873,-699,cs),
(771,-699,o),
(719,-668,o),
(719,-610,cs),
(719,-565,o),
(749,-537,o),
(792,-537,cs),
(819,-537,o),
(860,-547,o),
(901,-601,c),
(855,-597,l),
(936,-509,l),
(938,-557,l),
(896,-486,o),
(831,-466,o),
(770,-466,cs),
(705,-466,o),
(603,-488,o),
(494,-488,cs),
(268,-488,o),
(81,-393,o),
(-46,-145,c),
(0,-155,l),
(-119,-217,l),
(-102,-176,l),
(6,-416,o),
(219,-551,o),
(491,-551,cs)
);
}
);
width = 1141;
},
{
associatedMasterId = m002;
layerId = "358F8BA9-5DBA-4D1F-9B71-AA65A62F5743";
name = "17 Aug 23 16.46";
shapes = (
{
ref = "nga-bali";
},
{
closed = 1;
nodes = (
(-80,-380,o),
(-120,-404,o),
(-200,-429,cs),
(-246,-443,o),
(-302,-459,o),
(-363,-469,cs),
(-643,-510,o),
(-958,-494,o),
(-1136,-145,c),
(-1090,-155,l),
(-1209,-217,l),
(-1192,-176,l),
(-1058,-477,o),
(-750,-592,o),
(-364,-530,c),
(-361,-493,l),
(-407,-517,o),
(-447,-564,o),
(-447,-623,cs),
(-447,-713,o),
(-355,-769,o),
(-225,-769,cs),
(-14,-769,o),
(108,-662,o),
(108,-420,cs),
(108,291,l),
(40,291,l),
(40,-419,ls),
(40,-612,o),
(-40,-699,o),
(-230,-699,cs),
(-312,-699,o),
(-371,-669,o),
(-371,-609,cs),
(-371,-518,o),
(-269,-515,o),
(-177,-484,cs),
(-109,-462,o),
(-58,-436,o),
(15,-364,c),
(-10,-413,l),
(-92,-319,l),
(-20,-325,l)
);
}
);
width = 1141;
},
{
associatedMasterId = m002;
layerId = "59A901EE-F461-40CC-9AAE-14F7890FF997";
name = "17 Aug 23 16.47";
shapes = (
{
ref = "nga-bali";
},
{
closed = 1;
nodes = (
(-80,-380,o),
(-120,-404,o),
(-200,-429,cs),
(-246,-443,o),
(-302,-459,o),
(-363,-469,cs),
(-643,-510,o),
(-958,-494,o),
(-1136,-145,c),
(-1090,-155,l),
(-1209,-217,l),
(-1192,-176,l),
(-1058,-477,o),
(-750,-592,o),
(-364,-530,c),
(-361,-493,l),
(-407,-517,o),
(-447,-564,o),
(-447,-623,cs),
(-447,-713,o),
(-355,-769,o),
(-225,-769,cs),
(-14,-769,o),
(108,-662,o),
(108,-420,cs),
(108,291,l),
(40,291,l),
(40,-419,ls),
(40,-612,o),
(-40,-699,o),
(-230,-699,cs),
(-312,-699,o),
(-371,-669,o),
(-371,-609,cs),
(-371,-518,o),
(-269,-515,o),
(-177,-484,cs),
(-109,-462,o),
(-58,-436,o),
(15,-364,c),
(-10,-413,l),
(-92,-319,l),
(-20,-325,l)
);
}
);
width = 1141;
},
{
associatedMasterId = m002;
layerId = "ECAD43F9-609F-4658-A94F-DD0A4F1D3FD8";
name = "17 Aug 23 16.47";
shapes = (
{
ref = "nga-bali";
},
{
closed = 1;
nodes = (
(-1030,-506,o),
(-1030,-211,cs),
(-1030,-161,o),
(-1019,-117,o),
(-1003,-76,c),
(-991,-96,l),
(-1083,-71,l),
(-1063,-62,l),
(-1086,-118,o),
(-1097,-171,o),
(-1097,-225,cs),
(-1097,-561,o),
(-671,-580,o),
(-364,-530,c),
(-361,-493,l),
(-407,-517,o),
(-447,-564,o),
(-447,-624,cs),
(-447,-713,o),
(-359,-769,o),
(-216,-769,cs),
(-18,-769,o),
(108,-662,o),
(108,-420,cs),
(108,291,l),
(40,291,l),
(40,-419,ls),
(40,-606,o),
(-40,-699,o),
(-218,-699,cs),
(-319,-699,o),
(-371,-669,o),
(-371,-607,cs),
(-371,-522,o),
(-274,-515,o),
(-177,-484,cs),
(-109,-462,o),
(-58,-436,o),
(15,-364,c),
(-10,-413,l),
(-92,-319,l),
(-20,-325,l),
(-83,-382,o),
(-116,-402,o),
(-200,-429,cs),
(-247,-444,o),
(-294,-457,o),
(-365,-469,cs),
(-646,-517,o)
);
}
);
width = 1141;
},
{
associatedMasterId = m002;
layerId = "F78EA231-CF80-41B1-A6C8-D2A355A11A56";
name = "17 Aug 23 16.47";
shapes = (
{
ref = "nga-bali";
},
{
closed = 1;
nodes = (
(-160,-557,l),
(-201,-486,o),
(-261,-466,o),
(-317,-466,cs),
(-391,-466,o),
(-481,-488,o),
(-597,-488,cs),
(-818,-488,o),
(-1030,-428,o),
(-1030,-211,cs),
(-1030,-161,o),
(-1019,-117,o),
(-1003,-76,c),
(-991,-96,l),
(-1083,-71,l),
(-1063,-62,l),
(-1086,-118,o),
(-1097,-171,o),
(-1097,-225,cs),
(-1097,-477,o),
(-857,-551,o),
(-608,-551,cs),
(-525,-551,o),
(-441,-542,o),
(-364,-530,c),
(-369,-493,l),
(-415,-517,o),
(-446,-564,o),
(-446,-615,cs),
(-446,-713,o),
(-358,-769,o),
(-216,-769,cs),
(-18,-769,o),
(108,-662,o),
(108,-420,cs),
(108,291,l),
(40,291,l),
(40,-419,ls),
(40,-606,o),
(-40,-699,o),
(-218,-699,cs),
(-319,-699,o),
(-371,-669,o),
(-371,-607,cs),
(-371,-566,o),
(-340,-536,o),
(-297,-536,cs),
(-270,-536,o),
(-230,-547,o),
(-189,-601,c),
(-235,-597,l),
(-154,-522,l)
);
}
);
width = 1141;
},
{
associatedMasterId = m002;
layerId = "8F745277-3150-4E8E-95DD-C362DB17B273";
name = "17 Aug 23 16.51";
shapes = (
{
closed = 1;
nodes = (
(1056,-769,o),
(1182,-662,o),
(1182,-420,cs),
(1182,291,l),
(1114,291,l),
(1114,-419,ls),
(1114,-606,o),
(1034,-699,o),
(857,-699,cs),
(755,-699,o),
(703,-668,o),
(703,-610,cs),
(703,-565,o),
(733,-537,o),
(776,-537,cs),
(803,-537,o),
(844,-547,o),
(885,-601,c),
(839,-597,l),
(920,-509,l),
(922,-557,l),
(880,-486,o),
(815,-466,o),
(754,-466,cs),
(689,-466,o),
(587,-488,o),
(488,-488,cs),
(292,-488,o),
(129,-447,o),
(48,-145,c),
(94,-179,l),
(-25,-217,l),
(-4,-166,l),
(56,-470,o),
(243,-551,o),
(485,-551,cs),
(545,-551,o),
(633,-542,o),
(710,-530,c),
(705,-493,l),
(659,-517,o),
(628,-563,o),
(628,-618,cs),
(628,-712,o),
(716,-769,o),
(859,-769,cs)
);
},
{
closed = 1;
nodes = (
(922,-441,o),
(969,-394,o),
(969,-329,cs),
(969,-205,o),
(794,-209,o),
(794,-137,cs),
(794,-112,o),
(814,-84,o),
(882,-84,cs),
(1033,-84,o),
(1198,-222,o),
(1422,-434,c),
(1402,-431,l),
(1463,-364,l),
(1458,-384,l),
(1254,-180,o),
(1059,-21,o),
(883,-21,cs),
(777,-21,o),
(724,-79,o),
(724,-142,cs),
(724,-256,o),
(898,-247,o),
(898,-327,cs),
(898,-354,o),
(878,-377,o),
(839,-377,cs),
(789,-377,o),
(733,-349,o),
(675,-286,c),
(690,-287,l),
(633,-347,l),
(632,-327,l),
(687,-391,o),
(760,-441,o),
(842,-441,cs)
);
},
{
ref = "nga-bali";
},
{
closed = 1;
nodes = (
(1341,-759,l),
(1341,0,l),
(1334,10,l),
(1270,10,l),
(1265,0,l),
(1265,-759,l)
);
},
{
pos = (197,0);
ref = _ha_geluungan_ha;
}
);
width = 1267;
},
{
associatedMasterId = m002;
layerId = "A62A287C-A418-4C56-97CD-7B705A0A6C50";
name = "17 Aug 23 16.58";
shapes = (
{
closed = 1;
nodes = (
(1056,-769,o),
(1182,-662,o),
(1182,-420,cs),
(1182,291,l),
(1114,291,l),
(1114,-419,ls),
(1114,-606,o),
(1034,-699,o),
(857,-699,cs),
(755,-699,o),
(703,-668,o),
(703,-610,cs),
(703,-565,o),
(733,-537,o),
(776,-537,cs),
(803,-537,o),
(844,-547,o),
(885,-601,c),
(839,-597,l),
(920,-509,l),
(922,-557,l),
(880,-486,o),
(815,-466,o),
(754,-466,cs),
(689,-466,o),
(591,-492,o),
(448,-492,cs),
(240,-492,o),
(70,-419,o),
(70,-211,cs),
(70,-161,o),
(81,-117,o),
(97,-76,c),
(109,-96,l),
(17,-71,l),
(37,-62,l),
(14,-118,o),
(3,-171,o),
(3,-225,cs),
(3,-470,o),
(210,-555,o),
(445,-555,cs),
(545,-555,o),
(633,-542,o),
(710,-530,c),
(705,-493,l),
(659,-517,o),
(628,-563,o),
(628,-618,cs),
(628,-712,o),
(716,-769,o),
(859,-769,cs)
);
},
{
ref = "nga-bali";
},
{
closed = 1;
nodes = (
(1341,-468,l),
(1341,0,l),
(1334,10,l),
(1270,10,l),
(1265,0,l),
(1265,-468,l)
);
},
{
pos = (197,0);
ref = _ha_geluungan_ha;
},
{
alignment = -1;
pos = (475,-659);
ref = _ha_bangkiang;
},
{
alignment = -1;
pos = (750,-459);
ref = _ha_bangkiang;
},
{
alignment = -1;
pos = (1025,-259);
ref = _ha_bangkiang;
},
{
alignment = -1;
pos = (1300,-59);
ref = _ha_bangkiang;
},
{
alignment = -1;
pos = (1575,141);
ref = _ha_bangkiang;
},
{
closed = 1;
nodes = (
(893,-432,o),
(940,-385,o),
(940,-320,cs),
(940,-196,o),
(765,-200,o),
(765,-128,cs),
(765,-103,o),
(785,-75,o),
(853,-75,cs),
(1004,-75,o),
(1169,-213,o),
(1393,-425,c),
(1373,-422,l),
(1434,-355,l),
(1429,-375,l),
(1225,-171,o),
(1030,-12,o),
(854,-12,cs),
(748,-12,o),
(695,-70,o),
(695,-133,cs),
(695,-247,o),
(869,-238,o),
(869,-318,cs),
(869,-345,o),
(849,-368,o),
(810,-368,cs),
(754,-368,o),
(684,-317,o),
(626,-253,c),
(649,-260,l),
(588,-323,l),
(571,-277,l),
(629,-359,o),
(714,-432,o),
(813,-432,cs)
);
}
);
width = 2610;
},
{
associatedMasterId = m002;
layerId = "581776F9-A48B-4FC2-BEAF-D353E6CBE098";
name = "17 Aug 23 17.38";
shapes = (
{
closed = 1;
nodes = (
(1079,-769,o),
(1182,-615,o),
(1182,-420,cs),
(1182,291,l),
(1114,291,l),
(1114,-419,ls),
(1114,-576,o),
(1040,-699,o),
(910,-699,cs),
(844,-699,o),
(793,-668,o),
(793,-610,cs),
(793,-565,o),
(823,-537,o),
(866,-537,cs),
(893,-537,o),
(934,-547,o),
(975,-601,c),
(929,-597,l),
(1010,-509,l),
(1012,-557,l),
(972,-488,o),
(905,-466,o),
(847,-466,cs),
(665,-466,o),
(576,-686,o),
(360,-686,cs),
(217,-686,o),
(140,-590,o),
(140,-467,cs),
(140,-379,o),
(180,-277,o),
(267,-187,c),
(268,-228,l),
(160,-158,l),
(208,-160,l),
(114,-261,o),
(70,-375,o),
(70,-476,cs),
(70,-631,o),
(173,-754,o),
(350,-754,cs),
(582,-754,o),
(720,-543,o),
(800,-530,c),
(795,-493,l),
(749,-517,o),
(718,-563,o),
(718,-618,cs),
(718,-712,o),
(806,-769,o),
(909,-769,cs)
);
},
{
ref = "nga-bali";
},
{
closed = 1;
nodes = (
(1341,-368,l),
(1341,0,l),
(1334,10,l),
(1270,10,l),
(1265,0,l),
(1265,-368,l)
);
},
{
pos = (197,0);
ref = _ha_geluungan_ha;
},
{
alignment = -1;
pos = (475,-659);
ref = _ha_bangkiang;
},
{
alignment = -1;
pos = (783,-459);
ref = _ha_bangkiang;
},
{
alignment = -1;
pos = (1091,-259);
ref = _ha_bangkiang;
},
{
alignment = -1;
pos = (1399,-59);
ref = _ha_bangkiang;
},
{
alignment = -1;
pos = (1641,141);
ref = _ha_bangkiang;
},
{
closed = 1;
nodes = (
(680,-456,o),
(729,-399,o),
(729,-334,cs),
(729,-210,o),
(576,-206,o),
(576,-134,cs),
(576,-109,o),
(596,-76,o),
(660,-76,cs),
(853,-76,o),
(1516,-253,o),
(2041,-790,c),
(2090,-773,l),
(1578,-211,o),
(902,-11,o),
(662,-11,cs),
(547,-11,o),
(506,-81,o),
(506,-135,cs),
(506,-258,o),
(658,-252,o),
(658,-332,cs),
(658,-359,o),
(641,-392,o),
(595,-392,cs),
(539,-392,o),
(480,-349,o),
(477,-252,c),
(518,-281,l),
(394,-333,l),
(417,-261,l),
(418,-382,o),
(505,-456,o),
(592,-456,cs)
);
},
{
closed = 1;
nodes = (
(1649,-168,l),
(1649,0,l),
(1642,10,l),
(1578,10,l),
(1573,0,l),
(1573,-168,l)
);
},
{
pos = (505,0);
ref = _ha_geluungan_ha;
},
{
closed = 1;
nodes = (
(1490,-368,l),
(1490,291,l),
(1422,291,l),
(1422,-368,l)
);
},
{
pos = (813,0);
ref = _ha_geluungan_ha;
},
{
closed = 1;
nodes = (
(1798,-168,l),
(1798,291,l),
(1730,291,l),
(1730,-168,l)
);
},
{
pos = (1121,0);
ref = _ha_geluungan_ha;
},
{
closed = 1;
nodes = (
(2106,32,l),
(2106,291,l),
(2038,291,l),
(2038,32,l)
);
}
);
width = 2610;
},
{
associatedMasterId = m002;
layerId = "388A27BE-BAB5-4467-B180-516103E1B27E";
name = "18 Aug 23 10.48";
shapes = (
{
closed = 1;
nodes = (
(1079,-769,o),
(1182,-615,o),
(1182,-420,cs),
(1182,291,l),
(1114,291,l),
(1114,-419,ls),
(1114,-576,o),
(1040,-699,o),
(910,-699,cs),
(844,-699,o),
(793,-668,o),
(793,-610,cs),
(793,-565,o),
(823,-537,o),
(866,-537,cs),
(893,-537,o),
(934,-547,o),
(975,-601,c),
(929,-597,l),
(1010,-509,l),
(1012,-557,l),
(972,-488,o),
(905,-466,o),
(847,-466,cs),
(665,-466,o),
(576,-686,o),
(360,-686,cs),
(217,-686,o),
(140,-590,o),
(140,-467,cs),
(140,-379,o),
(180,-277,o),
(267,-187,c),
(268,-228,l),
(160,-158,l),
(208,-160,l),
(114,-261,o),
(70,-375,o),
(70,-476,cs),
(70,-631,o),
(173,-754,o),
(350,-754,cs),
(582,-754,o),
(720,-543,o),
(800,-530,c),
(795,-493,l),
(749,-517,o),
(718,-563,o),
(718,-618,cs),
(718,-712,o),
(806,-769,o),
(909,-769,cs)
);
},
{
ref = "nga-bali";
},
{
alignment = -1;
pos = (475,-659);
ref = _ha_bangkiang;
},
{
closed = 1;
nodes = (
(2124,-555,l),
(2129,-573,l),
(1482,-163,o),
(1018,-34,o),
(781,-34,cs),
(645,-34,o),
(551,-76,o),
(551,-174,cs),
(551,-287,o),
(678,-269,o),
(678,-345,cs),
(678,-372,o),
(662,-406,o),
(614,-406,cs),
(559,-406,o),
(500,-363,o),
(477,-266,c),
(538,-295,l),
(414,-357,l),
(431,-275,l),
(432,-396,o),
(518,-470,o),
(614,-470,cs),
(694,-470,o),
(749,-419,o),
(749,-343,cs),
(749,-229,o),
(623,-236,o),
(623,-170,cs),
(623,-122,o),
(689,-99,o),
(785,-99,cs),
(1007,-99,o),
(1467,-221,o),
(2108,-609,c),
(2086,-613,l)
);
},
{
closed = 1;
nodes = (
(1341,-368,l),
(1341,0,l),
(1334,10,l),
(1270,10,l),
(1265,0,l),
(1265,-368,l)
);
},
{
alignment = -1;
pos = (783,-459);
ref = _ha_bangkiang;
},
{
closed = 1;
nodes = (
(1490,-368,l),
(1490,291,l),
(1422,291,l),
(1422,-368,l)
);
},
{
pos = (197,0);
ref = _ha_geluungan_ha;
},
{
closed = 1;
nodes = (
(1649,-168,l),
(1649,0,l),
(1642,10,l),
(1578,10,l),
(1573,0,l),
(1573,-168,l)
);
},
{
pos = (505,0);
ref = _ha_geluungan_ha;
},
{
closed = 1;
nodes = (
(1798,-168,l),
(1798,291,l),
(1730,291,l),
(1730,-168,l)
);
},
{
alignment = -1;
pos = (1091,-259);
ref = _ha_bangkiang;
},
{
pos = (813,0);
ref = _ha_geluungan_ha;
},
{
alignment = -1;
pos = (1399,-59);
ref = _ha_bangkiang;
},
{
closed = 1;
nodes = (
(2106,32,l),
(2106,502,l),
(2099,482,l),
(2167,484,o),
(2189,447,o),
(2189,372,cs),
(2189,232,l),
(2265,232,l),
(2265,376,ls),
(2265,498,o),
(2220,550,o),
(2097,550,cs),
(2087,550,l),
(2038,507,l),
(2038,32,l)
);
},
{
closed = 1;
nodes = (
(2729,90,o),
(2766,127,o),
(2766,190,cs),
(2766,269,o),
(2731,336,o),
(2731,424,cs),
(2731,450,o),
(2743,465,o),
(2764,465,cs),
(2841,465,o),
(2894,216,o),
(3078,216,cs),
(3179,216,o),
(3226,282,o),
(3226,347,cs),
(3226,412,o),
(3180,476,o),
(3093,476,cs),
(3046,476,o),
(3004,466,o),
(2950,443,c),
(2989,520,l),
(3016,385,l),
(2973,402,l),
(3014,411,o),
(3048,416,o),
(3079,416,cs),
(3134,416,o),
(3163,379,o),
(3163,344,cs),
(3163,310,o),
(3137,278,o),
(3084,278,cs),
(2931,278,o),
(2893,541,o),
(2759,541,cs),
(2700,541,o),
(2664,505,o),
(2664,420,cs),
(2664,348,o),
(2698,263,o),
(2698,198,cs),
(2698,181,o),
(2690,158,o),
(2662,158,cs),
(2620,158,o),
(2612,209,o),
(2588,355,cs),
(2573,446,o),
(2551,535,o),
(2455,535,cs),
(2388,535,o),
(2346,486,o),
(2346,395,cs),
(2346,232,l),
(2414,232,l),
(2414,352,ls),
(2414,424,o),
(2419,463,o),
(2455,463,cs),
(2494,463,o),
(2507,416,o),
(2518,337,cs),
(2541,179,o),
(2564,90,o),
(2657,90,cs)
);
}
);
width = 3252;
},
{
associatedMasterId = m002;
layerId = "3A55FF7C-80F6-4B35-9F75-CCAF816D1443";
name = "18 Aug 23 10.56";
shapes = (
{
closed = 1;
nodes = (
(1109,-769,o),
(1212,-615,o),
(1212,-420,cs),
(1212,291,l),
(1144,291,l),
(1144,-419,ls),
(1144,-576,o),
(1070,-699,o),
(940,-699,cs),
(874,-699,o),
(823,-668,o),
(823,-610,cs),
(823,-565,o),
(853,-537,o),
(896,-537,cs),
(923,-537,o),
(964,-547,o),
(1005,-601,c),
(959,-597,l),
(1040,-509,l),
(1042,-557,l),
(1002,-488,o),
(935,-466,o),
(877,-466,cs),
(695,-466,o),
(606,-686,o),
(390,-686,cs),
(247,-686,o),
(170,-590,o),
(170,-467,cs),
(170,-379,o),
(210,-277,o),
(297,-187,c),
(298,-228,l),
(190,-158,l),
(238,-160,l),
(144,-261,o),
(100,-375,o),
(100,-476,cs),
(100,-631,o),
(203,-754,o),
(380,-754,cs),
(612,-754,o),
(750,-543,o),
(830,-530,c),
(825,-493,l),
(779,-517,o),
(748,-563,o),
(748,-618,cs),
(748,-712,o),
(836,-769,o),
(939,-769,cs)
);
},
{
ref = "nga-bali";
},
{
alignment = -1;
pos = (505,-659);
ref = _ha_bangkiang;
},
{
closed = 1;
nodes = (
(2144,-542,l),
(2149,-560,l),
(1502,-150,o),
(1038,-21,o),
(801,-21,cs),
(665,-21,o),
(571,-63,o),
(571,-161,cs),
(571,-274,o),
(698,-256,o),
(698,-332,cs),
(698,-359,o),
(682,-393,o),
(634,-393,cs),
(579,-393,o),
(520,-350,o),
(497,-253,c),
(558,-282,l),
(434,-344,l),
(451,-262,l),
(452,-383,o),
(538,-457,o),
(634,-457,cs),
(714,-457,o),
(769,-406,o),
(769,-330,cs),
(769,-216,o),
(643,-223,o),
(643,-157,cs),
(643,-109,o),
(709,-86,o),
(805,-86,cs),
(1027,-86,o),
(1487,-208,o),
(2128,-596,c),
(2106,-600,l)
);
},
{
closed = 1;
nodes = (
(1371,-368,l),
(1371,0,l),
(1364,10,l),
(1300,10,l),
(1295,0,l),
(1295,-368,l)
);
},
{
alignment = -1;
pos = (813,-459);
ref = _ha_bangkiang;
},
{
closed = 1;
nodes = (
(1520,-368,l),
(1520,291,l),
(1452,291,l),
(1452,-368,l)
);
},
{
pos = (227,0);
ref = _ha_geluungan_ha;
},
{
closed = 1;
nodes = (
(1679,-168,l),
(1679,0,l),
(1672,10,l),
(1608,10,l),
(1603,0,l),
(1603,-168,l)
);
},
{
pos = (535,0);
ref = _ha_geluungan_ha;
},
{
closed = 1;
nodes = (
(1828,-168,l),
(1828,291,l),
(1760,291,l),
(1760,-168,l)
);
},
{
alignment = -1;
pos = (1121,-259);
ref = _ha_bangkiang;
},
{
pos = (843,0);
ref = _ha_geluungan_ha;
},
{
alignment = -1;
pos = (1429,-59);
ref = _ha_bangkiang;
},
{
closed = 1;
nodes = (
(2136,32,l),
(2136,502,l),
(2129,482,l),
(2197,484,o),
(2219,447,o),
(2219,372,cs),
(2219,232,l),
(2295,232,l),
(2295,376,ls),
(2295,498,o),
(2250,550,o),
(2127,550,cs),
(2117,550,l),
(2068,507,l),
(2068,32,l)
);
},
{
closed = 1;
nodes = (
(2739,90,o),
(2784,127,o),
(2784,191,cs),
(2784,269,o),
(2748,369,o),
(2748,432,cs),
(2748,459,o),
(2759,474,o),
(2781,474,cs),
(2867,474,o),
(2946,223,o),
(3141,223,cs),
(3246,223,o),
(3288,292,o),
(3288,361,cs),
(3288,431,o),
(3241,496,o),
(3152,496,cs),
(3117,496,o),
(3084,490,o),
(3048,478,c),
(3057,496,l),
(3073,414,l),
(3057,427,l),
(3087,433,o),
(3114,436,o),
(3138,436,cs),
(3193,436,o),
(3222,408,o),
(3222,364,cs),
(3222,326,o),
(3197,287,o),
(3135,287,cs),
(2979,287,o),
(2916,541,o),
(2776,541,cs),
(2719,541,o),
(2684,496,o),
(2684,437,cs),
(2684,347,o),
(2717,263,o),
(2717,198,cs),
(2717,181,o),
(2708,158,o),
(2680,158,cs),
(2655,158,o),
(2640,175,o),
(2631,223,cs),
(2600,386,ls),
(2579,496,o),
(2537,550,o),
(2435,550,cs),
(2425,550,l),
(2376,507,l),
(2376,232,l),
(2444,232,l),
(2444,502,l),
(2437,482,l),
(2494,484,o),
(2516,446,o),
(2530,372,cs),
(2562,206,ls),
(2577,130,o),
(2613,90,o),
(2676,90,cs)
);
}
);
width = 3308;
}
);
unicode = 7038;
}
{
glyphname = daggerdbl;
layers = (
{
layerId = m002;
shapes = (
{
closed = 1;
nodes = (
(276,-205,l),
(276,21,l),
(261,0,l),
(426,0,l),
(426,65,l),
(257,65,l),
(276,46,l),
(276,499,l),
(259,479,l),
(426,479,l),
(426,544,l),
(261,544,l),
(276,526,l),
(276,700,l),
(204,700,l),
(204,525,l),
(220,544,l),
(54,544,l),
(54,479,l),
(221,479,l),
(204,495,l),
(204,50,l),
(220,65,l),
(54,65,l),
(54,0,l),
(218,0,l),
(204,17,l),
(204,-205,l)
);
}
);
width = 480;
}
);
metricLeft = dagger;
metricRight = dagger;
unicode = 8225;
}
{
glyphname = bullet;
kernLeft = periodcentered;
kernRight = periodcentered;
layers = (
{
layerId = m002;
shapes = (
{
closed = 1;
nodes = (
(338,179,l),
(338,366,l),
(144,366,l),
(144,179,l)
);
}
);
width = 482;
}
);
metricLeft = "=periodcentered*2";
metricRight = "=|";
unicode = 8226;
}
{
glyphname = perthousand;
kernLeft = percent;
kernRight = percent;
layers = (
{
layerId = m002;
shapes = (
{
closed = 1;
nodes = (
(198,-60,l),
(595,740,l),
(523,740,l),
(123,-60,l)
);
},
{
closed = 1;
nodes = (
(254,352,o),
(300,427,o),
(300,530,cs),
(300,632,o),
(253,710,o),
(177,710,cs),
(99,710,o),
(53,629,o),
(53,530,cs),
(53,430,o),
(99,352,o),
(177,352,cs)
);
},
{
closed = 1;
nodes = (
(131,408,o),
(107,458,o),
(107,530,cs),
(107,602,o),
(130,654,o),
(177,654,cs),
(222,654,o),
(247,603,o),
(247,530,cs),
(247,456,o),
(222,408,o),
(177,408,cs)
);
},
{
closed = 1;
nodes = (
(635,-10,o),
(681,65,o),
(681,168,cs),
(681,270,o),
(634,348,o),
(558,348,cs),
(480,348,o),
(434,267,o),
(434,168,cs),
(434,68,o),
(480,-10,o),
(558,-10,cs)
);
},
{
closed = 1;
nodes = (
(512,46,o),
(488,96,o),
(488,168,cs),
(488,240,o),
(511,292,o),
(558,292,cs),
(603,292,o),
(628,241,o),
(628,168,cs),
(628,94,o),
(603,46,o),
(558,46,cs)
);
},
{
closed = 1;
nodes = (
(924,-10,o),
(970,65,o),
(970,168,cs),
(970,270,o),
(923,348,o),
(847,348,cs),
(769,348,o),
(723,267,o),
(723,168,cs),
(723,68,o),
(769,-10,o),
(847,-10,cs)
);
},
{
closed = 1;
nodes = (
(801,46,o),
(777,96,o),
(777,168,cs),
(777,240,o),
(800,292,o),
(847,292,cs),
(892,292,o),
(917,241,o),
(917,168,cs),
(917,94,o),
(892,46,o),
(847,46,cs)
);
}
);
width = 1033;
}
);
metricLeft = percent;
metricRight = percent;
unicode = 8240;
}
{
glyphname = zerosuperior;
layers = (
{
anchors = (
{
name = center;
pos = (146,684);
}
);
layerId = m002;
shapes = (
{
closed = 1;
nodes = (
(222,522,o),
(268,587,o),
(268,678,cs),
(268,686,ls),
(268,788,o),
(221,846,o),
(148,846,cs),
(75,846,o),
(25,782,o),
(25,686,cs),
(25,678,ls),
(25,585,o),
(73,522,o),
(147,522,cs)
);
},
{
closed = 1;
nodes = (
(106,570,o),
(79,605,o),
(79,678,cs),
(79,686,ls),
(79,763,o),
(108,797,o),
(147,797,cs),
(185,797,o),
(213,768,o),
(213,686,cs),
(213,678,ls),
(213,607,o),
(186,570,o),
(146,570,cs)
);
}
);
userData = {
RMXScaler = {
height = 45;
verticalShift = 526;
weight = -27;
width = 47;
};
};
width = 293;
},
{
anchors = (
{
name = tail_Q;
pos = (276,43);
}
);
associatedMasterId = m002;
layerId = "64A053DD-3644-499C-AD33-82D3A668326C";
name = "16 Jun 23 11.03";
shapes = (
{
closed = 1;
nodes = (
(397,-10,o),
(477,120,o),
(477,348,cs),
(477,575,o),
(396,710,o),
(265,710,cs),
(130,710,o),
(50,569,o),
(50,348,cs),
(50,126,o),
(130,-10,o),
(265,-10,cs)
);
},
{
closed = 1;
nodes = (
(176,65,o),
(131,160,o),
(131,348,cs),
(131,535,o),
(175,635,o),
(265,635,cs),
(351,635,o),
(397,539,o),
(397,348,cs),
(397,156,o),
(351,65,o),
(265,65,cs)
);
}
);
width = 527;
}
);
unicode = 8304;
userData = {
RMXScaler = {
source = zero;
};
};
}
{
glyphname = eightsuperior;
layers = (
{
background = {
shapes = (
{
pos = (-23,0);
ref = zero;
}
);
};
layerId = m002;
shapes = (
{
closed = 1;
nodes = (
(102,718,o),
(80,733,o),
(80,760,cs),
(80,787,o),
(104,801,o),
(132,801,cs),
(160,801,o),
(183,787,o),
(183,760,cs),
(183,734,o),
(162,718,o),
(132,718,cs)
);
},
{
closed = 1;
nodes = (
(195,522,o),
(247,557,o),
(247,617,cs),
(247,655,o),
(225,683,o),
(192,696,c),
(192,697,l),
(219,711,o),
(234,734,o),
(234,762,cs),
(234,807,o),
(195,846,o),
(132,846,cs),
(69,846,o),
(29,807,o),
(29,763,cs),
(29,735,o),
(45,709,o),
(71,697,c),
(71,696,l),
(41,683,o),
(17,656,o),
(17,615,cs),
(17,558,o),
(67,522,o),
(131,522,cs)
);
},
{
closed = 1;
nodes = (
(100,567,o),
(70,584,o),
(70,619,cs),
(70,654,o),
(100,671,o),
(132,671,cs),
(164,671,o),
(193,654,o),
(193,620,cs),
(193,585,o),
(164,567,o),
(132,567,cs)
);
}
);
userData = {
RMXScaler = {
height = 45;
verticalShift = 526;
weight = -27;
width = 47;
};
};
width = 264;
},
{
associatedMasterId = m002;
background = {
shapes = (
{
closed = 1;
nodes = (
(357,-10,o),
(446,59,o),
(446,158,cs),
(446,272,o),
(373,306,o),
(272,392,cs),
(210,445,o),
(135,488,o),
(135,559,cs),
(135,601,o),
(173,649,o),
(240,649,cs),
(310,649,o),
(349,606,o),
(349,548,cs),
(349,487,o),
(307,427,o),
(257,377,c),
(294,345,l),
(378,426,o),
(430,480,o),
(430,555,cs),
(430,636,o),
(364,710,o),
(240,710,cs),
(115,710,o),
(52,632,o),
(52,562,cs),
(52,468,o),
(123,415,o),
(227,324,cs),
(300,260,o),
(361,225,o),
(361,155,cs),
(361,98,o),
(316,64,o),
(240,64,cs),
(166,64,o),
(111,105,o),
(111,173,cs),
(111,237,o),
(140,286,o),
(223,360,c),
(185,387,l),
(76,304,o),
(24,255,o),
(24,156,cs),
(24,66,o),
(110,-10,o),
(235,-10,cs)
);
}
);
};
layerId = "2226893A-8639-427E-A108-8AC0B2450A98";
name = "16 Jun 23 16.30";
shapes = (
{
closed = 1;
nodes = (
(357,-10,o),
(456,59,o),
(456,171,cs),
(456,288,o),
(346,331,o),
(267,388,cs),
(202,435,o),
(124,470,o),
(124,553,cs),
(124,608,o),
(173,649,o),
(240,649,cs),
(307,649,o),
(356,608,o),
(356,550,cs),
(356,473,o),
(295,430,o),
(233,385,c),
(286,342,l),
(362,398,o),
(438,446,o),
(438,546,cs),
(438,639,o),
(355,710,o),
(240,710,cs),
(125,710,o),
(42,639,o),
(42,547,cs),
(42,440,o),
(136,399,o),
(216,339,cs),
(291,283,o),
(374,242,o),
(374,166,cs),
(374,103,o),
(323,64,o),
(240,64,cs),
(164,64,o),
(107,103,o),
(107,169,cs),
(107,241,o),
(173,293,o),
(246,347,c),
(191,389,l),
(114,336,o),
(24,282,o),
(24,173,cs),
(24,59,o),
(123,-10,o),
(240,-10,cs)
);
}
);
width = 485;
}
);
unicode = 8312;
userData = {
RMXScaler = {
source = eight;
};
};
}
{
glyphname = ninesuperior;
layers = (
{
background = {
shapes = (
{
pos = (-26,0);
ref = zero;
}
);
};
layerId = m002;
shapes = (
{
closed = 1;
nodes = (
(199,522,o),
(249,564,o),
(249,683,cs),
(249,765,o),
(224,846,o),
(131,846,cs),
(64,846,o),
(17,801,o),
(17,737,cs),
(17,674,o),
(64,635,o),
(119,635,cs),
(146,635,o),
(180,644,o),
(198,674,c),
(198,674,l),
(198,671,o),
(198,668,o),
(198,665,cs),
(198,627,o),
(189,568,o),
(129,568,cs),
(98,568,o),
(71,583,o),
(74,626,c),
(89,616,l),
(14,613,l),
(22,631,l),
(16,562,o),
(61,522,o),
(129,522,cs)
);
},
{
closed = 1;
nodes = (
(89,679,o),
(67,704,o),
(67,738,cs),
(67,775,o),
(92,799,o),
(130,799,cs),
(164,799,o),
(187,778,o),
(187,741,cs),
(187,703,o),
(163,679,o),
(126,679,cs)
);
}
);
userData = {
RMXScaler = {
height = 45;
verticalShift = 526;
weight = -27;
width = 47;
};
};
width = 269;
},
{
associatedMasterId = m002;
layerId = "5A34A97B-68C0-49CB-87F0-3674E21FEF2B";
name = "16 Jun 23 14.36";
shapes = (
{
closed = 1;
nodes = (
(99,-10,ls),
(319,-10,o),
(481,170,o),
(481,413,cs),
(481,596,o),
(387,700,o),
(252,700,cs),
(121,700,o),
(27,601,o),
(27,480,cs),
(27,357,o),
(122,264,o),
(239,264,cs),
(324,264,o),
(385,312,o),
(434,385,c),
(427,459,l),
(382,389,o),
(333,336,o),
(249,336,cs),
(163,336,o),
(103,391,o),
(103,477,cs),
(103,561,o),
(160,625,o),
(247,625,cs),
(335,625,o),
(401,560,o),
(401,409,cs),
(401,205,o),
(278,60,o),
(101,60,cs),
(67,60,l),
(67,-10,l)
);
}
);
width = 528;
},
{
associatedMasterId = m002;
background = {
shapes = (
{
pos = (-55,0);
ref = zero;
}
);
};
layerId = "955855CE-9757-4A4F-BA12-AD45C95FFA73";
name = "16 Jun 23 14.45";
shapes = (
{
closed = 1;
nodes = (
(391,-10,o),
(486,102,o),
(486,350,cs),
(486,384,ls),
(486,596,o),
(406,710,o),
(252,710,cs),
(119,710,o),
(25,601,o),
(25,480,cs),
(25,342,o),
(120,249,o),
(239,249,cs),
(324,249,o),
(385,297,o),
(426,391,c),
(395,471,l),
(395,380,o),
(333,327,o),
(249,327,cs),
(163,327,o),
(103,382,o),
(103,477,cs),
(103,561,o),
(160,632,o),
(247,632,cs),
(346,632,o),
(399,558,o),
(399,407,cs),
(399,342,ls),
(399,173,o),
(356,69,o),
(240,69,cs),
(175,69,o),
(126,87,o),
(63,134,c),
(76,138,l),
(22,45,l),
(19,64,l),
(91,11,o),
(162,-10,o),
(238,-10,cs)
);
}
);
width = 528;
}
);
unicode = 8313;
userData = {
RMXScaler = {
source = nine;
};
};
}
{
glyphname = threeinferior;
layers = (
{
background = {
shapes = (
{
pos = (-61,0);
ref = two;
}
);
};
layerId = m002;
shapes = (
{
closed = 1;
nodes = (
(197,-156,o),
(238,-118,o),
(238,-60,cs),
(238,-19,o),
(217,9,o),
(179,20,c),
(179,21,l),
(208,32,o),
(227,57,o),
(227,90,cs),
(227,140,o),
(185,169,o),
(126,169,cs),
(53,169,o),
(10,126,o),
(17,60,c),
(10,70,l),
(82,68,l),
(73,64,l),
(68,103,o),
(93,121,o),
(125,121,cs),
(158,121,o),
(173,102,o),
(173,80,cs),
(173,52,o),
(147,37,o),
(107,37,cs),
(90,37,l),
(90,-7,l),
(111,-7,ls),
(160,-7,o),
(184,-26,o),
(184,-58,cs),
(184,-89,o),
(163,-108,o),
(125,-108,cs),
(90,-108,o),
(62,-91,o),
(67,-51,c),
(77,-55,l),
(4,-57,l),
(10,-46,l),
(3,-119,o),
(50,-156,o),
(123,-156,cs)
);
}
);
userData = {
RMXScaler = {
height = 45;
verticalShift = -151;
weight = -27;
width = 47;
};
};
width = 256;
},
{
associatedMasterId = m002;
background = {
shapes = (
{
pos = (-73,0);
ref = two;
}
);
};
layerId = "3FF2F475-1D40-4F0F-872E-9E762A718D8D";
name = "16 Jun 23 13.37";
shapes = (
{
closed = 1;
nodes = (
(180,68,o),
(112,88,o),
(47,145,c),
(84,161,l),
(18,26,l),
(16,77,l),
(72,21,o),
(138,-10,o),
(225,-10,cs),
(364,-10,o),
(457,70,o),
(457,192,cs),
(457,276,o),
(414,343,o),
(330,362,c),
(330,365,l),
(391,386,o),
(440,456,o),
(440,534,cs),
(440,640,o),
(348,710,o),
(235,710,cs),
(160,710,o),
(89,679,o),
(31,623,c),
(35,674,l),
(97,539,l),
(60,555,l),
(102,596,o),
(157,632,o),
(229,632,cs),
(304,632,o),
(361,592,o),
(361,528,cs),
(361,452,o),
(281,395,o),
(204,395,cs),
(137,395,l),
(136,325,l),
(207,325,ls),
(304,325,o),
(381,275,o),
(381,191,cs),
(381,108,o),
(308,68,o),
(233,68,cs)
);
}
);
width = 510;
},
{
associatedMasterId = m002;
background = {
shapes = (
{
pos = (-73,0);
ref = two;
}
);
};
layerId = "C6419FBE-14AA-4D28-BA0B-02DD71C21405";
name = "16 Jun 23 13.45";
shapes = (
{
closed = 1;
nodes = (
(378,-10,o),
(457,68,o),
(457,192,cs),
(457,277,o),
(406,344,o),
(311,362,c),
(311,365,l),
(381,384,o),
(437,446,o),
(437,532,cs),
(437,652,o),
(343,710,o),
(242,710,cs),
(160,710,o),
(93,683,o),
(30,626,c),
(34,653,l),
(93,561,l),
(68,561,l),
(114,604,o),
(169,633,o),
(237,631,cs),
(303,629,o),
(354,591,o),
(354,523,cs),
(354,435,o),
(281,396,o),
(174,396,cs),
(137,396,l),
(136,324,l),
(178,324,ls),
(304,324,o),
(371,275,o),
(371,191,cs),
(371,100,o),
(305,69,o),
(242,69,cs),
(174,69,o),
(129,88,o),
(61,134,c),
(74,138,l),
(20,45,l),
(17,64,l),
(91,14,o),
(161,-10,o),
(238,-10,cs)
);
}
);
width = 510;
}
);
unicode = 8323;
userData = {
RMXScaler = {
source = three;
};
};
}
{
glyphname = lira;
kernLeft = sterling;
kernRight = sterling;
layers = (
{
layerId = m002;
shapes = (
{
closed = 1;
nodes = (
(461,339,l),
(461,409,l),
(54,409,l),
(54,339,l)
);
},
{
pos = (-13,0);
ref = _sterling_kom_;
},
{
closed = 1;
nodes = (
(461,239,l),
(461,309,l),
(54,309,l),
(54,239,l)
);
}
);
width = 566;
}
);
metricLeft = sterling;
metricRight = sterling;
unicode = 8356;
}
{
glyphname = leftArrow;
layers = (
{
layerId = m002;
shapes = (
{
closed = 1;
nodes = (
(420,-22,l),
(499,57,l),
(507,21,l),
(171,358,l),
(143,319,l),
(806,319,l),
(775,303,l),
(775,411,l),
(797,396,l),
(162,396,l),
(191,372,l),
(506,687,l),
(493,641,l),
(410,724,l),
(443,734,l),
(33,324,l),
(33,388,l),
(442,-22,l)
);
}
);
width = 849;
}
);
metricLeft = "=|rightArrow";
metricRight = "=|rightArrow";
unicode = 8592;
}
{
glyphname = downArrow;
layers = (
{
layerId = m002;
shapes = (
{
closed = 1;
nodes = (
(469,700,l),
(361,700,l),
(376,722,l),
(376,87,l),
(400,114,l),
(85,429,l),
(123,429,l),
(40,346,l),
(38,368,l),
(448,-42,l),
(384,-42,l),
(794,367,l),
(794,345,l),
(715,424,l),
(751,432,l),
(414,96,l),
(453,68,l),
(453,731,l)
);
}
);
width = 833;
}
);
metricLeft = upArrow;
metricRight = upArrow;
unicode = 8595;
}
{
glyphname = leftRightArrow;
layers = (
{
background = {
shapes = (
{
pos = (906,-83);
ref = leftArrow;
scale = (-1,1);
}
);
};
layerId = m002;
shapes = (
{
closed = 1;
nodes = (
(817,386,l),
(817,322,l),
(552,587,l),
(576,583,l),
(506,513,l),
(504,539,l),
(718,329,l),
(718,384,l),
(501,164,l),
(505,190,l),
(574,121,l),
(547,115,l)
);
},
{
closed = 1;
nodes = (
(276,121,l),
(345,190,l),
(349,164,l),
(132,384,l),
(132,329,l),
(346,539,l),
(344,513,l),
(274,583,l),
(298,587,l),
(33,322,l),
(33,386,l),
(303,115,l)
);
},
{
closed = 1;
nodes = (
(705,321,l),
(705,388,l),
(145,388,l),
(145,321,l)
);
}
);
width = 850;
},
{
associatedMasterId = m002;
background = {
shapes = (
{
pos = (864,-83);
ref = leftArrow;
scale = (-1,1);
}
);
};
layerId = "F95A44E4-66F2-4606-BC1B-6727DF92BFD9";
name = "20 Jun 23 10.53";
shapes = (
{
closed = 1;
nodes = (
(601,145,l),
(828,365,l),
(828,371,l),
(599,592,l),
(514,592,l),
(732,375,l),
(755,405,l),
(121,405,l),
(134,375,l),
(352,592,l),
(267,592,l),
(38,371,l),
(38,365,l),
(265,145,l),
(352,145,l),
(130,366,l),
(121,335,l),
(756,335,l),
(736,366,l),
(514,145,l)
);
}
);
width = 872;
}
);
metricLeft = "=|rightArrow";
metricRight = "=|";
unicode = 8596;
}
{
glyphname = upTipRightArrow;
layers = (
{
layerId = m002;
shapes = (
{
closed = 1;
nodes = (
(190,0,l),
(190,365,l),
(133,323,l),
(758,323,l),
(757,390,l),
(82,390,l),
(120,421,l),
(120,0,l)
);
},
{
closed = 1;
nodes = (
(883,386,l),
(883,322,l),
(618,587,l),
(642,583,l),
(572,513,l),
(570,539,l),
(784,329,l),
(784,384,l),
(567,164,l),
(571,190,l),
(640,121,l),
(613,115,l)
);
}
);
width = 916;
}
);
metricLeft = "=|upTipLeftArrow";
metricRight = "=|upTipLeftArrow";
unicode = 8625;
}
{
glyphname = downTipLeftArrow;
layers = (
{
layerId = m002;
shapes = (
{
closed = 1;
nodes = (
(796,700,l),
(726,700,l),
(726,343,l),
(783,385,l),
(158,385,l),
(159,318,l),
(834,318,l),
(796,287,l)
);
},
{
closed = 1;
nodes = (
(274,125,l),
(344,195,l),
(346,169,l),
(132,379,l),
(132,324,l),
(349,544,l),
(345,518,l),
(276,587,l),
(303,593,l),
(33,322,l),
(33,386,l),
(298,121,l)
);
}
);
width = 916;
}
);
metricLeft = upTipLeftArrow;
metricRight = upTipLeftArrow;
unicode = 8626;
}
{
glyphname = leftAndRightArrow;
layers = (
{
background = {
shapes = (
{
pos = (145,-305);
ref = rightArrow;
}
);
};
layerId = m002;
shapes = (
{
closed = 1;
nodes = (
(817,243,l),
(817,179,l),
(552,444,l),
(576,440,l),
(506,370,l),
(504,396,l),
(718,186,l),
(718,241,l),
(501,21,l),
(505,47,l),
(574,-22,l),
(547,-28,l)
);
},
{
closed = 1;
nodes = (
(705,177,l),
(705,244,l),
(65,244,l),
(65,177,l)
);
},
{
closed = 1;
nodes = (
(276,258,l),
(345,327,l),
(349,301,l),
(132,521,l),
(132,466,l),
(346,676,l),
(344,650,l),
(274,720,l),
(298,724,l),
(33,459,l),
(33,523,l),
(303,252,l)
);
},
{
closed = 1;
nodes = (
(785,458,l),
(785,525,l),
(145,525,l),
(145,458,l)
);
}
);
width = 850;
}
);
metricLeft = leftArrow;
metricRight = "=|";
unicode = 8646;
}
{
glyphname = lessequal;
layers = (
{
layerId = m002;
shapes = (
{
closed = 1;
nodes = (
(471,242,l),
(494,220,l),
(186,336,ls),
(157,347,o),
(118,358,o),
(102,358,c),
(102,355,l),
(119,354,o),
(158,364,o),
(186,374,cs),
(491,484,l),
(471,460,l),
(439,557,l),
(489,552,l),
(34,380,l),
(50,411,l),
(50,306,l),
(30,333,l),
(494,154,l),
(433,148,l)
);
},
{
closed = 1;
nodes = (
(468,0,l),
(468,60,l),
(50,60,l),
(50,0,l)
);
}
);
width = 521;
}
);
metricLeft = less;
unicode = 8804;
}
{
glyphname = propellor;
layers = (
{
layerId = m002;
shapes = (
{
closed = 1;
nodes = (
(264,-10,o),
(327,52,o),
(327,128,cs),
(327,571,ls),
(327,648,o),
(264,710,o),
(189,710,cs),
(113,710,o),
(50,648,o),
(50,571,cs),
(50,495,o),
(113,436,o),
(189,436,cs),
(632,436,ls),
(707,436,o),
(770,495,o),
(770,571,cs),
(770,648,o),
(707,710,o),
(632,710,cs),
(556,710,o),
(493,648,o),
(493,571,cs),
(493,128,ls),
(493,52,o),
(556,-10,o),
(632,-10,cs),
(707,-10,o),
(770,52,o),
(770,128,cs),
(770,205,o),
(707,264,o),
(632,264,cs),
(189,264,ls),
(113,264,o),
(50,205,o),
(50,128,cs),
(50,52,o),
(113,-10,o),
(189,-10,cs)
);
},
{
closed = 1;
nodes = (
(140,44,o),
(105,81,o),
(105,128,cs),
(105,175,o),
(140,213,o),
(189,213,cs),
(632,213,ls),
(680,213,o),
(715,175,o),
(715,128,cs),
(715,81,o),
(680,44,o),
(632,44,cs),
(583,44,o),
(548,81,o),
(548,128,cs),
(548,571,ls),
(548,618,o),
(583,656,o),
(632,656,cs),
(680,656,o),
(715,618,o),
(715,571,cs),
(715,524,o),
(680,487,o),
(632,487,cs),
(189,487,ls),
(140,487,o),
(105,524,o),
(105,571,cs),
(105,618,o),
(140,656,o),
(189,656,cs),
(237,656,o),
(272,618,o),
(272,571,cs),
(272,128,ls),
(272,81,o),
(237,44,o),
(189,44,cs)
);
}
);
width = 820;
}
);
metricRight = "=|";
unicode = 8984;
}
{
glyphname = helmsymbol;
layers = (
{
layerId = m002;
shapes = (
{
closed = 1;
nodes = (
(716,-10,o),
(864,139,o),
(864,349,cs),
(864,559,o),
(715,710,o),
(508,710,cs),
(306,710,o),
(151,565,o),
(151,349,cs),
(151,137,o),
(301,-10,o),
(508,-10,cs)
);
},
{
closed = 1;
nodes = (
(340,51,o),
(216,173,o),
(216,351,cs),
(216,522,o),
(330,649,o),
(507,649,cs),
(681,649,o),
(799,526,o),
(799,350,cs),
(799,172,o),
(679,51,o),
(510,51,cs)
);
},
{
closed = 1;
nodes = (
(538,-126,l),
(538,300,l),
(908,87,l),
(937,139,l),
(568,352,l),
(937,565,l),
(907,616,l),
(538,403,l),
(538,829,l),
(479,829,l),
(479,403,l),
(109,616,l),
(80,564,l),
(449,351,l),
(80,138,l),
(110,87,l),
(479,300,l),
(479,-126,l)
);
}
);
width = 1017;
}
);
metricRight = "=|";
unicode = 9096;
}
{
glyphname = blackSquare;
layers = (
{
layerId = m002;
shapes = (
{
closed = 1;
nodes = (
(736,0,ls),
(772,0,o),
(792,20,o),
(792,56,cs),
(792,644,ls),
(792,680,o),
(772,700,o),
(736,700,cs),
(148,700,ls),
(112,700,o),
(92,680,o),
(92,644,cs),
(92,56,ls),
(92,20,o),
(112,0,o),
(148,0,cs)
);
}
);
width = 884;
}
);
metricLeft = H;
metricRight = "=|";
unicode = 9632;
}
{
glyphname = upBlackTriangle;
layers = (
{
layerId = m002;
shapes = (
{
closed = 1;
nodes = (
(865,0,ls),
(911,0,o),
(936,20,o),
(936,51,cs),
(936,65,o),
(931,82,o),
(920,99,cs),
(561,671,ls),
(545,697,o),
(524,710,o),
(505,710,cs),
(485,710,o),
(464,697,o),
(448,671,cs),
(89,99,ls),
(78,82,o),
(73,65,o),
(73,51,cs),
(73,20,o),
(98,0,o),
(144,0,cs)
);
}
);
width = 1009;
}
);
metricRight = "=|";
unicode = 9650;
}
{
glyphname = upWhiteTriangle;
layers = (
{
layerId = m002;
shapes = (
{
closed = 1;
nodes = (
(865,0,ls),
(911,0,o),
(936,20,o),
(936,51,cs),
(936,65,o),
(931,82,o),
(920,99,cs),
(561,671,ls),
(545,697,o),
(524,710,o),
(505,710,cs),
(485,710,o),
(464,697,o),
(448,671,cs),
(89,99,ls),
(78,82,o),
(73,65,o),
(73,51,cs),
(73,20,o),
(98,0,o),
(144,0,cs)
);
},
{
closed = 1;
nodes = (
(163,57,o),
(149,74,o),
(163,96,cs),
(476,603,ls),
(494,632,o),
(513,635,o),
(533,603,cs),
(850,96,ls),
(864,73,o),
(850,57,o),
(823,57,cs),
(189,57,ls)
);
}
);
width = 1009;
}
);
metricRight = "=|";
unicode = 9651;
}
{
glyphname = downBlackTriangle;
layers = (
{
layerId = m002;
shapes = (
{
closed = 1;
nodes = (
(524,-10,o),
(545,3,o),
(561,29,cs),
(920,601,ls),
(931,618,o),
(936,635,o),
(936,649,cs),
(936,680,o),
(911,700,o),
(865,700,cs),
(144,700,ls),
(98,700,o),
(73,680,o),
(73,649,cs),
(73,635,o),
(78,618,o),
(89,601,cs),
(448,29,ls),
(464,3,o),
(485,-10,o),
(505,-10,cs)
);
}
);
width = 1009;
}
);
unicode = 9660;
}
{
glyphname = leftBlackTriangle;
layers = (
{
layerId = m002;
shapes = (
{
closed = 1;
nodes = (
(671,-10,o),
(689,12,o),
(689,52,cs),
(689,685,ls),
(689,725,o),
(671,747,o),
(644,747,cs),
(631,747,o),
(617,743,o),
(602,733,cs),
(100,418,ls),
(77,404,o),
(65,386,o),
(65,368,cs),
(65,351,o),
(77,333,o),
(100,319,cs),
(602,4,ls),
(617,-6,o),
(631,-10,o),
(644,-10,cs)
);
}
);
width = 797;
}
);
metricLeft = "=|rightBlackTriangle";
metricRight = "=|rightBlackTriangle";
unicode = 9664;
}
{
glyphname = whiteCircle;
layers = (
{
layerId = m002;
shapes = (
{
closed = 1;
nodes = (
(620,-10,o),
(768,139,o),
(768,349,cs),
(768,559,o),
(619,710,o),
(412,710,cs),
(210,710,o),
(55,565,o),
(55,349,cs),
(55,137,o),
(205,-10,o),
(412,-10,cs)
);
},
{
closed = 1;
nodes = (
(244,51,o),
(120,173,o),
(120,351,cs),
(120,522,o),
(234,649,o),
(411,649,cs),
(585,649,o),
(703,526,o),
(703,350,cs),
(703,172,o),
(583,51,o),
(414,51,cs)
);
}
);
width = 823;
}
);
metricRight = "=|";
unicode = 9675;
}
{
glyphname = dottedCircle;
layers = (
{
anchors = (
{
name = bottom;
pos = (601,0);
},
{
name = top;
pos = (328,650);
}
);
layerId = m002;
shapes = (
{
closed = 1;
nodes = (
(502,419,o),
(521,419,o),
(533,431,cs),
(544,442,o),
(544,461,o),
(533,472,cs),
(521,484,o),
(502,484,o),
(491,473,cs),
(479,461,o),
(479,442,o),
(491,430,cs)
);
},
{
closed = 1;
nodes = (
(144,61,o),
(163,61,o),
(175,73,cs),
(186,84,o),
(186,103,o),
(175,114,cs),
(163,126,o),
(144,126,o),
(133,115,cs),
(121,103,o),
(121,84,o),
(133,72,cs)
);
},
{
closed = 1;
nodes = (
(349,-10,o),
(362,3,o),
(362,20,cs),
(362,36,o),
(349,49,o),
(333,49,cs),
(316,49,o),
(303,36,o),
(303,20,cs),
(303,3,o),
(316,-10,o),
(333,-10,cs)
);
},
{
closed = 1;
nodes = (
(96,243,o),
(109,256,o),
(109,272,cs),
(109,289,o),
(96,302,o),
(80,302,cs),
(63,302,o),
(50,289,o),
(50,272,cs),
(50,256,o),
(63,243,o),
(80,243,cs)
);
},
{
closed = 1;
nodes = (
(502,61,o),
(521,61,o),
(532,72,cs),
(544,84,o),
(544,103,o),
(533,114,cs),
(521,126,o),
(502,126,o),
(490,114,cs),
(479,103,o),
(479,84,o),
(491,72,cs)
);
},
{
closed = 1;
nodes = (
(144,419,o),
(163,419,o),
(174,430,cs),
(186,442,o),
(186,461,o),
(175,472,cs),
(163,484,o),
(144,484,o),
(132,472,cs),
(121,461,o),
(121,442,o),
(133,430,cs)
);
},
{
closed = 1;
nodes = (
(349,496,o),
(362,509,o),
(362,526,cs),
(362,542,o),
(349,555,o),
(333,555,cs),
(316,555,o),
(303,542,o),
(303,526,cs),
(303,509,o),
(316,496,o),
(333,496,cs)
);
},
{
closed = 1;
nodes = (
(602,243,o),
(615,256,o),
(615,272,cs),
(615,289,o),
(602,302,o),
(586,302,cs),
(569,302,o),
(556,289,o),
(556,272,cs),
(556,256,o),
(569,243,o),
(586,243,cs)
);
}
);
width = 665;
}
);
unicode = 9676;
}
{
glyphname = lowerHalfBlackWhiteCircle;
layers = (
{
layerId = m002;
shapes = (
{
closed = 1;
nodes = (
(620,-10,o),
(768,139,o),
(768,349,cs),
(768,559,o),
(619,710,o),
(412,710,cs),
(210,710,o),
(55,565,o),
(55,349,cs),
(55,137,o),
(205,-10,o),
(412,-10,cs)
);
},
{
closed = 1;
nodes = (
(222,18,o),
(82,150,o),
(82,351,c),
(741,350,l),
(741,149,o),
(605,18,o),
(413,18,cs)
);
}
);
width = 823;
}
);
metricRight = "=|";
unicode = 9682;
}
{
glyphname = leftWhiteIndex;
layers = (
{
layerId = m002;
shapes = (
{
closed = 1;
nodes = (
(334,69,o),
(338,87,o),
(338,107,cs),
(338,117,o),
(336,127,o),
(334,138,c),
(343,133,o),
(350,125,o),
(357,120,cs),
(363,111,o),
(369,107,o),
(374,107,cs),
(383,107,o),
(388,119,o),
(388,132,c),
(389,132,ls),
(400,132,o),
(409,136,o),
(416,140,cs),
(428,147,o),
(442,153,o),
(477,153,cs),
(519,153,o),
(550,147,o),
(576,139,cs),
(596,134,o),
(616,130,o),
(634,130,cs),
(651,130,o),
(672,138,o),
(697,148,cs),
(736,164,o),
(788,186,o),
(860,187,cs),
(899,187,o),
(906,188,o),
(914,203,cs),
(925,223,o),
(933,254,o),
(933,287,cs),
(933,321,o),
(926,350,o),
(914,373,cs),
(906,388,o),
(897,391,o),
(878,390,cs),
(839,385,o),
(815,385,o),
(773,385,cs),
(737,385,o),
(665,399,o),
(596,412,cs),
(535,424,o),
(480,435,o),
(453,435,cs),
(414,435,o),
(377,430,o),
(345,425,cs),
(310,420,o),
(278,416,o),
(239,416,cs),
(184,416,o),
(120,423,o),
(63,435,cs),
(59,436,o),
(55,437,o),
(50,437,cs),
(39,437,o),
(30,431,o),
(30,420,cs),
(30,416,o),
(32,409,o),
(37,403,cs),
(66,361,o),
(159,333,o),
(266,334,c),
(265,324,o),
(260,315,o),
(256,304,c),
(206,271,o),
(166,253,o),
(144,246,cs),
(128,242,o),
(128,238,o),
(128,232,cs),
(128,222,o),
(146,210,o),
(171,210,cs),
(189,210,o),
(211,215,o),
(231,222,c),
(233,215,o),
(236,209,o),
(240,202,cs),
(276,153,o),
(289,114,o),
(295,91,cs),
(302,71,o),
(307,58,o),
(319,65,cs)
);
},
{
closed = 1;
nodes = (
(316,81,o),
(314,84,o),
(310,95,cs),
(304,112,o),
(294,141,o),
(276,175,c),
(281,172,o),
(287,169,o),
(292,164,cs),
(300,160,o),
(307,155,o),
(316,150,c),
(320,138,o),
(322,121,o),
(322,107,cs),
(322,94,o),
(320,82,o),
(316,79,c)
);
},
{
closed = 1;
nodes = (
(617,145,o),
(600,148,o),
(580,153,cs),
(554,160,o),
(521,169,o),
(477,169,cs),
(440,169,o),
(421,159,o),
(410,153,cs),
(400,149,o),
(396,148,o),
(389,148,cs),
(387,148,o),
(386,150,o),
(386,155,cs),
(386,162,o),
(388,173,o),
(392,178,cs),
(411,205,o),
(433,215,o),
(492,217,cs),
(508,218,o),
(516,217,o),
(522,217,cs),
(531,217,ls),
(572,217,o),
(593,229,o),
(593,253,cs),
(593,291,o),
(523,337,o),
(452,345,cs),
(415,350,o),
(383,351,o),
(348,351,cs),
(329,351,o),
(311,350,o),
(291,350,cs),
(281,350,o),
(271,350,o),
(263,350,cs),
(160,350,o),
(74,375,o),
(48,412,cs),
(45,416,o),
(45,417,o),
(45,419,cs),
(45,423,o),
(49,424,o),
(58,422,cs),
(119,408,o),
(184,400,o),
(239,400,cs),
(279,400,o),
(312,406,o),
(347,411,cs),
(380,416,o),
(414,420,o),
(453,420,cs),
(478,420,o),
(534,409,o),
(593,398,cs),
(663,384,o),
(736,371,o),
(773,371,cs),
(815,371,o),
(841,371,o),
(880,376,cs),
(882,376,o),
(884,376,o),
(887,376,cs),
(894,376,o),
(896,373,o),
(900,364,cs),
(911,346,o),
(917,318,o),
(917,287,cs),
(917,256,o),
(911,228,o),
(901,211,cs),
(897,202,o),
(895,202,o),
(860,202,cs),
(785,201,o),
(731,178,o),
(692,161,cs),
(667,151,o),
(649,145,o),
(634,145,cs)
);
},
{
closed = 1;
nodes = (
(155,225,o),
(143,226,o),
(143,229,cs),
(143,230,o),
(145,231,o),
(148,233,cs),
(169,240,o),
(204,253,o),
(247,281,c),
(239,258,o),
(235,246,o),
(232,238,c),
(212,229,o),
(188,225,o),
(171,225,cs)
);
},
{
closed = 1;
nodes = (
(370,126,o),
(369,126,o),
(367,130,cs),
(349,149,o),
(321,164,o),
(299,178,cs),
(268,196,o),
(245,210,o),
(245,227,cs),
(245,232,o),
(250,246,o),
(265,285,cs),
(269,300,o),
(279,319,o),
(283,336,c),
(291,336,ls),
(309,336,o),
(325,337,o),
(342,337,c),
(342,336,o),
(340,332,o),
(338,330,cs),
(318,285,o),
(306,264,o),
(300,252,cs),
(294,242,o),
(292,236,o),
(292,229,cs),
(292,220,o),
(300,216,o),
(314,207,c),
(321,202,o),
(333,196,o),
(342,188,cs),
(366,170,o),
(375,146,o),
(375,134,cs),
(375,128,o),
(374,126,o),
(372,126,cs)
);
},
{
closed = 1;
nodes = (
(369,183,o),
(361,192,o),
(350,201,cs),
(343,207,o),
(334,212,o),
(326,216,c),
(354,262,l),
(366,265,o),
(380,267,o),
(396,269,cs),
(409,270,o),
(417,265,o),
(436,253,cs),
(443,249,o),
(453,244,o),
(464,238,cs),
(470,235,o),
(477,233,o),
(483,230,c),
(426,227,o),
(400,216,o),
(381,188,cs),
(377,183,o),
(375,178,o),
(374,175,c)
);
},
{
closed = 1;
nodes = (
(309,227,o),
(306,229,o),
(306,232,cs),
(307,236,o),
(310,240,o),
(314,245,cs),
(319,256,o),
(333,279,o),
(352,324,cs),
(358,337,o),
(370,336,o),
(394,336,cs),
(414,334,o),
(430,332,o),
(451,329,cs),
(514,322,o),
(578,281,o),
(578,253,cs),
(578,239,o),
(570,234,o),
(547,234,cs),
(525,234,o),
(496,240,o),
(471,251,cs),
(460,257,o),
(451,262,o),
(443,268,cs),
(425,277,o),
(412,285,o),
(395,283,cs),
(363,279,l),
(374,298,ls),
(375,302,o),
(381,304,o),
(385,304,cs),
(396,304,ls),
(432,304,o),
(471,300,o),
(479,300,cs),
(483,300,o),
(485,304,o),
(485,308,cs),
(485,310,o),
(483,313,o),
(478,314,cs),
(454,318,o),
(441,320,o),
(428,321,cs),
(416,321,o),
(408,322,o),
(398,322,cs),
(381,322,o),
(368,321,o),
(365,313,cs),
(314,225,l)
);
},
{
closed = 1;
nodes = (
(948,161,o),
(977,212,o),
(977,284,cs),
(977,361,o),
(941,411,o),
(907,411,cs),
(893,411,o),
(887,404,o),
(880,401,c),
(882,395,l),
(887,396,o),
(891,398,o),
(894,398,cs),
(919,398,o),
(943,348,o),
(943,285,cs),
(943,226,o),
(920,175,o),
(898,175,cs),
(894,175,o),
(891,176,o),
(888,178,c),
(884,174,l),
(891,168,o),
(903,161,o),
(913,161,cs)
);
},
{
closed = 1;
nodes = (
(1000,161,o),
(1031,212,o),
(1031,284,cs),
(1031,361,o),
(993,411,o),
(960,411,cs),
(944,411,o),
(939,404,o),
(933,401,c),
(936,395,l),
(940,396,o),
(942,398,o),
(945,398,cs),
(972,398,o),
(995,348,o),
(995,285,cs),
(995,226,o),
(973,175,o),
(949,175,cs),
(946,175,o),
(942,176,o),
(940,178,c),
(938,174,l),
(942,168,o),
(956,161,o),
(966,161,cs)
);
}
);
width = 1061;
},
{
associatedMasterId = m002;
layerId = "7A02ED13-E390-44E5-822D-81FD0DDAAF57";
name = Black;
shapes = (
{
alignment = 1;
pos = (1061,0);
ref = rightWhiteIndex;
scale = (-1,1);
}
);
width = 1061;
}
);
unicode = 9756;
}
{
glyphname = upWhiteIndex;
layers = (
{
layerId = m002;
shapes = (
{
closed = 1;
nodes = (
(213,-152,o),
(244,-144,o),
(264,-133,cs),
(279,-125,o),
(280,-118,o),
(280,-79,cs),
(281,-7,o),
(303,45,o),
(319,84,cs),
(329,109,o),
(337,130,o),
(337,147,cs),
(337,165,o),
(333,185,o),
(328,205,cs),
(320,231,o),
(314,262,o),
(314,304,cs),
(314,339,o),
(320,353,o),
(327,365,cs),
(331,372,o),
(335,381,o),
(335,392,cs),
(335,393,l),
(348,393,o),
(360,398,o),
(360,407,cs),
(360,412,o),
(356,418,o),
(347,424,cs),
(342,431,o),
(334,438,o),
(329,447,c),
(340,445,o),
(350,443,o),
(360,443,cs),
(380,443,o),
(398,447,o),
(402,462,cs),
(409,474,o),
(396,479,o),
(376,486,cs),
(353,492,o),
(314,505,o),
(265,541,cs),
(258,545,o),
(252,548,o),
(245,550,c),
(252,570,o),
(257,592,o),
(257,610,cs),
(257,635,o),
(245,653,o),
(235,653,cs),
(229,653,o),
(225,653,o),
(221,637,cs),
(214,615,o),
(196,575,o),
(163,525,c),
(152,521,o),
(143,516,o),
(133,515,c),
(134,622,o),
(106,715,o),
(64,744,cs),
(58,749,o),
(51,751,o),
(47,751,cs),
(36,751,o),
(30,742,o),
(30,731,cs),
(30,726,o),
(31,722,o),
(32,718,cs),
(44,661,o),
(51,597,o),
(51,542,cs),
(51,503,o),
(47,471,o),
(42,436,cs),
(37,404,o),
(32,367,o),
(32,328,cs),
(32,301,o),
(43,246,o),
(55,185,cs),
(68,116,o),
(82,44,o),
(82,8,cs),
(82,-34,o),
(82,-58,o),
(77,-97,cs),
(76,-116,o),
(79,-125,o),
(94,-133,cs),
(117,-145,o),
(146,-152,o),
(180,-152,cs)
);
},
{
closed = 1;
nodes = (
(255,-250,o),
(306,-219,o),
(306,-185,cs),
(306,-175,o),
(299,-161,o),
(293,-157,c),
(289,-159,l),
(291,-161,o),
(292,-165,o),
(292,-168,cs),
(292,-192,o),
(241,-214,o),
(182,-214,cs),
(119,-214,o),
(69,-191,o),
(69,-164,cs),
(69,-161,o),
(71,-159,o),
(72,-155,c),
(66,-152,l),
(63,-158,o),
(56,-163,o),
(56,-179,cs),
(56,-212,o),
(106,-250,o),
(183,-250,cs)
);
},
{
closed = 1;
nodes = (
(255,-196,o),
(306,-167,o),
(306,-132,cs),
(306,-122,o),
(299,-110,o),
(293,-103,c),
(289,-107,l),
(291,-110,o),
(292,-113,o),
(292,-117,cs),
(292,-139,o),
(241,-162,o),
(182,-162,cs),
(119,-162,o),
(69,-138,o),
(69,-113,cs),
(69,-110,o),
(71,-106,o),
(72,-101,c),
(66,-99,l),
(63,-106,o),
(56,-112,o),
(56,-126,cs),
(56,-160,o),
(106,-196,o),
(183,-196,cs)
);
},
{
closed = 1;
nodes = (
(149,-136,o),
(121,-130,o),
(103,-119,cs),
(94,-115,o),
(91,-113,o),
(91,-106,cs),
(91,-103,o),
(91,-101,o),
(91,-99,cs),
(96,-60,o),
(96,-34,o),
(96,8,cs),
(96,45,o),
(83,118,o),
(69,188,cs),
(58,247,o),
(47,303,o),
(47,328,cs),
(47,367,o),
(51,401,o),
(56,434,cs),
(61,469,o),
(67,502,o),
(67,542,cs),
(67,597,o),
(59,662,o),
(45,723,cs),
(43,732,o),
(44,736,o),
(48,736,cs),
(50,736,o),
(51,736,o),
(55,733,cs),
(92,707,o),
(117,621,o),
(117,518,cs),
(117,510,o),
(117,500,o),
(117,490,cs),
(117,470,o),
(116,452,o),
(116,433,cs),
(116,398,o),
(117,366,o),
(122,329,cs),
(130,258,o),
(176,188,o),
(214,188,cs),
(238,188,o),
(250,209,o),
(250,250,cs),
(250,259,ls),
(250,265,o),
(249,273,o),
(250,289,cs),
(252,348,o),
(262,370,o),
(289,389,cs),
(294,393,o),
(305,395,o),
(312,395,cs),
(317,395,o),
(319,394,o),
(319,392,cs),
(319,385,o),
(318,381,o),
(314,371,cs),
(308,360,o),
(298,341,o),
(298,304,cs),
(298,260,o),
(307,227,o),
(314,201,cs),
(319,181,o),
(322,164,o),
(322,147,cs),
(322,132,o),
(316,114,o),
(306,89,cs),
(289,50,o),
(266,-4,o),
(265,-79,cs),
(265,-114,o),
(265,-116,o),
(256,-120,cs),
(239,-130,o),
(211,-136,o),
(180,-136,cs)
);
},
{
closed = 1;
nodes = (
(186,203,o),
(145,267,o),
(138,330,cs),
(135,351,o),
(133,367,o),
(131,387,cs),
(131,411,o),
(130,423,o),
(143,429,cs),
(188,448,o),
(211,462,o),
(222,467,cs),
(227,471,o),
(231,474,o),
(235,475,cs),
(238,475,o),
(240,472,o),
(242,467,c),
(154,416,ls),
(146,413,o),
(145,400,o),
(145,383,cs),
(145,373,o),
(146,365,o),
(146,353,cs),
(147,340,o),
(149,327,o),
(153,303,cs),
(154,298,o),
(157,296,o),
(159,296,cs),
(163,296,o),
(167,298,o),
(167,302,cs),
(167,310,o),
(163,349,o),
(163,385,cs),
(163,396,ls),
(163,400,o),
(165,406,o),
(169,407,cs),
(188,418,l),
(184,386,ls),
(182,369,o),
(190,356,o),
(199,338,cs),
(205,330,o),
(210,321,o),
(216,310,cs),
(227,285,o),
(233,256,o),
(233,234,cs),
(233,211,o),
(228,203,o),
(214,203,cs)
);
},
{
closed = 1;
nodes = (
(234,304,o),
(232,311,o),
(229,317,cs),
(223,328,o),
(218,338,o),
(214,345,cs),
(202,364,o),
(197,372,o),
(198,385,cs),
(200,401,o),
(202,415,o),
(205,427,c),
(251,455,l),
(255,447,o),
(260,438,o),
(266,431,cs),
(275,420,o),
(284,412,o),
(292,407,c),
(289,406,o),
(284,404,o),
(279,400,cs),
(251,381,o),
(240,355,o),
(237,298,c)
);
},
{
closed = 1;
nodes = (
(321,406,o),
(297,415,o),
(279,439,cs),
(271,448,o),
(265,460,o),
(260,467,c),
(251,481,o),
(247,489,o),
(238,489,cs),
(231,489,o),
(225,487,o),
(215,481,cs),
(203,475,o),
(182,463,o),
(137,443,cs),
(135,441,o),
(131,439,o),
(130,439,c),
(130,456,o),
(131,472,o),
(131,490,cs),
(131,498,l),
(148,502,o),
(167,512,o),
(182,516,cs),
(221,531,o),
(235,536,o),
(240,536,cs),
(257,536,o),
(271,513,o),
(289,482,cs),
(303,460,o),
(318,432,o),
(337,414,cs),
(341,412,o),
(341,411,o),
(341,409,cs),
(341,407,o),
(339,406,o),
(333,406,cs)
);
},
{
closed = 1;
nodes = (
(214,577,o),
(227,612,o),
(234,633,cs),
(236,636,o),
(237,638,o),
(238,638,cs),
(241,638,o),
(242,626,o),
(242,610,cs),
(242,593,o),
(238,569,o),
(229,549,c),
(221,546,o),
(209,542,o),
(186,534,c)
);
},
{
closed = 1;
nodes = (
(346,459,o),
(329,461,o),
(317,465,c),
(312,474,o),
(307,481,o),
(303,489,cs),
(298,494,o),
(295,500,o),
(292,505,c),
(326,487,o),
(355,477,o),
(372,471,cs),
(383,467,o),
(386,465,o),
(388,465,c),
(385,461,o),
(373,459,o),
(360,459,cs)
);
}
);
width = 434;
},
{
associatedMasterId = m002;
layerId = "7A02ED13-E390-44E5-822D-81FD0DDAAF57";
name = Black;
shapes = (
{
angle = 90;
pos = (467,-280);
ref = rightWhiteIndex;
}
);
width = 434;
}
);
unicode = 9757;
}
{
glyphname = airplane;
layers = (
{
layerId = m002;
shapes = (
{
closed = 1;
nodes = (
(612,283,ls),
(618,289,o),
(624,291,o),
(632,291,cs),
(768,291,ls),
(826,291,o),
(877,325,o),
(877,360,cs),
(877,394,o),
(826,428,o),
(768,428,cs),
(629,428,ls),
(621,428,o),
(615,430,o),
(609,436,cs),
(364,692,ls),
(358,698,o),
(352,700,o),
(344,700,cs),
(173,700,l),
(173,699,l),
(271,685,ls),
(279,684,o),
(285,680,o),
(289,673,cs),
(430,398,l),
(435,321,l),
(280,30,ls),
(276,23,o),
(270,20,o),
(262,18,cs),
(173,1,l),
(173,0,l),
(328,0,ls),
(336,0,o),
(342,2,o),
(348,8,cs)
);
},
{
closed = 1;
nodes = (
(477,281,l),
(477,440,l),
(110,408,l),
(110,311,l)
);
},
{
closed = 1;
nodes = (
(253,354,l),
(141,534,ls),
(137,541,o),
(129,545,o),
(121,545,cs),
(103,545,ls),
(93,545,o),
(86,540,o),
(87,529,cs),
(104,361,l),
(80,191,ls),
(78,180,o),
(86,175,o),
(96,175,cs),
(113,175,ls),
(121,175,o),
(127,178,o),
(132,185,cs)
);
}
);
width = 957;
}
);
metricRight = "=|";
unicode = 9992;
}
{
glyphname = checkmark;
layers = (
{
layerId = m002;
shapes = (
{
closed = 1;
nodes = (
(228,0,l),
(654,730,l),
(671,700,l),
(514,700,l),
(566,730,l),
(183,63,l),
(215,61,l),
(76,350,l),
(126,318,l),
(-26,318,l),
(-6,350,l),
(165,0,l)
);
}
);
width = 616;
}
);
unicode = 10003;
}
{
glyphname = eightPointedRectilinearBlackStar;
layers = (
{
layerId = m002;
shapes = (
{
closed = 1;
nodes = (
(390,234,l),
(350,234,l),
(512,0,l),
(480,272,l),
(449,241,l),
(721,209,l),
(487,371,l),
(487,331,l),
(721,493,l),
(449,461,l),
(480,430,l),
(512,701,l),
(350,467,l),
(390,467,l),
(228,701,l),
(261,425,l),
(296,460,l),
(20,493,l),
(254,331,l),
(254,371,l),
(20,209,l),
(291,241,l),
(260,272,l),
(228,0,l)
);
}
);
width = 741;
}
);
metricRight = "=|";
unicode = 10039;
}
{
glyphname = heavyBlackHeart;
layers = (
{
layerId = m002;
shapes = (
{
closed = 1;
nodes = (
(447,6,l),
(455,182,o),
(832,228,o),
(832,477,cs),
(832,599,o),
(738,673,o),
(639,673,cs),
(540,673,o),
(459,598,o),
(445,503,c),
(447,503,l),
(433,598,o),
(352,673,o),
(253,673,cs),
(155,673,o),
(60,600,o),
(60,478,cs),
(60,231,o),
(438,187,o),
(446,6,c)
);
}
);
width = 892;
}
);
metricRight = "=|";
unicode = 10084;
}
{
glyphname = whitelenticularbracketleft;
layers = (
{
layerId = m002;
shapes = (
{
closed = 1;
nodes = (
(418,-205,l),
(305,-27,o),
(250,109,o),
(250,244,cs),
(250,383,o),
(307,520,o),
(417,700,c),
(97,700,l),
(97,-205,l)
);
},
{
closed = 1;
nodes = (
(159,683,l),
(114,643,l),
(354,643,l),
(326,670,l),
(237,504,o),
(189,372,o),
(189,240,cs),
(189,112,o),
(234,-16,o),
(327,-176,c),
(353,-148,l),
(114,-148,l),
(159,-188,l)
);
}
);
width = 456;
}
);
metricLeft = blacklenticularbracketleft;
metricRight = blacklenticularbracketleft;
unicode = 12310;
}
{
glyphname = Saltillo;
kernLeft = H;
kernRight = H;
layers = (
{
layerId = m002;
shapes = (
{
closed = 1;
nodes = (
(151,224,l),
(151,700,l),
(64,700,l),
(64,224,l)
);
}
);
width = 215;
}
);
metricRight = "=|";
unicode = 42891;
}
{
glyphname = saltillo;
kernLeft = n;
kernRight = g;
layers = (
{
layerId = m002;
shapes = (
{
closed = 1;
nodes = (
(126,210,l),
(126,545,l),
(41,545,l),
(41,210,l)
);
}
);
width = 167;
}
);
metricLeft = "=idotless/2";
metricRight = "=|";
unicode = 42892;
}
{
glyphname = N_strokelongcomb;
kernLeft = H;
kernRight = H;
layers = (
{
layerId = m002;
shapes = (
{
ref = N;
},
{
closed = 1;
nodes = (
(636,387,l),
(57,387,l),
(57,321,l),
(636,321,l)
);
}
);
width = 693;
}
);
}
{
export = 0;
glyphname = _H_strokelongcomb;
layers = (
{
anchors = (
{
name = _center;
pos = (347,350);
}
);
layerId = m002;
shapes = (
{
closed = 1;
nodes = (
(676,479,l),
(676,545,l),
(17,545,l),
(17,479,l)
);
}
);
width = 693;
}
);
}
{
export = 0;
glyphname = _L_slashshortcomb;
layers = (
{
anchors = (
{
name = _center;
pos = (92,350);
}
);
layerId = m002;
shapes = (
{
closed = 1;
nodes = (
(46,254,l),
(380,499,l),
(374,477,l),
(313,563,l),
(349,562,l),
(3,311,l),
(8,336,l),
(68,244,l)
);
}
);
width = 498;
}
);
}
{
export = 0;
glyphname = _O_slashlongcomb;
layers = (
{
anchors = (
{
name = _center;
pos = (376,350);
}
);
layerId = m002;
shapes = (
{
closed = 1;
nodes = (
(213,57,l),
(241,97,l),
(572,563,l),
(602,598,l),
(687,715,l),
(680,698,l),
(611,750,l),
(630,754,l),
(551,644,l),
(525,613,l),
(187,135,l),
(160,100,l),
(71,-21,l),
(66,0,l),
(144,-57,l),
(127,-62,l)
);
}
);
width = 752;
}
);
}
{
export = 0;
glyphname = _bar_hor_dbl_;
layers = (
{
anchors = (
{
name = _bar_hor_dbl;
pos = (305,355);
}
);
background = {
shapes = (
{
pos = (-30,0);
ref = H;
}
);
};
layerId = m002;
shapes = (
{
closed = 1;
nodes = (
(448,390,l),
(448,460,l),
(80,460,l),
(80,390,l)
);
},
{
closed = 1;
nodes = (
(448,250,l),
(448,320,l),
(80,320,l),
(80,250,l)
);
}
);
width = 600;
}
);
}
{
export = 0;
glyphname = _caLaca_ekor;
layers = (
{
layerId = m002;
shapes = (
{
closed = 1;
nodes = (
(315,-10,o),
(327,210,o),
(327,242,c),
(338,217,l),
(265,225,l),
(277,241,l),
(260,138,o),
(221,62,o),
(172,62,c),
(179,-10,l)
);
}
);
width = 1053;
}
);
}
{
export = 0;
glyphname = _calaca_gantungan;
layers = (
{
layerId = m002;
shapes = (
{
closed = 1;
nodes = (
(-175,-689,o),
(-80,-603,o),
(-80,-360,cs),
(-80,10,l),
(-156,10,l),
(-156,-364,ls),
(-156,-534,o),
(-210,-616,o),
(-297,-616,cs),
(-409,-616,o),
(-426,-480,o),
(-443,-389,cs),
(-468,-255,o),
(-512,-124,o),
(-687,-124,c),
(-687,-200,l),
(-572,-200,o),
(-542,-287,o),
(-518,-408,cs),
(-497,-513,o),
(-473,-689,o),
(-298,-689,cs)
);
}
);
width = 0;
}
);
}
{
export = 0;
glyphname = _daMadu_below;
layers = (
{
layerId = m002;
shapes = (
{
closed = 1;
nodes = (
(311,-681,l),
(310,-632,l),
(300,-624,l),
(235,-624,o),
(201,-542,o),
(201,-425,cs),
(201,-333,o),
(239,-210,o),
(305,-114,c),
(298,-167,l),
(201,-114,l),
(243,-92,l),
(168,-202,o),
(129,-327,o),
(129,-442,cs),
(129,-574,o),
(185,-689,o),
(301,-689,c)
);
}
);
width = 963;
},
{
associatedMasterId = m002;
layerId = "923CE109-CACA-4BA9-ADCE-1BBB749358FA";
name = "1 Jun 23 10.27";
shapes = (
{
closed = 1;
nodes = (
(311,-681,l),
(310,-632,l),
(300,-624,l),
(242,-624,o),
(203,-561,o),
(203,-424,cs),
(203,-312,o),
(235,-196,o),
(272,-114,c),
(270,-157,l),
(178,-117,l),
(218,-110,l),
(166,-200,o),
(135,-324,o),
(135,-429,cs),
(135,-583,o),
(184,-689,o),
(301,-689,c)
);
}
);
width = 963;
}
);
}
{
export = 0;
glyphname = _daMudra;
layers = (
{
background = {
shapes = (
{
closed = 1;
nodes = (
(701,-10,o),
(757,105,o),
(757,237,cs),
(757,352,o),
(716,477,o),
(641,587,c),
(685,568,l),
(588,512,l),
(583,565,l),
(649,469,o),
(685,346,o),
(685,254,cs),
(685,137,o),
(651,55,o),
(586,55,c),
(576,47,l),
(575,-2,l),
(585,-10,l)
);
}
);
};
layerId = m002;
shapes = (
{
closed = 1;
nodes = (
(713,-10,o),
(767,98,o),
(767,232,cs),
(767,347,o),
(727,482,o),
(661,583,c),
(696,582,l),
(589,527,l),
(595,555,l),
(654,452,o),
(687,329,o),
(687,231,cs),
(687,134,o),
(654,62,o),
(582,62,c),
(585,-10,l)
);
}
);
width = 797;
},
{
associatedMasterId = m002;
layerId = "3B6E1FB6-88E2-4A19-9876-D40E12556588";
name = "1 Jun 23 10.30";
shapes = (
{
closed = 1;
nodes = (
(690,-10,o),
(747,96,o),
(747,250,cs),
(747,355,o),
(715,492,o),
(660,583,c),
(696,582,l),
(604,542,l),
(602,565,l),
(648,466,o),
(675,355,o),
(675,253,cs),
(675,130,o),
(641,62,o),
(582,62,c),
(585,-10,l)
);
}
);
width = 797;
},
{
associatedMasterId = m002;
layerId = "DAA32072-1AB7-42D6-81EA-9A79AEF32A82";
name = "2 Jun 23 15.15";
shapes = (
{
closed = 1;
nodes = (
(690,-10,o),
(759,106,o),
(759,260,cs),
(759,365,o),
(715,492,o),
(660,583,c),
(696,582,l),
(604,542,l),
(602,565,l),
(654,474,o),
(687,365,o),
(687,263,cs),
(687,140,o),
(641,62,o),
(582,62,c),
(585,-10,l)
);
}
);
width = 797;
}
);
}
{
export = 0;
glyphname = _euro;
layers = (
{
anchors = (
{
name = bar_hor_dbl;
pos = (230,350);
},
{
name = bottom;
pos = (380,0);
},
{
name = top;
pos = (357,700);
}
);
background = {
shapes = (
{
pos = (59,0);
ref = O;
}
);
};
layerId = m002;
shapes = (
{
closed = 1;
nodes = (
(362,-10,o),
(425,4,o),
(485,62,c),
(482,19,l),
(406,152,l),
(452,136,l),
(410,87,o),
(361,69,o),
(317,69,cs),
(213,69,o),
(138,167,o),
(138,352,cs),
(138,555,o),
(222,631,o),
(315,631,cs),
(367,631,o),
(413,606,o),
(450,551,c),
(414,543,l),
(481,658,l),
(484,630,l),
(436,688,o),
(379,710,o),
(313,710,cs),
(170,710,o),
(50,599,o),
(50,350,cs),
(50,123,o),
(155,-10,o),
(316,-10,cs)
);
}
);
width = 511;
}
);
}
